<svg width="685" height="401" viewBox="0 0 685 401" fill="none" xmlns="http://www.w3.org/2000/svg">
<path d="M668.189 384.47L653.855 384.798L646.524 384.908C644.117 384.908 641.6 384.908 639.193 385.017H638.755V384.58L638.646 372.325V371.778H639.193L653.636 371.887C658.451 371.887 663.265 371.997 668.079 372.106H668.408V372.434C668.408 374.513 668.298 376.592 668.298 378.671L668.189 384.47ZM668.189 384.47L668.079 378.233C668.079 376.154 667.97 374.185 667.97 372.215L668.298 372.544C663.484 372.653 658.669 372.762 653.855 372.762L639.412 372.872L639.959 372.325L639.85 384.58L639.412 384.142C641.819 384.142 644.226 384.142 646.524 384.251L653.746 384.361L668.189 384.47Z" fill="#EBEBEB"/>
<path d="M651.995 399.898L637.661 400.226L630.33 400.336C627.923 400.336 625.406 400.336 622.999 400.445H622.561V400.008L622.452 387.753V387.206H622.999L637.442 387.315C642.257 387.315 647.071 387.425 651.885 387.534H652.214V387.862C652.214 389.941 652.104 392.02 652.104 394.099L651.995 399.898ZM651.995 399.898L651.885 393.661C651.885 391.582 651.776 389.613 651.776 387.643L652.104 387.972C647.29 388.081 642.475 388.191 637.661 388.191L623.218 388.3L623.765 387.753L623.656 400.008L623.218 399.57C625.625 399.57 628.032 399.57 630.33 399.679L637.552 399.789L651.995 399.898Z" fill="#EBEBEB"/>
<path d="M684.383 399.898L670.049 400.226L662.718 400.336C660.311 400.336 657.794 400.336 655.387 400.445H654.949V400.008L654.84 387.753V387.206H655.387L669.83 387.315C674.644 387.315 679.459 387.425 684.273 387.534H684.601V387.862C684.601 389.941 684.492 392.02 684.492 394.099L684.383 399.898ZM684.383 399.898L684.273 393.661C684.273 391.582 684.164 389.613 684.164 387.643L684.492 387.972C679.678 388.081 674.863 388.191 670.049 388.191L655.606 388.3L656.153 387.753L656.043 400.008L655.606 399.57C658.013 399.57 660.42 399.57 662.718 399.679L669.939 399.789L684.383 399.898Z" fill="#EBEBEB"/>
<path d="M222.861 130.95L208.527 131.279L201.196 131.388C198.789 131.388 196.272 131.388 193.865 131.497H193.427V131.06L193.318 118.805V118.258H193.865L208.308 118.367C213.123 118.367 217.937 118.477 222.751 118.586H223.08V118.914C223.08 120.993 222.97 123.072 222.97 125.151L222.861 130.95ZM222.861 130.95L222.751 124.714C222.751 122.635 222.642 120.665 222.642 118.696L222.97 119.024C218.156 119.133 213.341 119.243 208.527 119.243L194.084 119.352L194.631 118.805L194.522 131.06L194.084 130.622C196.491 130.622 198.898 130.622 201.196 130.732L208.418 130.841L222.861 130.95Z" fill="#EBEBEB"/>
<path d="M206.667 146.378L192.333 146.706L185.002 146.815C182.595 146.815 180.078 146.815 177.671 146.925H177.234V146.487L177.124 134.232V133.685H177.671L192.114 133.795C196.929 133.795 201.743 133.904 206.557 134.013H206.886V134.342C206.886 136.421 206.776 138.5 206.776 140.578L206.667 146.378ZM206.667 146.378L206.557 140.141C206.557 138.062 206.448 136.092 206.448 134.123L206.776 134.451C201.962 134.561 197.148 134.67 192.333 134.67L177.89 134.779L178.437 134.232L178.328 146.487L177.89 146.049C180.297 146.049 182.704 146.049 185.002 146.159L192.224 146.268L206.667 146.378Z" fill="#EBEBEB"/>
<path d="M239.054 146.378L224.72 146.706L217.389 146.815C214.982 146.815 212.465 146.815 210.058 146.925H209.62V146.487L209.511 134.232V133.685H210.058L224.501 133.795C229.315 133.795 234.13 133.904 238.944 134.013H239.272V134.342C239.272 136.421 239.163 138.5 239.163 140.578L239.054 146.378ZM239.054 146.378L238.944 140.141C238.944 138.062 238.835 136.092 238.835 134.123L239.163 134.451C234.349 134.561 229.534 134.67 224.72 134.67L210.277 134.779L210.824 134.232L210.715 146.487L210.277 146.049C212.684 146.049 215.091 146.049 217.389 146.159L224.611 146.268L239.054 146.378Z" fill="#EBEBEB"/>
<path d="M62.5649 319.805L48.2312 320.133L40.9003 320.242C38.4931 320.242 35.9765 320.242 33.5693 320.352H33.1316V319.914L33.0222 307.659V307.112H33.5693L48.0124 307.222C52.8268 307.222 57.6411 307.331 62.4555 307.441H62.7837V307.769C62.7837 309.848 62.6743 311.927 62.6743 314.006L62.5649 319.805ZM62.5649 319.805L62.4555 313.568C62.4555 311.489 62.3461 309.519 62.3461 307.55L62.6743 307.878C57.86 307.988 53.0456 308.097 48.2312 308.097L33.7881 308.206L34.3352 307.659L34.2258 319.914L33.7881 319.476C36.1953 319.476 38.6025 319.476 40.9003 319.586L48.1218 319.695L62.5649 319.805Z" fill="#EBEBEB"/>
<path d="M521.022 132.044L506.688 132.372L499.357 132.482C496.95 132.482 494.434 132.482 492.026 132.591H491.589V132.154L491.479 119.899V119.352H492.026L506.469 119.461C511.284 119.461 516.098 119.571 520.913 119.68H521.241V120.008C521.241 122.087 521.131 124.166 521.131 126.245L521.022 132.044ZM521.022 132.044L520.913 125.807C520.913 123.728 520.803 121.759 520.803 119.789L521.131 120.118C516.317 120.227 511.503 120.337 506.688 120.337L492.245 120.446L492.792 119.899L492.683 132.154L492.245 131.716C494.652 131.716 497.06 131.716 499.357 131.825L506.579 131.935L521.022 132.044Z" fill="#EBEBEB"/>
<path d="M666.548 13.107L652.214 13.4353L644.883 13.5447C642.476 13.5447 639.959 13.5447 637.552 13.6541H637.114V13.2164L637.005 0.961699V0.414612H637.552L651.995 0.52403C656.809 0.52403 661.624 0.633448 666.438 0.742865H666.766V1.07112C666.766 3.15005 666.657 5.22898 666.657 7.30791L666.548 13.107ZM666.548 13.107L666.438 6.87023C666.438 4.79131 666.329 2.82179 666.329 0.852281L666.657 1.18053C661.843 1.28995 657.028 1.39937 652.214 1.39937L637.771 1.50879L638.318 0.961699L637.99 13.107L637.552 12.6694C639.959 12.6694 642.366 12.6694 644.664 12.7788L651.886 12.8882L666.548 13.107Z" fill="#EBEBEB"/>
<path d="M682.632 28.5356L668.298 28.8638L660.967 28.9732C658.56 28.9732 656.044 28.9732 653.636 29.0826H653.199V28.645L653.089 16.3902V15.8431H653.636L668.079 15.9526C672.894 15.9526 677.708 16.062 682.523 16.1714H682.851V16.4996C682.851 18.5786 682.741 20.6575 682.741 22.7364L682.632 28.5356ZM682.632 28.5356L682.523 22.2988C682.523 20.2198 682.413 18.2503 682.413 16.2808L682.741 16.6091C677.927 16.7185 673.113 16.8279 668.298 16.8279L653.855 16.9373L654.402 16.3902L654.293 28.645L653.855 28.2073C656.262 28.2073 658.67 28.2073 660.967 28.3167L668.189 28.4261L682.632 28.5356Z" fill="#EBEBEB"/>
<path d="M30.1764 13.108L15.8428 13.4362L8.5118 13.5457C6.10461 13.5457 3.58802 13.5457 1.18083 13.6551H0.743164V13.2174V0.853239V0.306152H1.29025L15.7333 0.41557C20.5477 0.41557 25.3621 0.524988 30.1764 0.634406H30.5047V0.962657C30.5047 3.04159 30.3953 5.12052 30.3953 7.19945L30.1764 13.108ZM30.1764 13.108L30.067 6.98061C30.067 4.90168 29.9576 2.93217 29.9576 0.962657L30.2858 1.29091C25.4715 1.40033 20.6571 1.50974 15.8428 1.50974L1.29025 1.40033L1.83734 0.853239L1.72792 13.108L1.29025 12.6703C3.69743 12.6703 6.10461 12.6703 8.40238 12.7797L15.6239 12.8891L30.1764 13.108Z" fill="#EBEBEB"/>
</svg>
