<svg width="327" height="196" viewBox="0 0 327 196" fill="none" xmlns="http://www.w3.org/2000/svg">
<path d="M228.698 178.253C184.384 178.253 148.386 142.255 148.386 97.9411C148.386 53.6271 184.384 17.6288 228.698 17.6288C273.012 17.6288 309.011 53.6271 309.011 97.9411C309.011 142.146 272.903 178.253 228.698 178.253ZM228.698 22.0055C186.791 22.0055 152.763 56.0343 152.763 97.9411C152.763 139.848 186.791 173.877 228.698 173.877C270.605 173.877 304.634 139.848 304.634 97.9411C304.634 56.0343 270.496 22.0055 228.698 22.0055Z" fill="#FE9563"/>
<path d="M277.607 146.796C304.613 119.791 304.613 76.0069 277.607 49.0017C250.602 21.9965 206.818 21.9965 179.813 49.0016C152.808 76.0068 152.808 119.791 179.813 146.796C206.818 173.801 250.602 173.801 277.607 146.796Z" fill="#FFCFB8"/>
<path d="M229.249 96.3001C226.404 104.397 214.915 144.225 207.256 146.523C194.783 150.133 185.154 149.039 175.197 149.258C169.507 149.368 160.863 122.341 165.896 122.123C173.993 121.904 192.485 123.326 195.439 123.217C198.393 123.107 209.335 100.349 219.73 90.501C229.03 81.5288 231.219 90.6104 229.249 96.3001Z" fill="#EB9481"/>
<path d="M178.48 148.493C178.042 148.711 171.477 151.119 167.538 151.884C164.584 152.432 156.049 153.745 155.174 150.571C154.518 148.383 159.441 147.07 162.943 145.976C164.803 145.429 167.101 143.788 166.663 142.693C166.006 140.615 161.301 142.146 158.128 143.569C152.11 146.304 143.904 151.447 140.622 148.274C139.418 147.07 141.169 145.21 143.576 143.459C139.746 145.319 135.588 146.851 134.275 145.538C133.509 144.772 133.509 143.897 134.166 142.912C132.962 143.131 131.978 143.022 131.431 142.146C130.336 140.833 131.102 138.973 132.634 137.332C132.196 137.223 131.868 137.004 131.649 136.566C129.57 132.518 143.138 122.889 147.624 122.232C160.645 120.482 173.994 122.451 173.994 122.451C178.589 126.828 178.48 148.493 178.48 148.493Z" fill="#EB9481"/>
<path d="M160.864 134.815C157.8 134.925 154.736 135.8 152.001 137.223C148.499 138.973 146.202 141.271 143.138 143.569C143.029 143.678 143.138 143.788 143.247 143.678C144.67 142.584 150.469 138.645 152.001 137.77C154.846 136.128 157.8 135.144 160.864 134.815C160.973 134.925 160.973 134.815 160.864 134.815Z" fill="#263238"/>
<path d="M159.113 129.235C155.722 129.782 152.111 130.329 148.828 131.642C145.217 133.064 142.263 135.581 139.418 137.988C137.668 139.411 136.026 140.942 134.276 142.474C134.166 142.584 134.276 142.693 134.385 142.584C137.339 140.067 140.294 137.55 143.467 135.253C146.421 133.064 149.485 131.423 153.095 130.548C155.065 130.001 157.035 129.672 159.113 129.235Z" fill="#263238"/>
<path d="M156.049 124.092C152.766 124.421 149.812 124.749 146.748 126.171C142.7 128.031 138.652 131.642 137.229 132.846C135.697 134.268 134.165 135.691 132.634 137.113C132.524 137.222 132.634 137.332 132.743 137.222C136.135 134.049 139.855 131.095 143.685 128.469C145.545 127.156 147.514 126.062 149.593 125.405C151.563 124.639 153.861 124.421 156.049 124.092Z" fill="#263238"/>
<path d="M196.53 117.965L216.663 142.365C216.663 142.365 228.37 110.196 230.668 95.8626C233.185 80.9819 228.261 76.6052 215.678 92.033C203.204 107.351 196.53 117.965 196.53 117.965Z" fill="#FE9563"/>
<path d="M215.568 94.6591C215.349 94.6591 215.131 94.5497 214.912 94.4402C214.693 94.2214 214.474 94.0026 214.365 93.7837C214.255 94.0026 214.036 94.112 213.927 94.3308C214.146 94.5496 214.365 94.7685 214.693 94.8779C215.021 94.9873 215.349 94.9873 215.568 94.9873C215.896 94.8779 216.115 94.8779 216.444 94.7685C216.115 94.7685 215.896 94.6591 215.568 94.6591ZM210.754 132.955C210.535 132.955 210.316 132.846 210.097 132.736C209.66 132.517 209.441 132.08 209.55 131.642C209.55 130.986 209.113 130.329 208.456 130.11C208.128 130.001 207.8 130.001 207.581 130.001C207.252 130.11 207.034 130.11 206.705 130.22C207.034 130.329 207.252 130.329 207.581 130.439C207.909 130.439 208.128 130.548 208.237 130.657C208.675 130.876 208.894 131.314 208.894 131.752C208.894 132.408 209.331 133.065 209.988 133.393C210.316 133.502 210.644 133.502 210.863 133.502C211.191 133.502 211.41 133.393 211.739 133.283C211.41 133.065 211.082 133.065 210.754 132.955ZM229.792 91.5954C229.683 91.9236 229.683 92.2519 229.683 92.4707C229.792 92.6896 229.792 93.0178 229.902 93.3461C230.011 93.0178 230.011 92.799 230.121 92.4707C230.121 92.1425 230.23 91.9236 230.34 91.8142C230.558 91.486 230.996 91.2671 231.324 91.2671C231.324 91.0483 231.324 90.8295 231.324 90.6106C230.668 90.5012 230.011 90.9389 229.792 91.5954ZM212.614 111.947C212.614 111.619 212.505 111.4 212.395 111.072C212.286 111.291 212.286 111.619 212.176 111.947C212.176 112.275 212.067 112.494 211.957 112.604C211.739 113.041 211.301 113.26 210.863 113.26C210.207 113.26 209.55 113.698 209.222 114.354C209.113 114.682 209.113 115.011 209.113 115.23C209.113 115.558 209.222 115.777 209.331 116.105C209.441 115.777 209.441 115.558 209.55 115.23C209.55 115.011 209.66 114.792 209.769 114.573C209.988 114.135 210.426 113.917 210.863 114.026C211.52 114.026 212.176 113.588 212.395 112.932C212.723 112.604 212.723 112.275 212.614 111.947ZM220.93 102.428C220.711 102.647 220.492 102.647 220.273 102.756C219.835 102.865 219.398 102.756 219.07 102.428C218.522 101.99 217.757 101.771 217.209 102.099C216.881 102.209 216.662 102.537 216.553 102.756C216.444 102.975 216.225 103.194 216.115 103.522C216.334 103.412 216.553 103.194 216.881 103.084C217.1 102.865 217.319 102.756 217.538 102.756C217.975 102.647 218.413 102.756 218.741 103.084C219.179 103.631 219.945 103.741 220.601 103.522C220.93 103.412 221.148 103.194 221.367 102.975C221.477 102.756 221.696 102.537 221.805 102.209C221.477 102.099 221.258 102.318 220.93 102.428ZM222.462 122.013C221.914 121.576 221.148 121.357 220.601 121.685C220.273 121.795 220.054 122.123 219.945 122.342C219.835 122.56 219.617 122.779 219.507 123.108C219.726 122.998 219.945 122.779 220.273 122.67C220.492 122.451 220.711 122.342 220.93 122.342C221.367 122.232 221.805 122.342 222.133 122.67C222.462 122.998 222.899 123.217 223.337 123.217L223.556 122.56C223.118 122.451 222.79 122.342 222.462 122.013ZM199.374 119.716C199.156 119.934 198.937 119.934 198.718 120.044C198.499 120.044 198.39 120.044 198.171 120.044L198.609 120.591C198.718 120.591 198.718 120.591 198.827 120.482C199.156 120.372 199.374 120.153 199.593 119.934C199.703 119.716 199.922 119.497 200.031 119.169C199.812 119.387 199.593 119.606 199.374 119.716Z" fill="white"/>
<path d="M217.212 135.144C216.775 134.488 216.227 133.831 215.68 133.284C215.133 132.627 214.696 131.971 214.149 131.314C213.164 130.001 212.07 128.688 210.975 127.485C208.787 124.968 206.708 122.342 204.52 119.826C203.973 119.169 203.316 118.403 202.66 117.747C202.003 116.981 201.347 116.324 200.69 115.668C200.69 115.668 200.581 115.668 200.581 115.777C201.128 116.434 201.566 117.09 202.003 117.747C202.55 118.403 203.097 119.06 203.535 119.716C204.629 121.029 205.614 122.233 206.708 123.546C208.787 126.062 210.975 128.579 213.164 130.986C213.82 131.643 214.367 132.299 215.024 133.065C215.899 133.722 216.446 134.488 217.212 135.144C217.322 135.144 217.212 135.253 217.212 135.144Z" fill="#263238"/>
<path opacity="0.1" d="M230.668 95.9721C228.261 110.196 216.663 142.475 216.663 142.475L203.97 127.156L227.932 82.6232C231.106 82.6232 232.09 87.6564 230.668 95.9721Z" fill="black"/>
<path d="M276.735 147.617C264.48 159.434 247.849 166.874 229.467 167.093C229.139 167.093 228.92 167.093 228.591 167.093C222.026 167.093 215.79 166.218 209.772 164.467C208.568 164.139 207.255 163.701 206.051 163.373C207.693 148.711 213.82 101.552 225.418 84.7017C225.856 84.0452 226.513 83.3887 227.388 82.8416C231.436 79.9968 239.096 78.7932 243.8 82.1851C260.432 94.3304 271.374 126.28 276.735 147.617Z" fill="white"/>
<path d="M277.282 147.179C277.173 147.398 276.954 147.507 276.844 147.616C264.59 159.434 247.958 166.874 229.576 167.093C230.014 160.856 232.64 125.186 232.968 121.794C233.953 109.43 243.582 83.4978 244.019 82.2943C244.019 82.2943 249.381 84.9203 254.742 92.5795C264.808 106.475 272.577 130 277.282 147.179Z" fill="#FE9563"/>
<path d="M227.934 81.7476C227.934 81.857 227.715 82.1852 227.496 82.8417C225.636 87.3278 218.743 104.944 216.774 115.558C215.789 121.138 211.303 153.635 209.771 164.467C208.567 164.139 207.254 163.701 206.051 163.373C205.394 163.154 204.847 162.935 204.191 162.716C205.941 149.477 210.974 114.573 218.196 96.9566C223.01 85.3583 227.715 81.9664 227.934 81.7476Z" fill="#FE9563"/>
<path opacity="0.1" d="M237.233 110.415L250.035 111.947C250.035 111.947 249.269 123.764 249.05 124.311C248.832 124.748 241.938 127.593 241.501 127.265C241.063 127.046 236.03 123.326 235.811 122.998C235.483 122.669 237.233 110.415 237.233 110.415Z" fill="black"/>
<path d="M256.604 96.4101C272.469 122.123 286.912 150.681 281.66 158.012C277.393 163.921 231.766 179.677 218.964 180.661C214.916 180.99 204.74 150.9 211.524 148.383C213.493 147.727 251.789 141.709 252.008 140.943C252.665 138.645 248.397 122.889 244.458 105.054C239.425 81.967 249.929 85.4683 256.604 96.4101Z" fill="#EB9481"/>
<path d="M196.094 153.745C198.064 153.089 199.158 151.557 195.657 150.353C192.155 149.15 177.603 147.618 178.588 142.585C179.572 137.551 199.815 141.053 205.723 142.475C215.571 144.882 220.057 152.651 220.057 152.651C210.647 153.089 203.535 153.636 196.094 153.745Z" fill="#EB9481"/>
<path d="M185.262 139.959C189.201 139.521 193.031 139.74 196.97 140.178C200.8 140.725 204.739 141.6 208.24 143.132C206.27 142.804 204.41 142.366 202.55 142.038C200.69 141.709 198.721 141.381 196.861 141.162C192.922 140.725 189.092 140.396 185.262 139.959Z" fill="#263238"/>
<path d="M155.183 149.512L155.176 152.466L222.03 152.63L222.037 149.676L155.183 149.512Z" fill="#37474F"/>
<path d="M155.175 149.478V152.432L200.583 152.541L198.395 149.587L155.175 149.478Z" fill="#263238"/>
<path d="M195.441 152.542L130.229 152.433L124.977 108.119L190.08 108.338L195.441 152.542Z" fill="#37474F"/>
<path d="M164.147 130.33C164.147 132.518 162.396 134.269 160.208 134.269C158.02 134.269 156.16 132.518 156.16 130.33C156.16 128.141 157.91 126.391 160.099 126.391C162.287 126.391 164.147 128.141 164.147 130.33Z" fill="white"/>
<path d="M218.857 180.662C207.368 181.318 190.846 179.568 180.123 172.237C178.044 170.814 177.497 168.845 177.497 168.845C172.573 165.562 172.682 162.28 172.682 162.28C169.072 157.903 169.619 154.511 169.619 154.511C169.619 154.511 163.929 150.682 165.68 146.852C167.649 142.585 175.199 148.821 181.545 149.697C195.988 151.776 217.215 152.76 221.483 152.979L218.857 180.662Z" fill="#EB9481"/>
<path d="M195.115 162.499C190.847 161.842 186.689 161.295 182.641 159.982C178.155 158.56 173.997 156.481 169.839 154.511C169.73 154.402 169.62 154.621 169.73 154.73C176.842 159.545 186.58 162.499 195.115 162.718C195.224 162.718 195.333 162.499 195.115 162.499Z" fill="#263238"/>
<path d="M195.113 171.361C191.064 170.486 183.843 168.845 172.682 162.17C172.682 162.17 172.573 162.17 172.682 162.28C179.356 167.532 186.687 170.486 195.113 171.58C195.331 171.58 195.331 171.471 195.113 171.361Z" fill="#263238"/>
<path d="M195.004 176.176C188.111 174.426 184.062 172.347 177.497 168.845C177.497 168.845 177.388 168.845 177.497 168.955C184.5 173.769 187.564 174.754 195.004 176.504C195.223 176.395 195.332 176.176 195.004 176.176Z" fill="#263238"/>
<path d="M249.16 133.721L280.782 134.597C280.782 134.597 264.151 104.616 254.96 93.4556C245.331 81.8574 238.766 82.6233 242.158 102.318C245.55 121.685 249.16 133.721 249.16 133.721Z" fill="#FE9563"/>
<path d="M272.684 120.482C272.575 120.482 272.356 120.482 272.247 120.372C271.918 120.372 271.699 120.263 271.59 120.153C271.262 119.934 270.934 119.497 271.043 119.059C271.043 118.403 270.605 117.746 269.949 117.527C269.621 117.418 269.292 117.418 269.073 117.418C268.745 117.527 268.526 117.527 268.198 117.637C268.417 117.746 268.745 117.746 269.073 117.856C269.402 117.856 269.621 117.965 269.73 118.074C270.168 118.293 270.386 118.731 270.386 119.169C270.386 119.825 270.824 120.482 271.371 120.7C271.7 120.81 272.028 120.81 272.247 120.81C272.465 120.81 272.575 120.7 272.794 120.7C272.903 120.7 273.013 120.7 273.122 120.591C273.013 120.591 272.903 120.591 272.684 120.482ZM265.682 131.642C265.463 131.861 265.244 131.97 265.025 131.97C264.587 132.08 264.15 131.97 263.821 131.642C263.384 131.204 262.618 130.986 261.961 131.204C261.633 131.314 261.414 131.533 261.195 131.752C261.086 131.97 260.867 132.189 260.758 132.517C260.977 132.408 261.195 132.189 261.524 132.08C261.743 131.861 261.961 131.861 262.18 131.752C262.618 131.642 263.056 131.752 263.384 132.08C263.931 132.517 264.697 132.736 265.244 132.408C265.572 132.299 265.791 131.97 265.9 131.752C266.01 131.533 266.229 131.314 266.338 131.095C266.119 131.314 265.9 131.423 265.682 131.642ZM263.712 105.82C263.603 105.929 263.493 106.148 263.384 106.367C263.274 106.695 263.274 107.023 263.274 107.242C263.274 107.57 263.384 107.789 263.493 108.117C263.603 107.789 263.603 107.57 263.712 107.242C263.712 107.023 263.821 106.804 263.931 106.586C264.04 106.476 264.04 106.476 264.15 106.367C263.931 106.148 263.821 106.038 263.712 105.82ZM255.615 117.418C255.506 117.199 255.506 116.871 255.396 116.543C255.287 116.871 255.287 117.09 255.177 117.418C255.177 117.746 255.068 117.965 254.959 118.184C254.74 118.621 254.302 118.84 253.865 118.84C253.208 118.84 252.551 119.278 252.333 119.934C252.223 120.263 252.223 120.591 252.223 120.81C252.223 121.138 252.333 121.357 252.333 121.685C252.442 121.466 252.442 121.138 252.551 120.81C252.551 120.591 252.661 120.372 252.77 120.153C252.989 119.716 253.427 119.497 253.865 119.606C254.521 119.606 255.177 119.169 255.396 118.512C255.615 118.074 255.615 117.746 255.615 117.418ZM253.646 101.662C253.427 101.881 253.208 101.881 252.989 101.99C252.551 102.099 252.114 101.99 251.786 101.662C251.238 101.224 250.473 101.005 249.925 101.334C249.597 101.443 249.378 101.771 249.269 101.99C249.16 102.209 248.941 102.428 248.831 102.756C249.05 102.647 249.269 102.428 249.597 102.318C249.816 102.099 250.035 101.99 250.254 101.99C250.691 101.881 251.129 101.99 251.457 102.318C251.895 102.865 252.661 102.975 253.317 102.756C253.646 102.647 253.864 102.428 254.083 102.209C254.193 101.99 254.412 101.771 254.521 101.443C254.193 101.334 253.974 101.552 253.646 101.662Z" fill="white"/>
<path d="M275.75 129.345C274.984 129.235 274.109 129.235 273.343 129.235C272.467 129.235 271.702 129.126 270.826 129.126C269.185 129.016 267.544 129.016 265.793 129.016C262.51 128.907 259.119 128.907 255.836 128.907C254.961 128.907 253.976 128.907 253.101 128.907C252.116 128.907 251.131 129.016 250.256 129.016C250.146 129.016 250.256 129.126 250.256 129.126C251.131 129.126 251.897 129.235 252.772 129.345C253.648 129.345 254.414 129.454 255.289 129.454C256.93 129.454 258.571 129.563 260.322 129.563C263.605 129.563 266.887 129.673 270.17 129.673C271.045 129.673 272.03 129.673 272.905 129.673C273.78 129.454 274.765 129.454 275.75 129.345Z" fill="#263238"/>
<path d="M270.278 117.527C269.184 115.667 268.09 113.698 266.995 111.728C265.792 109.54 264.588 107.352 263.385 105.054C263.385 104.944 263.494 104.944 263.494 104.944C264.916 107.242 269.84 115.011 270.606 116.324C272.904 120.153 275.202 123.983 277.499 127.922C278.812 130.11 280.235 132.627 281.438 134.815C281.548 134.925 278.922 134.815 277.609 134.706C277.499 134.706 277.499 134.487 277.499 134.487C278.812 134.487 280.454 134.378 280.673 134.378C278.375 130.767 276.077 127.047 273.779 123.436C272.576 121.466 271.481 119.497 270.278 117.527Z" fill="#263238"/>
<path d="M245.221 118.949C244.564 117.855 244.127 116.761 243.908 115.557C244.236 116.652 244.674 117.636 245.111 118.621C245.002 118.183 244.892 117.746 244.892 117.308C244.564 115.667 244.236 114.135 244.017 112.494C244.783 115.229 245.33 117.965 245.987 120.7C246.643 123.436 247.3 126.28 247.956 129.016C248.284 130.548 248.722 132.079 249.05 133.611C249.597 133.721 249.926 133.611 250.473 133.721C250.582 133.721 250.582 133.94 250.473 133.94C249.926 133.94 248.722 133.94 248.722 133.83C247.3 129.016 246.205 123.983 245.221 118.949Z" fill="#263238"/>
<path d="M229.469 96.3014C233.955 96.6296 240.411 88.861 242.599 83.0619C242.709 82.6242 238.988 68.1811 238.551 65.2268C238.441 64.5703 220.716 72.5578 220.716 72.5578C220.716 72.5578 223.451 78.4663 224.217 83.609C224.108 84.0466 225.092 95.9731 229.469 96.3014Z" fill="#EB9481"/>
<path d="M240.518 74.309C233.077 82.187 224.105 81.5305 223.667 81.4211C222.573 76.8256 220.494 72.4489 220.494 72.4489C220.494 72.4489 238.22 64.5708 238.329 65.1179C238.658 66.5404 239.642 70.4794 240.518 74.309Z" fill="#263238"/>
<path d="M235.373 42.4681C239.094 48.3766 240.844 67.8529 237.452 73.2144C232.529 80.983 221.806 84.5938 214.584 78.0287C207.581 71.6825 205.721 46.2977 209.77 41.1551C215.678 33.6053 229.793 33.8241 235.373 42.4681Z" fill="#EB9481"/>
<path opacity="0.3" d="M237.343 73.2146C232.419 80.9832 221.696 84.594 214.475 78.029C211.849 75.7312 209.989 70.9168 208.894 65.3365C208.894 65.3365 210.864 69.1662 213.162 68.9473C215.459 68.7285 215.788 66.5401 215.788 66.5401L216.663 66.1025C216.663 66.1025 221.696 69.2756 227.495 66.2119C233.404 63.0388 233.623 55.5984 233.623 55.5984L238.656 55.3796C239.531 62.4917 239.312 70.1509 237.343 73.2146Z" fill="black"/>
<path d="M220.056 58.7711C220.056 58.7711 220.165 58.7711 220.165 58.8805C220.275 60.1936 220.603 61.7254 221.807 62.0536V62.1631C220.275 62.0536 219.837 60.0841 220.056 58.7711Z" fill="#263238"/>
<path d="M221.042 57.3488C223.121 57.0205 223.668 61.1784 221.808 61.5066C219.838 61.8349 219.291 57.5676 221.042 57.3488Z" fill="#263238"/>
<path d="M212.836 59.9742L212.726 60.0837C212.945 61.3967 212.945 62.9285 211.851 63.4756V63.585C213.273 63.1473 213.273 61.1778 212.836 59.9742Z" fill="#263238"/>
<path d="M211.523 58.7711C209.444 58.8805 209.773 63.1478 211.742 63.0384C213.712 62.929 213.274 58.6617 211.523 58.7711Z" fill="#263238"/>
<path d="M222.464 55.1609C221.917 55.0514 221.37 54.942 220.713 54.8326C220.057 54.7232 219.51 54.6138 219.072 54.1761C218.853 53.9573 218.853 53.3008 219.072 53.0819C219.619 52.4254 220.494 52.4254 221.26 52.5348C222.136 52.6443 222.792 53.0819 223.339 53.7384C223.886 54.2855 223.23 55.2703 222.464 55.1609Z" fill="#263238"/>
<path d="M209.552 56.8019C210.099 56.5831 210.646 56.3643 211.194 56.1454C211.85 55.9266 212.288 55.7078 212.725 55.1607C212.944 54.8324 212.835 54.2853 212.506 54.0665C211.85 53.5194 210.975 53.6288 210.209 53.9571C209.443 54.2853 208.786 54.723 208.349 55.4889C208.02 56.2548 208.786 57.0208 209.552 56.8019Z" fill="#263238"/>
<path d="M223.229 70.6985C223.01 71.0268 222.682 71.4645 222.244 71.5739C221.807 71.6833 221.26 71.5739 220.822 71.4645C220.822 71.4645 220.712 71.4645 220.822 71.5739C221.26 72.0115 222.025 72.2304 222.573 72.0115C223.12 71.7927 223.338 71.2456 223.448 70.6985C223.338 70.6985 223.229 70.5891 223.229 70.6985Z" fill="#263238"/>
<path d="M221.262 66.9769C220.715 68.1805 219.73 68.9464 218.526 69.3841C217.979 69.6029 217.432 69.6029 216.885 69.7123C216.776 69.7123 216.666 69.7123 216.557 69.7123C216.448 69.7123 216.338 69.7123 216.229 69.7123C216.119 69.7123 216.01 69.6029 215.901 69.4935V69.3841V69.2747C215.791 68.2899 215.682 66.7581 215.682 66.7581C215.353 66.9769 213.603 68.0711 213.493 67.524C213.165 63.1473 212.837 58.2235 213.384 53.8468C213.384 53.7374 213.603 53.7374 213.603 53.8468C214.04 58.0047 213.822 62.272 214.259 66.5393C214.806 66.211 215.791 65.6639 216.229 65.6639C216.338 65.6639 216.338 68.6182 216.448 69.0559C218.198 69.0559 219.402 68.3993 220.824 66.9769C221.262 66.7581 221.371 66.8675 221.262 66.9769Z" fill="#263238"/>
<path d="M217.539 69.0571C217.539 69.0571 218.633 70.1512 219.837 70.3701C220.275 70.4795 220.822 70.4795 221.259 70.2606C222.244 69.823 222.135 68.8382 221.916 68.0723C221.697 67.4158 221.259 66.8687 221.259 66.8687C221.259 66.8687 219.946 68.51 217.539 69.0571Z" fill="#263238"/>
<path d="M219.836 70.3704C220.273 70.4798 220.82 70.4798 221.258 70.261C222.243 69.8233 222.133 68.8386 221.914 68.0726C220.82 68.4009 219.836 69.2762 219.836 70.3704Z" fill="#FF98B9"/>
<path d="M238.547 61.726C238.547 61.726 244.784 46.2982 238.547 38.0919C236.906 35.9035 229.903 35.7941 229.903 35.7941C229.903 35.7941 229.137 32.4022 225.088 31.5268C220.821 30.5421 214.584 35.1376 214.584 35.1376C214.584 35.1376 206.597 31.5268 202.001 37.5448C197.406 43.5627 205.503 48.1583 205.503 48.1583C205.503 48.1583 205.175 52.6444 212.068 51.8785C218.742 51.1125 228.152 42.3591 228.152 42.3591C228.152 42.3591 229.465 51.0031 233.842 56.0363C235.593 57.787 238.547 61.726 238.547 61.726Z" fill="#263238"/>
<path d="M213.709 35.7938C214.694 34.3713 216.007 33.3866 217.539 32.5112C218.852 31.7453 220.274 31.0888 221.697 30.87C224.323 30.3229 227.277 30.7606 229.028 32.9489C229.903 34.0431 230.341 35.3561 230.231 36.7785C230.231 36.8879 230.122 36.7785 230.122 36.7785C230.45 34.2619 228.153 31.9642 225.855 31.4171C223.229 30.7606 220.384 31.6359 218.086 32.8395C216.554 33.7148 215.241 34.809 213.928 36.0126C213.709 36.0126 213.6 35.9032 213.709 35.7938Z" fill="#263238"/>
<path d="M199.595 43.0154C199.048 41.0459 199.923 39.0764 201.236 37.5445C202.768 35.7939 204.847 34.6997 207.036 34.3714C209.333 33.9338 211.631 34.262 213.819 35.0279V35.1374C209.99 33.8244 205.504 34.3714 202.44 37.2163C201.018 38.5293 200.033 40.28 200.142 42.1401C200.252 43.8907 201.455 45.6414 202.987 46.5168C204.847 47.7204 207.036 48.0486 209.224 48.0486V48.158C207.254 48.2674 205.175 48.0486 203.425 47.1733C201.565 46.4074 200.033 44.9849 199.595 43.0154Z" fill="#263238"/>
<path d="M211.084 52.8626C214.038 52.425 216.883 51.2214 219.509 49.5801C222.135 47.9388 224.652 45.8599 226.84 43.6716C228.153 42.3586 229.357 41.0456 230.67 39.7325C230.67 39.7325 230.779 39.7326 230.779 39.842C228.809 42.468 226.621 45.094 224.105 47.2823C221.697 49.3613 219.071 50.8931 216.117 51.9873C214.366 52.425 212.725 52.8626 211.084 52.8626C210.974 52.972 210.974 52.8626 211.084 52.8626Z" fill="#263238"/>
<path d="M235.485 58.662C235.485 58.662 238.111 51.5499 241.284 52.4252C244.347 53.1912 243.472 62.8199 240.518 64.7894C237.564 66.7589 235.703 64.1329 235.703 64.1329L235.485 58.662Z" fill="#EB9481"/>
<path d="M240.956 55.1603C241.065 55.1603 241.065 55.1603 240.956 55.1603C238.986 56.6921 238.33 59.0993 238.002 61.5065C238.439 60.5217 239.205 59.8652 240.518 60.3029C240.628 60.3029 240.518 60.4123 240.518 60.4123C239.534 60.4123 238.877 60.7406 238.439 61.7253C238.111 62.3818 238.002 63.1477 237.783 63.8042C237.783 64.0231 237.345 64.0231 237.345 63.8042C237.345 63.8042 237.345 63.8042 237.345 63.6948C236.798 60.7405 238.002 56.2545 240.956 55.1603Z" fill="#263238"/>
<path d="M150.575 98.4885H146.198V97.3943H150.575V98.4885ZM142.916 98.4885H138.539V97.3943H142.916V98.4885ZM135.256 98.4885H130.88V97.3943H135.256V98.4885ZM127.597 98.4885H123.22V97.3943H127.597V98.4885ZM119.938 98.4885H115.561V97.3943H119.938V98.4885ZM112.279 98.4885H107.902V97.3943H112.279V98.4885ZM104.62 98.4885H100.243V97.3943H104.62V98.4885ZM96.9603 98.4885H92.5836V97.3943H96.9603V98.4885ZM89.3011 98.4885H84.9244V97.3943H89.3011V98.4885ZM81.6419 98.4885H77.2652V97.3943H81.6419V98.4885ZM73.9827 98.4885H69.606V97.3943H73.9827V98.4885ZM66.3234 98.4885H61.9468V97.3943H66.3234V98.4885ZM58.6642 98.4885H54.2875V97.3943H58.6642V98.4885ZM51.005 98.4885H46.6283V97.3943H51.005V98.4885ZM43.3458 98.4885H38.9691V97.3943H43.3458V98.4885ZM35.6866 98.4885H31.3099V97.3943H35.6866V98.4885ZM28.0274 98.4885H23.6507V97.3943H28.0274V98.4885ZM20.3682 98.4885H15.9915V97.3943H20.3682V98.4885ZM12.7089 98.4885H8.33225V97.3943H12.7089V98.4885ZM5.04972 98.4885H2.86138V97.3943H5.04972V98.4885Z" fill="#FFC727"/>
<path d="M2.9717 95.4249C1.65869 95.4249 0.455078 96.519 0.455078 97.9415C0.455078 99.2545 1.54927 100.458 2.9717 100.458C4.2847 100.458 5.48828 99.3639 5.48828 97.9415C5.37886 96.519 4.2847 95.4249 2.9717 95.4249Z" fill="#FFC727"/>
</svg>
