<svg width="935" height="142" viewBox="0 0 935 142" fill="none" xmlns="http://www.w3.org/2000/svg">
<path d="M24.8555 19.0975V40H20.663V26.4044L15.063 40H11.8887L6.25878 26.4044V40H2.0663V19.0975H6.82776L13.4759 34.6396L20.1239 19.0975H24.8555ZM36.6667 40.2695C35.0696 40.2695 33.6321 39.9201 32.3544 39.2214C31.0767 38.5027 30.0685 37.4945 29.3299 36.1968C28.6111 34.8991 28.2518 33.4018 28.2518 31.7049C28.2518 30.0079 28.6211 28.5106 29.3598 27.2129C30.1184 25.9152 31.1466 24.917 32.4443 24.2183C33.742 23.4996 35.1894 23.1402 36.7865 23.1402C38.3836 23.1402 39.831 23.4996 41.1287 24.2183C42.4264 24.917 43.4446 25.9152 44.1832 27.2129C44.9419 28.5106 45.3212 30.0079 45.3212 31.7049C45.3212 33.4018 44.9319 34.8991 44.1533 36.1968C43.3947 37.4945 42.3565 38.5027 41.0389 39.2214C39.7412 39.9201 38.2838 40.2695 36.6667 40.2695ZM36.6667 36.6161C37.4254 36.6161 38.1341 36.4364 38.7929 36.077C39.4717 35.6977 40.0107 35.1387 40.41 34.4C40.8093 33.6614 41.0089 32.763 41.0089 31.7049C41.0089 30.1277 40.5897 28.9199 39.7512 28.0814C38.9327 27.2229 37.9245 26.7937 36.7266 26.7937C35.5288 26.7937 34.5206 27.2229 33.702 28.0814C32.9035 28.9199 32.5042 30.1277 32.5042 31.7049C32.5042 33.282 32.8935 34.4999 33.6721 35.3583C34.4706 36.1968 35.4689 36.6161 36.6667 36.6161ZM52.8885 25.9851C53.4275 25.1067 54.1263 24.4179 54.9847 23.9188C55.8632 23.4197 56.8614 23.1702 57.9794 23.1702V27.5723H56.8714C55.5537 27.5723 54.5555 27.8817 53.8767 28.5006C53.2179 29.1195 52.8885 30.1976 52.8885 31.7348V40H48.696V23.4097H52.8885V25.9851ZM76.525 31.3455C76.525 31.9444 76.4851 32.4835 76.4053 32.9626H64.277C64.3768 34.1605 64.7961 35.0988 65.5347 35.7776C66.2734 36.4564 67.1818 36.7957 68.2599 36.7957C69.8171 36.7957 70.9251 36.1269 71.5839 34.7893H76.1058C75.6267 36.3865 74.7083 37.7041 73.3507 38.7423C71.9932 39.7604 70.3262 40.2695 68.3497 40.2695C66.7526 40.2695 65.3151 39.9201 64.0374 39.2214C62.7797 38.5027 61.7915 37.4945 61.0727 36.1968C60.374 34.8991 60.0246 33.4018 60.0246 31.7049C60.0246 29.9879 60.374 28.4806 61.0727 27.183C61.7715 25.8853 62.7497 24.8871 64.0075 24.1883C65.2652 23.4896 66.7126 23.1402 68.3497 23.1402C69.9269 23.1402 71.3343 23.4796 72.5721 24.1584C73.8299 24.8372 74.7981 25.8054 75.4769 27.0632C76.1757 28.301 76.525 29.7284 76.525 31.3455ZM72.1828 30.1477C72.1629 29.0696 71.7736 28.2111 71.0149 27.5723C70.2563 26.9135 69.3279 26.584 68.2299 26.584C67.1918 26.584 66.3133 26.9035 65.5946 27.5423C64.8959 28.1612 64.4667 29.0297 64.3069 30.1477H72.1828ZM92.201 26.8536V34.8792C92.201 35.4382 92.3308 35.8474 92.5903 36.107C92.8698 36.3465 93.329 36.4663 93.9678 36.4663H95.9144V40H93.2791C89.7454 40 87.9786 38.2831 87.9786 34.8492V26.8536H86.0021V23.4097H87.9786V19.3071H92.201V23.4097H95.9144V26.8536H92.201ZM108.573 23.1702C109.83 23.1702 110.948 23.4497 111.927 24.0087C112.905 24.5477 113.663 25.3562 114.202 26.4343C114.761 27.4924 115.041 28.7701 115.041 30.2674V40H110.848V30.8364C110.848 29.5188 110.519 28.5106 109.86 27.8118C109.201 27.0931 108.303 26.7338 107.165 26.7338C106.007 26.7338 105.089 27.0931 104.41 27.8118C103.751 28.5106 103.422 29.5188 103.422 30.8364V40H99.2293V17.8397H103.422V25.476C103.961 24.7573 104.68 24.1983 105.578 23.799C106.476 23.3798 107.474 23.1702 108.573 23.1702ZM118.249 31.645C118.249 29.968 118.579 28.4806 119.237 27.183C119.916 25.8853 120.825 24.8871 121.963 24.1883C123.12 23.4896 124.408 23.1402 125.826 23.1402C127.063 23.1402 128.141 23.3898 129.06 23.8889C129.998 24.388 130.747 25.0169 131.306 25.7755V23.4097H135.528V40H131.306V37.5743C130.767 38.353 130.018 39.0018 129.06 39.5209C128.121 40.02 127.033 40.2695 125.796 40.2695C124.398 40.2695 123.12 39.9102 121.963 39.1914C120.825 38.4727 119.916 37.4645 119.237 36.1669C118.579 34.8492 118.249 33.3419 118.249 31.645ZM131.306 31.7049C131.306 30.6867 131.106 29.8182 130.707 29.0995C130.308 28.3609 129.769 27.8019 129.09 27.4225C128.411 27.0233 127.682 26.8236 126.904 26.8236C126.125 26.8236 125.406 27.0133 124.748 27.3926C124.089 27.7719 123.55 28.3309 123.13 29.0696C122.731 29.7883 122.532 30.6468 122.532 31.645C122.532 32.6432 122.731 33.5216 123.13 34.2802C123.55 35.0189 124.089 35.5879 124.748 35.9872C125.426 36.3865 126.145 36.5861 126.904 36.5861C127.682 36.5861 128.411 36.3965 129.09 36.0171C129.769 35.6179 130.308 35.0589 130.707 34.3401C131.106 33.6015 131.306 32.723 131.306 31.7049ZM149.116 23.1702C151.092 23.1702 152.689 23.799 153.907 25.0568C155.125 26.2946 155.734 28.0314 155.734 30.2674V40H151.542V30.8364C151.542 29.5188 151.212 28.5106 150.553 27.8118C149.895 27.0931 148.996 26.7338 147.858 26.7338C146.7 26.7338 145.782 27.0931 145.103 27.8118C144.444 28.5106 144.115 29.5188 144.115 30.8364V40H139.922V23.4097H144.115V25.476C144.674 24.7573 145.383 24.1983 146.241 23.799C147.119 23.3798 148.078 23.1702 149.116 23.1702ZM178.296 23.6194C178.096 22.7809 177.747 22.152 177.248 21.7327C176.769 21.3135 176.07 21.1039 175.152 21.1039C173.774 21.1039 172.756 21.6629 172.097 22.7809C171.458 23.8789 171.129 25.6757 171.109 28.1712C171.588 27.3726 172.287 26.7537 173.205 26.3145C174.124 25.8553 175.122 25.6258 176.2 25.6258C177.497 25.6258 178.645 25.9053 179.644 26.4643C180.642 27.0233 181.42 27.8418 181.979 28.9199C182.538 29.978 182.818 31.2557 182.818 32.753C182.818 34.1704 182.528 35.4382 181.949 36.5562C181.39 37.6542 180.562 38.5127 179.464 39.1316C178.366 39.7504 177.058 40.0599 175.541 40.0599C173.465 40.0599 171.828 39.6007 170.63 38.6824C169.452 37.764 168.623 36.4863 168.144 34.8492C167.685 33.1922 167.455 31.1558 167.455 28.7402C167.455 25.0867 168.084 22.3317 169.342 20.475C170.6 18.5984 172.586 17.66 175.301 17.66C177.398 17.66 179.025 18.229 180.183 19.367C181.341 20.5049 182.009 21.9224 182.189 23.6194H178.296ZM175.242 29.0696C174.183 29.0696 173.295 29.379 172.576 29.9979C171.858 30.6168 171.498 31.5152 171.498 32.6931C171.498 33.871 171.828 34.7993 172.486 35.4781C173.165 36.1569 174.114 36.4963 175.331 36.4963C176.409 36.4963 177.258 36.1669 177.877 35.508C178.516 34.8492 178.835 33.9608 178.835 32.8428C178.835 31.6849 178.526 30.7665 177.907 30.0878C177.308 29.409 176.419 29.0696 175.242 29.0696ZM201.105 21.7926H191.402V26.9135C191.821 26.3944 192.42 25.9751 193.199 25.6557C193.977 25.3163 194.806 25.1466 195.684 25.1466C197.281 25.1466 198.589 25.496 199.607 26.1947C200.625 26.8935 201.364 27.7919 201.823 28.8899C202.282 29.968 202.512 31.1259 202.512 32.3637C202.512 34.6596 201.853 36.5063 200.536 37.9038C199.238 39.3013 197.381 40 194.966 40C192.69 40 190.873 39.431 189.515 38.2931C188.158 37.1551 187.389 35.6678 187.209 33.8311H191.282C191.462 34.6296 191.861 35.2685 192.48 35.7476C193.119 36.2268 193.927 36.4663 194.906 36.4663C196.084 36.4663 196.972 36.097 197.571 35.3583C198.17 34.6196 198.469 33.6414 198.469 32.4236C198.469 31.1858 198.16 30.2475 197.541 29.6086C196.942 28.9498 196.054 28.6204 194.876 28.6204C194.037 28.6204 193.339 28.83 192.78 29.2493C192.221 29.6685 191.821 30.2275 191.582 30.9263H187.569V18.1092H201.105V21.7926ZM211.063 35.5979L207.56 44.0128H204.865L206.811 35.5979H211.063ZM213.905 28.8001C213.905 25.3463 214.524 22.6411 215.762 20.6846C217.02 18.7281 219.096 17.7499 221.991 17.7499C224.886 17.7499 226.952 18.7281 228.19 20.6846C229.448 22.6411 230.077 25.3463 230.077 28.8001C230.077 32.2738 229.448 34.999 228.19 36.9754C226.952 38.9519 224.886 39.9401 221.991 39.9401C219.096 39.9401 217.02 38.9519 215.762 36.9754C214.524 34.999 213.905 32.2738 213.905 28.8001ZM225.944 28.8001C225.944 27.3227 225.844 26.0849 225.644 25.0867C225.465 24.0686 225.085 23.24 224.506 22.6012C223.947 21.9623 223.109 21.6429 221.991 21.6429C220.873 21.6429 220.025 21.9623 219.446 22.6012C218.887 23.24 218.507 24.0686 218.308 25.0867C218.128 26.0849 218.038 27.3227 218.038 28.8001C218.038 30.3174 218.128 31.5951 218.308 32.6332C218.487 33.6514 218.867 34.4799 219.446 35.1187C220.025 35.7376 220.873 36.0471 221.991 36.0471C223.109 36.0471 223.957 35.7376 224.536 35.1187C225.115 34.4799 225.495 33.6514 225.674 32.6332C225.854 31.5951 225.944 30.3174 225.944 28.8001ZM233.565 28.8001C233.565 25.3463 234.184 22.6411 235.421 20.6846C236.679 18.7281 238.755 17.7499 241.65 17.7499C244.545 17.7499 246.611 18.7281 247.849 20.6846C249.107 22.6411 249.736 25.3463 249.736 28.8001C249.736 32.2738 249.107 34.999 247.849 36.9754C246.611 38.9519 244.545 39.9401 241.65 39.9401C238.755 39.9401 236.679 38.9519 235.421 36.9754C234.184 34.999 233.565 32.2738 233.565 28.8001ZM245.603 28.8001C245.603 27.3227 245.503 26.0849 245.304 25.0867C245.124 24.0686 244.745 23.24 244.166 22.6012C243.607 21.9623 242.768 21.6429 241.65 21.6429C240.532 21.6429 239.684 21.9623 239.105 22.6012C238.546 23.24 238.167 24.0686 237.967 25.0867C237.787 26.0849 237.697 27.3227 237.697 28.8001C237.697 30.3174 237.787 31.5951 237.967 32.6332C238.147 33.6514 238.526 34.4799 239.105 35.1187C239.684 35.7376 240.532 36.0471 241.65 36.0471C242.768 36.0471 243.617 35.7376 244.196 35.1187C244.775 34.4799 245.154 33.6514 245.334 32.6332C245.513 31.5951 245.603 30.3174 245.603 28.8001ZM253.224 28.8001C253.224 25.3463 253.843 22.6411 255.081 20.6846C256.339 18.7281 258.415 17.7499 261.31 17.7499C264.204 17.7499 266.271 18.7281 267.508 20.6846C268.766 22.6411 269.395 25.3463 269.395 28.8001C269.395 32.2738 268.766 34.999 267.508 36.9754C266.271 38.9519 264.204 39.9401 261.31 39.9401C258.415 39.9401 256.339 38.9519 255.081 36.9754C253.843 34.999 253.224 32.2738 253.224 28.8001ZM265.263 28.8001C265.263 27.3227 265.163 26.0849 264.963 25.0867C264.783 24.0686 264.404 23.24 263.825 22.6012C263.266 21.9623 262.428 21.6429 261.31 21.6429C260.192 21.6429 259.343 21.9623 258.764 22.6012C258.205 23.24 257.826 24.0686 257.626 25.0867C257.447 26.0849 257.357 27.3227 257.357 28.8001C257.357 30.3174 257.447 31.5951 257.626 32.6332C257.806 33.6514 258.185 34.4799 258.764 35.1187C259.343 35.7376 260.192 36.0471 261.31 36.0471C262.428 36.0471 263.276 35.7376 263.855 35.1187C264.434 34.4799 264.813 33.6514 264.993 32.6332C265.173 31.5951 265.263 30.3174 265.263 28.8001ZM296.46 23.4097V40H292.237V37.9038C291.698 38.6225 290.989 39.1914 290.111 39.6107C289.252 40.01 288.314 40.2096 287.296 40.2096C285.998 40.2096 284.85 39.9401 283.852 39.4011C282.854 38.8421 282.065 38.0335 281.486 36.9754C280.927 35.8974 280.648 34.6196 280.648 33.1423V23.4097H284.84V32.5434C284.84 33.861 285.17 34.8792 285.829 35.5979C286.487 36.2966 287.386 36.646 288.524 36.646C289.682 36.646 290.59 36.2966 291.249 35.5979C291.908 34.8792 292.237 33.861 292.237 32.5434V23.4097H296.46ZM307.244 40.2695C305.887 40.2695 304.669 40.0299 303.591 39.5508C302.513 39.0517 301.654 38.3829 301.015 37.5444C300.397 36.7059 300.057 35.7776 299.997 34.7594H304.22C304.3 35.3982 304.609 35.9273 305.148 36.3465C305.707 36.7658 306.396 36.9754 307.214 36.9754C308.013 36.9754 308.632 36.8157 309.071 36.4963C309.53 36.1769 309.76 35.7676 309.76 35.2685C309.76 34.7294 309.48 34.3302 308.921 34.0706C308.382 33.7911 307.514 33.4917 306.316 33.1722C305.078 32.8728 304.06 32.5633 303.261 32.2439C302.483 31.9245 301.804 31.4353 301.225 30.7765C300.666 30.1177 300.387 29.2293 300.387 28.1113C300.387 27.193 300.646 26.3545 301.165 25.5958C301.704 24.8372 302.463 24.2382 303.441 23.799C304.439 23.3598 305.607 23.1402 306.945 23.1402C308.921 23.1402 310.498 23.6393 311.676 24.6375C312.854 25.6158 313.503 26.9434 313.623 28.6204H309.61C309.55 27.9616 309.271 27.4425 308.771 27.0632C308.292 26.6639 307.644 26.4643 306.825 26.4643C306.066 26.4643 305.477 26.604 305.058 26.8835C304.659 27.163 304.459 27.5523 304.459 28.0514C304.459 28.6104 304.739 29.0396 305.298 29.3391C305.857 29.6186 306.725 29.9081 307.903 30.2075C309.101 30.507 310.089 30.8165 310.868 31.1359C311.646 31.4553 312.315 31.9544 312.874 32.6332C313.453 33.292 313.753 34.1704 313.773 35.2685C313.773 36.2268 313.503 37.0852 312.964 37.8439C312.445 38.6025 311.686 39.2014 310.688 39.6406C309.71 40.0599 308.562 40.2695 307.244 40.2695ZM332.936 31.3455C332.936 31.9444 332.896 32.4835 332.816 32.9626H320.688C320.788 34.1605 321.207 35.0988 321.946 35.7776C322.684 36.4564 323.593 36.7957 324.671 36.7957C326.228 36.7957 327.336 36.1269 327.995 34.7893H332.517C332.037 36.3865 331.119 37.7041 329.762 38.7423C328.404 39.7604 326.737 40.2695 324.76 40.2695C323.163 40.2695 321.726 39.9201 320.448 39.2214C319.19 38.5027 318.202 37.4945 317.484 36.1968C316.785 34.8991 316.435 33.4018 316.435 31.7049C316.435 29.9879 316.785 28.4806 317.484 27.183C318.182 25.8853 319.161 24.8871 320.418 24.1883C321.676 23.4896 323.123 23.1402 324.76 23.1402C326.338 23.1402 327.745 23.4796 328.983 24.1584C330.241 24.8372 331.209 25.8054 331.888 27.0632C332.586 28.301 332.936 29.7284 332.936 31.3455ZM328.594 30.1477C328.574 29.0696 328.184 28.2111 327.426 27.5723C326.667 26.9135 325.739 26.584 324.641 26.584C323.603 26.584 322.724 26.9035 322.005 27.5423C321.307 28.1612 320.877 29.0297 320.718 30.1477H328.594ZM340.488 25.9851C341.027 25.1067 341.726 24.4179 342.584 23.9188C343.463 23.4197 344.461 23.1702 345.579 23.1702V27.5723H344.471C343.153 27.5723 342.155 27.8817 341.476 28.5006C340.817 29.1195 340.488 30.1976 340.488 31.7348V40H336.295V23.4097H340.488V25.9851ZM355.051 40.2695C353.693 40.2695 352.475 40.0299 351.397 39.5508C350.319 39.0517 349.461 38.3829 348.822 37.5444C348.203 36.7059 347.864 35.7776 347.804 34.7594H352.026C352.106 35.3982 352.415 35.9273 352.955 36.3465C353.514 36.7658 354.202 36.9754 355.021 36.9754C355.819 36.9754 356.438 36.8157 356.877 36.4963C357.337 36.1769 357.566 35.7676 357.566 35.2685C357.566 34.7294 357.287 34.3302 356.728 34.0706C356.189 33.7911 355.32 33.4917 354.122 33.1722C352.885 32.8728 351.866 32.5633 351.068 32.2439C350.289 31.9245 349.611 31.4353 349.032 30.7765C348.473 30.1177 348.193 29.2293 348.193 28.1113C348.193 27.193 348.453 26.3545 348.972 25.5958C349.511 24.8372 350.269 24.2382 351.248 23.799C352.246 23.3598 353.414 23.1402 354.751 23.1402C356.728 23.1402 358.305 23.6393 359.483 24.6375C360.661 25.6158 361.31 26.9434 361.429 28.6204H357.417C357.357 27.9616 357.077 27.4425 356.578 27.0632C356.099 26.6639 355.45 26.4643 354.632 26.4643C353.873 26.4643 353.284 26.604 352.865 26.8835C352.465 27.163 352.266 27.5523 352.266 28.0514C352.266 28.6104 352.545 29.0396 353.104 29.3391C353.663 29.6186 354.532 29.9081 355.71 30.2075C356.907 30.507 357.896 30.8165 358.674 31.1359C359.453 31.4553 360.122 31.9544 360.681 32.6332C361.26 33.292 361.559 34.1704 361.579 35.2685C361.579 36.2268 361.31 37.0852 360.771 37.8439C360.251 38.6025 359.493 39.2014 358.495 39.6406C357.516 40.0599 356.368 40.2695 355.051 40.2695ZM0.988229 76.645C0.988229 74.968 1.31764 73.4806 1.97646 72.183C2.65524 70.8853 3.56361 69.8871 4.70157 69.1883C5.8595 68.4896 7.14719 68.1402 8.56465 68.1402C9.80243 68.1402 10.8805 68.3898 11.7989 68.8889C12.7372 69.388 13.4858 70.0169 14.0448 70.7755V68.4097H18.2673V85H14.0448V82.5743C13.5058 83.353 12.7571 84.0018 11.7989 84.5209C10.8605 85.02 9.77249 85.2695 8.53471 85.2695C7.13721 85.2695 5.8595 84.9102 4.70157 84.1914C3.56361 83.4727 2.65524 82.4645 1.97646 81.1669C1.31764 79.8492 0.988229 78.3419 0.988229 76.645ZM14.0448 76.7049C14.0448 75.6867 13.8452 74.8182 13.4459 74.0995C13.0466 73.3609 12.5076 72.8019 11.8288 72.4225C11.15 72.0233 10.4213 71.8236 9.64272 71.8236C8.86412 71.8236 8.1454 72.0133 7.48658 72.3926C6.82776 72.7719 6.28873 73.3309 5.86948 74.0696C5.4702 74.7883 5.27056 75.6468 5.27056 76.645C5.27056 77.6432 5.4702 78.5216 5.86948 79.2802C6.28873 80.0189 6.82776 80.5879 7.48658 80.9872C8.16537 81.3865 8.88408 81.5861 9.64272 81.5861C10.4213 81.5861 11.15 81.3965 11.8288 81.0171C12.5076 80.6179 13.0466 80.0589 13.4459 79.3401C13.8452 78.6015 14.0448 77.723 14.0448 76.7049ZM26.8539 70.9851C27.3929 70.1067 28.0917 69.4179 28.9502 68.9188C29.8286 68.4197 30.8268 68.1702 31.9448 68.1702V72.5723H30.8368C29.5191 72.5723 28.5209 72.8817 27.8421 73.5006C27.1833 74.1195 26.8539 75.1976 26.8539 76.7348V85H22.6614V68.4097H26.8539V70.9851ZM42.4349 85.2695C40.8378 85.2695 39.4003 84.9201 38.1226 84.2214C36.8449 83.5027 35.8367 82.4945 35.098 81.1968C34.3793 79.8991 34.02 78.4018 34.02 76.7049C34.02 75.0079 34.3893 73.5106 35.128 72.2129C35.8866 70.9152 36.9148 69.917 38.2125 69.2183C39.5101 68.4996 40.9575 68.1402 42.5547 68.1402C44.1518 68.1402 45.5992 68.4996 46.8969 69.2183C48.1946 69.917 49.2127 70.9152 49.9514 72.2129C50.7101 73.5106 51.0894 75.0079 51.0894 76.7049C51.0894 78.4018 50.7001 79.8991 49.9215 81.1968C49.1628 82.4945 48.1247 83.5027 46.8071 84.2214C45.5094 84.9201 44.052 85.2695 42.4349 85.2695ZM42.4349 81.6161C43.1935 81.6161 43.9023 81.4364 44.5611 81.077C45.2399 80.6977 45.7789 80.1387 46.1782 79.4C46.5775 78.6614 46.7771 77.763 46.7771 76.7049C46.7771 75.1277 46.3579 73.9199 45.5194 73.0814C44.7008 72.2229 43.6926 71.7937 42.4948 71.7937C41.2969 71.7937 40.2887 72.2229 39.4702 73.0814C38.6716 73.9199 38.2724 75.1277 38.2724 76.7049C38.2724 78.282 38.6617 79.4999 39.4403 80.3583C40.2388 81.1968 41.237 81.6161 42.4349 81.6161ZM70.1261 68.4097V85H65.9037V82.9038C65.3647 83.6225 64.6559 84.1914 63.7775 84.6107C62.919 85.01 61.9807 85.2096 60.9625 85.2096C59.6649 85.2096 58.5169 84.9401 57.5187 84.4011C56.5205 83.8421 55.7319 83.0335 55.153 81.9754C54.594 80.8974 54.3145 79.6196 54.3145 78.1423V68.4097H58.5069V77.5434C58.5069 78.861 58.8364 79.8792 59.4952 80.5979C60.154 81.2966 61.0524 81.646 62.1903 81.646C63.3483 81.646 64.2566 81.2966 64.9155 80.5979C65.5743 79.8792 65.9037 78.861 65.9037 77.5434V68.4097H70.1261ZM83.7557 68.1702C85.7321 68.1702 87.3293 68.799 88.5471 70.0568C89.7649 71.2946 90.3738 73.0314 90.3738 75.2674V85H86.1813V75.8364C86.1813 74.5188 85.8519 73.5106 85.1931 72.8118C84.5343 72.0931 83.6359 71.7338 82.4979 71.7338C81.34 71.7338 80.4217 72.0931 79.7429 72.8118C79.0841 73.5106 78.7546 74.5188 78.7546 75.8364V85H74.5622V68.4097H78.7546V70.476C79.3136 69.7573 80.0224 69.1983 80.8808 68.799C81.7593 68.3798 82.7175 68.1702 83.7557 68.1702ZM93.5821 76.645C93.5821 74.968 93.9115 73.4806 94.5703 72.183C95.2491 70.8853 96.1674 69.8871 97.3253 69.1883C98.4833 68.4896 99.771 68.1402 101.188 68.1402C102.266 68.1402 103.295 68.3798 104.273 68.8589C105.251 69.3181 106.03 69.937 106.609 70.7156V62.8397H110.861V85H106.609V82.5444C106.09 83.3629 105.361 84.0218 104.423 84.5209C103.484 85.02 102.396 85.2695 101.158 85.2695C99.761 85.2695 98.4833 84.9102 97.3253 84.1914C96.1674 83.4727 95.2491 82.4645 94.5703 81.1669C93.9115 79.8492 93.5821 78.3419 93.5821 76.645ZM106.639 76.7049C106.639 75.6867 106.439 74.8182 106.04 74.0995C105.64 73.3609 105.101 72.8019 104.423 72.4225C103.744 72.0233 103.015 71.8236 102.237 71.8236C101.458 71.8236 100.739 72.0133 100.08 72.3926C99.4216 72.7719 98.8826 73.3309 98.4633 74.0696C98.064 74.7883 97.8644 75.6468 97.8644 76.645C97.8644 77.6432 98.064 78.5216 98.4633 79.2802C98.8826 80.0189 99.4216 80.5879 100.08 80.9872C100.759 81.3865 101.478 81.5861 102.237 81.5861C103.015 81.5861 103.744 81.3965 104.423 81.0171C105.101 80.6179 105.64 80.0589 106.04 79.3401C106.439 78.6015 106.639 77.723 106.639 76.7049ZM127.572 71.8536V79.8792C127.572 80.4382 127.701 80.8474 127.961 81.107C128.24 81.3465 128.7 81.4663 129.338 81.4663H131.285V85H128.65C125.116 85 123.349 83.2831 123.349 79.8492V71.8536H121.373V68.4097H123.349V64.3071H127.572V68.4097H131.285V71.8536H127.572ZM143.943 68.1702C145.201 68.1702 146.319 68.4497 147.297 69.0087C148.275 69.5477 149.034 70.3562 149.573 71.4343C150.132 72.4924 150.412 73.7701 150.412 75.2674V85H146.219V75.8364C146.219 74.5188 145.89 73.5106 145.231 72.8118C144.572 72.0931 143.674 71.7338 142.536 71.7338C141.378 71.7338 140.459 72.0931 139.781 72.8118C139.122 73.5106 138.792 74.5188 138.792 75.8364V85H134.6V62.8397H138.792V70.476C139.331 69.7573 140.05 69.1983 140.949 68.799C141.847 68.3798 142.845 68.1702 143.943 68.1702ZM170.12 76.3455C170.12 76.9444 170.08 77.4835 170 77.9626H157.872C157.972 79.1605 158.391 80.0988 159.13 80.7776C159.869 81.4564 160.777 81.7957 161.855 81.7957C163.412 81.7957 164.52 81.1269 165.179 79.7893H169.701C169.222 81.3865 168.303 82.7041 166.946 83.7423C165.588 84.7604 163.921 85.2695 161.945 85.2695C160.348 85.2695 158.91 84.9201 157.633 84.2214C156.375 83.5027 155.387 82.4945 154.668 81.1968C153.969 79.8991 153.62 78.4018 153.62 76.7049C153.62 74.9879 153.969 73.4806 154.668 72.183C155.367 70.8853 156.345 69.8871 157.603 69.1883C158.86 68.4896 160.308 68.1402 161.945 68.1402C163.522 68.1402 164.93 68.4796 166.167 69.1584C167.425 69.8372 168.393 70.8054 169.072 72.0632C169.771 73.301 170.12 74.7284 170.12 76.3455ZM165.778 75.1477C165.758 74.0696 165.369 73.2111 164.61 72.5723C163.851 71.9135 162.923 71.584 161.825 71.584C160.787 71.584 159.909 71.9035 159.19 72.5423C158.491 73.1612 158.062 74.0297 157.902 75.1477H165.778ZM203.914 68.4097L199.062 85H194.541L191.516 73.4108L188.491 85H183.94L179.058 68.4097H183.311L186.245 81.0471L189.42 68.4097H193.852L196.966 81.0171L199.901 68.4097H203.914ZM213.848 85.2695C212.251 85.2695 210.814 84.9201 209.536 84.2214C208.258 83.5027 207.25 82.4945 206.512 81.1968C205.793 79.8991 205.433 78.4018 205.433 76.7049C205.433 75.0079 205.803 73.5106 206.542 72.2129C207.3 70.9152 208.328 69.917 209.626 69.2183C210.924 68.4996 212.371 68.1402 213.968 68.1402C215.565 68.1402 217.013 68.4996 218.31 69.2183C219.608 69.917 220.626 70.9152 221.365 72.2129C222.124 73.5106 222.503 75.0079 222.503 76.7049C222.503 78.4018 222.114 79.8991 221.335 81.1968C220.576 82.4945 219.538 83.5027 218.221 84.2214C216.923 84.9201 215.466 85.2695 213.848 85.2695ZM213.848 81.6161C214.607 81.6161 215.316 81.4364 215.975 81.077C216.653 80.6977 217.192 80.1387 217.592 79.4C217.991 78.6614 218.191 77.763 218.191 76.7049C218.191 75.1277 217.771 73.9199 216.933 73.0814C216.114 72.2229 215.106 71.7937 213.908 71.7937C212.71 71.7937 211.702 72.2229 210.884 73.0814C210.085 73.9199 209.686 75.1277 209.686 76.7049C209.686 78.282 210.075 79.4999 210.854 80.3583C211.652 81.1968 212.651 81.6161 213.848 81.6161ZM230.07 70.9851C230.609 70.1067 231.308 69.4179 232.166 68.9188C233.045 68.4197 234.043 68.1702 235.161 68.1702V72.5723H234.053C232.735 72.5723 231.737 72.8817 231.058 73.5006C230.4 74.1195 230.07 75.1976 230.07 76.7348V85H225.878V68.4097H230.07V70.9851ZM242.477 62.8397V85H238.284V62.8397H242.477ZM245.84 76.645C245.84 74.968 246.17 73.4806 246.829 72.183C247.507 70.8853 248.426 69.8871 249.584 69.1883C250.742 68.4896 252.029 68.1402 253.447 68.1402C254.525 68.1402 255.553 68.3798 256.531 68.8589C257.51 69.3181 258.288 69.937 258.867 70.7156V62.8397H263.119V85H258.867V82.5444C258.348 83.3629 257.619 84.0218 256.681 84.5209C255.743 85.02 254.655 85.2695 253.417 85.2695C252.019 85.2695 250.742 84.9102 249.584 84.1914C248.426 83.4727 247.507 82.4645 246.829 81.1669C246.17 79.8492 245.84 78.3419 245.84 76.645ZM258.897 76.7049C258.897 75.6867 258.697 74.8182 258.298 74.0995C257.899 73.3609 257.36 72.8019 256.681 72.4225C256.002 72.0233 255.274 71.8236 254.495 71.8236C253.716 71.8236 252.998 72.0133 252.339 72.3926C251.68 72.7719 251.141 73.3309 250.722 74.0696C250.322 74.7883 250.123 75.6468 250.123 76.645C250.123 77.6432 250.322 78.5216 250.722 79.2802C251.141 80.0189 251.68 80.5879 252.339 80.9872C253.018 81.3865 253.736 81.5861 254.495 81.5861C255.274 81.5861 256.002 81.3965 256.681 81.0171C257.36 80.6179 257.899 80.0589 258.298 79.3401C258.697 78.6015 258.897 77.723 258.897 76.7049ZM273.871 76.645C273.871 74.968 274.2 73.4806 274.859 72.183C275.538 70.8853 276.446 69.8871 277.584 69.1883C278.742 68.4896 280.03 68.1402 281.447 68.1402C282.685 68.1402 283.763 68.3898 284.681 68.8889C285.62 69.388 286.368 70.0169 286.927 70.7755V68.4097H291.15V85H286.927V82.5743C286.388 83.353 285.64 84.0018 284.681 84.5209C283.743 85.02 282.655 85.2695 281.417 85.2695C280.02 85.2695 278.742 84.9102 277.584 84.1914C276.446 83.4727 275.538 82.4645 274.859 81.1669C274.2 79.8492 273.871 78.3419 273.871 76.645ZM286.927 76.7049C286.927 75.6867 286.728 74.8182 286.328 74.0995C285.929 73.3609 285.39 72.8019 284.711 72.4225C284.032 72.0233 283.304 71.8236 282.525 71.8236C281.747 71.8236 281.028 72.0133 280.369 72.3926C279.71 72.7719 279.171 73.3309 278.752 74.0696C278.353 74.7883 278.153 75.6468 278.153 76.645C278.153 77.6432 278.353 78.5216 278.752 79.2802C279.171 80.0189 279.71 80.5879 280.369 80.9872C281.048 81.3865 281.767 81.5861 282.525 81.5861C283.304 81.5861 284.032 81.3965 284.711 81.0171C285.39 80.6179 285.929 80.0589 286.328 79.3401C286.728 78.6015 286.927 77.723 286.927 76.7049ZM299.736 70.9851C300.275 70.1067 300.974 69.4179 301.833 68.9188C302.711 68.4197 303.709 68.1702 304.827 68.1702V72.5723H303.719C302.402 72.5723 301.403 72.8817 300.725 73.5006C300.066 74.1195 299.736 75.1976 299.736 76.7348V85H295.544V68.4097H299.736V70.9851ZM323.373 76.3455C323.373 76.9444 323.333 77.4835 323.253 77.9626H311.125C311.225 79.1605 311.644 80.0988 312.383 80.7776C313.121 81.4564 314.03 81.7957 315.108 81.7957C316.665 81.7957 317.773 81.1269 318.432 79.7893H322.954C322.475 81.3865 321.556 82.7041 320.199 83.7423C318.841 84.7604 317.174 85.2695 315.198 85.2695C313.6 85.2695 312.163 84.9201 310.885 84.2214C309.628 83.5027 308.639 82.4945 307.921 81.1968C307.222 79.8991 306.872 78.4018 306.872 76.7049C306.872 74.9879 307.222 73.4806 307.921 72.183C308.619 70.8853 309.598 69.8871 310.855 69.1883C312.113 68.4896 313.56 68.1402 315.198 68.1402C316.775 68.1402 318.182 68.4796 319.42 69.1584C320.678 69.8372 321.646 70.8054 322.325 72.0632C323.024 73.301 323.373 74.7284 323.373 76.3455ZM319.031 75.1477C319.011 74.0696 318.621 73.2111 317.863 72.5723C317.104 71.9135 316.176 71.584 315.078 71.584C314.04 71.584 313.161 71.9035 312.442 72.5423C311.744 73.1612 311.315 74.0297 311.155 75.1477H319.031ZM333.09 76.645C333.09 74.968 333.419 73.4806 334.078 72.183C334.757 70.8853 335.665 69.8871 336.803 69.1883C337.961 68.4896 339.249 68.1402 340.666 68.1402C341.904 68.1402 342.982 68.3898 343.9 68.8889C344.838 69.388 345.587 70.0169 346.146 70.7755V68.4097H350.369V85H346.146V82.5743C345.607 83.353 344.858 84.0018 343.9 84.5209C342.962 85.02 341.874 85.2695 340.636 85.2695C339.239 85.2695 337.961 84.9102 336.803 84.1914C335.665 83.4727 334.757 82.4645 334.078 81.1669C333.419 79.8492 333.09 78.3419 333.09 76.645ZM346.146 76.7049C346.146 75.6867 345.947 74.8182 345.547 74.0995C345.148 73.3609 344.609 72.8019 343.93 72.4225C343.251 72.0233 342.523 71.8236 341.744 71.8236C340.965 71.8236 340.247 72.0133 339.588 72.3926C338.929 72.7719 338.39 73.3309 337.971 74.0696C337.572 74.7883 337.372 75.6468 337.372 76.645C337.372 77.6432 337.572 78.5216 337.971 79.2802C338.39 80.0189 338.929 80.5879 339.588 80.9872C340.267 81.3865 340.985 81.5861 341.744 81.5861C342.523 81.5861 343.251 81.3965 343.93 81.0171C344.609 80.6179 345.148 80.0589 345.547 79.3401C345.947 78.6015 346.146 77.723 346.146 76.7049ZM358.955 62.8397V85H354.763V62.8397H358.955ZM367.589 70.9851C368.128 70.1067 368.827 69.4179 369.686 68.9188C370.564 68.4197 371.562 68.1702 372.68 68.1702V72.5723H371.572C370.255 72.5723 369.256 72.8817 368.578 73.5006C367.919 74.1195 367.589 75.1976 367.589 76.7348V85H363.397V68.4097H367.589V70.9851ZM391.226 76.3455C391.226 76.9444 391.186 77.4835 391.106 77.9626H378.978C379.078 79.1605 379.497 80.0988 380.236 80.7776C380.974 81.4564 381.883 81.7957 382.961 81.7957C384.518 81.7957 385.626 81.1269 386.285 79.7893H390.807C390.328 81.3865 389.409 82.7041 388.052 83.7423C386.694 84.7604 385.027 85.2695 383.051 85.2695C381.453 85.2695 380.016 84.9201 378.738 84.2214C377.481 83.5027 376.492 82.4945 375.774 81.1968C375.075 79.8991 374.726 78.4018 374.726 76.7049C374.726 74.9879 375.075 73.4806 375.774 72.183C376.472 70.8853 377.451 69.8871 378.708 69.1883C379.966 68.4896 381.414 68.1402 383.051 68.1402C384.628 68.1402 386.035 68.4796 387.273 69.1584C388.531 69.8372 389.499 70.8054 390.178 72.0632C390.877 73.301 391.226 74.7284 391.226 76.3455ZM386.884 75.1477C386.864 74.0696 386.474 73.2111 385.716 72.5723C384.957 71.9135 384.029 71.584 382.931 71.584C381.893 71.584 381.014 71.9035 380.296 72.5423C379.597 73.1612 379.168 74.0297 379.008 75.1477H386.884ZM393.507 76.645C393.507 74.968 393.837 73.4806 394.496 72.183C395.174 70.8853 396.083 69.8871 397.221 69.1883C398.379 68.4896 399.666 68.1402 401.084 68.1402C402.322 68.1402 403.4 68.3898 404.318 68.8889C405.256 69.388 406.005 70.0169 406.564 70.7755V68.4097H410.786V85H406.564V82.5743C406.025 83.353 405.276 84.0018 404.318 84.5209C403.38 85.02 402.292 85.2695 401.054 85.2695C399.656 85.2695 398.379 84.9102 397.221 84.1914C396.083 83.4727 395.174 82.4645 394.496 81.1669C393.837 79.8492 393.507 78.3419 393.507 76.645ZM406.564 76.7049C406.564 75.6867 406.364 74.8182 405.965 74.0995C405.566 73.3609 405.027 72.8019 404.348 72.4225C403.669 72.0233 402.941 71.8236 402.162 71.8236C401.383 71.8236 400.665 72.0133 400.006 72.3926C399.347 72.7719 398.808 73.3309 398.389 74.0696C397.989 74.7883 397.79 75.6468 397.79 76.645C397.79 77.6432 397.989 78.5216 398.389 79.2802C398.808 80.0189 399.347 80.5879 400.006 80.9872C400.685 81.3865 401.403 81.5861 402.162 81.5861C402.941 81.5861 403.669 81.3965 404.348 81.0171C405.027 80.6179 405.566 80.0589 405.965 79.3401C406.364 78.6015 406.564 77.723 406.564 76.7049ZM414.103 76.645C414.103 74.968 414.432 73.4806 415.091 72.183C415.77 70.8853 416.688 69.8871 417.846 69.1883C419.004 68.4896 420.291 68.1402 421.709 68.1402C422.787 68.1402 423.815 68.3798 424.793 68.8589C425.772 69.3181 426.55 69.937 427.129 70.7156V62.8397H431.382V85H427.129V82.5444C426.61 83.3629 425.881 84.0218 424.943 84.5209C424.005 85.02 422.917 85.2695 421.679 85.2695C420.282 85.2695 419.004 84.9102 417.846 84.1914C416.688 83.4727 415.77 82.4645 415.091 81.1669C414.432 79.8492 414.103 78.3419 414.103 76.645ZM427.159 76.7049C427.159 75.6867 426.96 74.8182 426.56 74.0995C426.161 73.3609 425.622 72.8019 424.943 72.4225C424.264 72.0233 423.536 71.8236 422.757 71.8236C421.978 71.8236 421.26 72.0133 420.601 72.3926C419.942 72.7719 419.403 73.3309 418.984 74.0696C418.585 74.7883 418.385 75.6468 418.385 76.645C418.385 77.6432 418.585 78.5216 418.984 79.2802C419.403 80.0189 419.942 80.5879 420.601 80.9872C421.28 81.3865 421.998 81.5861 422.757 81.5861C423.536 81.5861 424.264 81.3965 424.943 81.0171C425.622 80.6179 426.161 80.0589 426.56 79.3401C426.96 78.6015 427.159 77.723 427.159 76.7049ZM451.647 68.4097L441.376 92.8459H436.914L440.507 84.5808L433.859 68.4097H438.561L442.843 79.999L447.185 68.4097H451.647ZM17.7282 113.41V130H13.5058V127.904C12.9668 128.622 12.258 129.191 11.3796 129.611C10.5211 130.01 9.58283 130.21 8.56465 130.21C7.26698 130.21 6.11903 129.94 5.12082 129.401C4.12261 128.842 3.33403 128.034 2.75506 126.975C2.19606 125.897 1.91657 124.62 1.91657 123.142V113.41H6.10905V122.543C6.10905 123.861 6.43846 124.879 7.09728 125.598C7.7561 126.297 8.65449 126.646 9.79245 126.646C10.9504 126.646 11.8587 126.297 12.5176 125.598C13.1764 124.879 13.5058 123.861 13.5058 122.543V113.41H17.7282ZM28.5129 130.27C27.1553 130.27 25.9375 130.03 24.8594 129.551C23.7814 129.052 22.9229 128.383 22.284 127.544C21.6652 126.706 21.3258 125.778 21.2659 124.759H25.4883C25.5682 125.398 25.8776 125.927 26.4166 126.347C26.9756 126.766 27.6644 126.975 28.4829 126.975C29.2815 126.975 29.9004 126.816 30.3396 126.496C30.7988 126.177 31.0284 125.768 31.0284 125.268C31.0284 124.729 30.7489 124.33 30.1899 124.071C29.6508 123.791 28.7824 123.492 27.5846 123.172C26.3468 122.873 25.3286 122.563 24.53 122.244C23.7514 121.924 23.0726 121.435 22.4937 120.777C21.9347 120.118 21.6552 119.229 21.6552 118.111C21.6552 117.193 21.9147 116.354 22.4338 115.596C22.9728 114.837 23.7315 114.238 24.7097 113.799C25.7079 113.36 26.8758 113.14 28.2134 113.14C30.1899 113.14 31.7671 113.639 32.9449 114.638C34.1228 115.616 34.7717 116.943 34.8915 118.62H30.8786C30.8188 117.962 30.5393 117.443 30.0402 117.063C29.561 116.664 28.9122 116.464 28.0936 116.464C27.335 116.464 26.7461 116.604 26.3268 116.884C25.9275 117.163 25.7279 117.552 25.7279 118.051C25.7279 118.61 26.0074 119.04 26.5664 119.339C27.1254 119.619 27.9938 119.908 29.1717 120.208C30.3696 120.507 31.3578 120.816 32.1364 121.136C32.915 121.455 33.5838 121.954 34.1428 122.633C34.7218 123.292 35.0212 124.17 35.0412 125.268C35.0412 126.227 34.7717 127.085 34.2326 127.844C33.7136 128.603 32.9549 129.201 31.9567 129.641C30.9785 130.06 29.8305 130.27 28.5129 130.27ZM40.9083 111.433C40.1697 111.433 39.5508 111.204 39.0517 110.745C38.5725 110.265 38.3329 109.676 38.3329 108.978C38.3329 108.279 38.5725 107.7 39.0517 107.241C39.5508 106.762 40.1697 106.522 40.9083 106.522C41.647 106.522 42.2559 106.762 42.7351 107.241C43.2342 107.7 43.4837 108.279 43.4837 108.978C43.4837 109.676 43.2342 110.265 42.7351 110.745C42.2559 111.204 41.647 111.433 40.9083 111.433ZM42.9746 113.41V130H38.7821V113.41H42.9746ZM56.6098 113.17C58.5863 113.17 60.1834 113.799 61.4012 115.057C62.619 116.295 63.2279 118.031 63.2279 120.267V130H59.0355V120.836C59.0355 119.519 58.706 118.511 58.0472 117.812C57.3884 117.093 56.49 116.734 55.3521 116.734C54.1941 116.734 53.2758 117.093 52.597 117.812C51.9382 118.511 51.6088 119.519 51.6088 120.836V130H47.4163V113.41H51.6088V115.476C52.1678 114.757 52.8765 114.198 53.735 113.799C54.6134 113.38 55.5717 113.17 56.6098 113.17ZM74.0126 113.14C75.2504 113.14 76.3384 113.39 77.2767 113.889C78.2151 114.368 78.9537 114.997 79.4928 115.775V113.41H83.7152V130.12C83.7152 131.657 83.4058 133.025 82.7869 134.222C82.168 135.44 81.2396 136.399 80.0019 137.097C78.7641 137.816 77.2668 138.175 75.5099 138.175C73.1541 138.175 71.2176 137.626 69.7003 136.528C68.203 135.43 67.3545 133.933 67.1549 132.036H71.3174C71.537 132.795 72.0062 133.394 72.7249 133.833C73.4636 134.292 74.352 134.522 75.3901 134.522C76.6079 134.522 77.5962 134.153 78.3548 133.414C79.1135 132.695 79.4928 131.597 79.4928 130.12V127.544C78.9537 128.323 78.2051 128.972 77.2468 129.491C76.3085 130.01 75.2304 130.27 74.0126 130.27C72.6151 130.27 71.3374 129.91 70.1795 129.191C69.0215 128.473 68.1032 127.465 67.4244 126.167C66.7656 124.849 66.4362 123.342 66.4362 121.645C66.4362 119.968 66.7656 118.481 67.4244 117.183C68.1032 115.885 69.0116 114.887 70.1495 114.188C71.3074 113.49 72.5951 113.14 74.0126 113.14ZM79.4928 121.705C79.4928 120.687 79.2931 119.818 78.8938 119.1C78.4946 118.361 77.9555 117.802 77.2767 117.423C76.598 117.023 75.8693 116.824 75.0907 116.824C74.3121 116.824 73.5933 117.013 72.9345 117.393C72.2757 117.772 71.7367 118.331 71.3174 119.07C70.9181 119.788 70.7185 120.647 70.7185 121.645C70.7185 122.643 70.9181 123.522 71.3174 124.28C71.7367 125.019 72.2757 125.588 72.9345 125.987C73.6133 126.386 74.332 126.586 75.0907 126.586C75.8693 126.586 76.598 126.396 77.2767 126.017C77.9555 125.618 78.4946 125.059 78.8938 124.34C79.2931 123.601 79.4928 122.723 79.4928 121.705ZM105.247 130.21C103.291 130.21 101.494 129.75 99.8567 128.832C98.2197 127.914 96.922 126.646 95.9637 125.029C95.0054 123.392 94.5263 121.545 94.5263 119.489C94.5263 117.452 95.0054 115.626 95.9637 114.009C96.922 112.372 98.2197 111.094 99.8567 110.176C101.494 109.257 103.291 108.798 105.247 108.798C107.224 108.798 109.02 109.257 110.637 110.176C112.274 111.094 113.562 112.372 114.501 114.009C115.459 115.626 115.938 117.452 115.938 119.489C115.938 121.545 115.459 123.392 114.501 125.029C113.562 126.646 112.274 127.914 110.637 128.832C109 129.75 107.204 130.21 105.247 130.21ZM105.247 126.466C106.505 126.466 107.613 126.187 108.571 125.628C109.529 125.049 110.278 124.23 110.817 123.172C111.356 122.114 111.626 120.886 111.626 119.489C111.626 118.091 111.356 116.874 110.817 115.835C110.278 114.777 109.529 113.969 108.571 113.41C107.613 112.851 106.505 112.571 105.247 112.571C103.989 112.571 102.871 112.851 101.893 113.41C100.935 113.969 100.186 114.777 99.6471 115.835C99.1081 116.874 98.8386 118.091 98.8386 119.489C98.8386 120.886 99.1081 122.114 99.6471 123.172C100.186 124.23 100.935 125.049 101.893 125.628C102.871 126.187 103.989 126.466 105.247 126.466ZM123.549 126.676H130.437V130H119.356V109.097H123.549V126.676ZM156.19 109.097V130H151.998V116.404L146.398 130H143.223L137.593 116.404V130H133.401V109.097H138.162L144.81 124.64L151.459 109.097H156.19ZM170.337 130.21C168.381 130.21 166.584 129.75 164.947 128.832C163.31 127.914 162.012 126.646 161.054 125.029C160.095 123.392 159.616 121.545 159.616 119.489C159.616 117.452 160.095 115.626 161.054 114.009C162.012 112.372 163.31 111.094 164.947 110.176C166.584 109.257 168.381 108.798 170.337 108.798C172.314 108.798 174.11 109.257 175.727 110.176C177.364 111.094 178.652 112.372 179.591 114.009C180.549 115.626 181.028 117.452 181.028 119.489C181.028 121.545 180.549 123.392 179.591 125.029C178.652 126.646 177.364 127.914 175.727 128.832C174.09 129.75 172.294 130.21 170.337 130.21ZM170.337 126.466C171.595 126.466 172.703 126.187 173.661 125.628C174.619 125.049 175.368 124.23 175.907 123.172C176.446 122.114 176.716 120.886 176.716 119.489C176.716 118.091 176.446 116.874 175.907 115.835C175.368 114.777 174.619 113.969 173.661 113.41C172.703 112.851 171.595 112.571 170.337 112.571C169.079 112.571 167.961 112.851 166.983 113.41C166.025 113.969 165.276 114.777 164.737 115.835C164.198 116.874 163.929 118.091 163.929 119.489C163.929 120.886 164.198 122.114 164.737 123.172C165.276 124.23 166.025 125.049 166.983 125.628C167.961 126.187 169.079 126.466 170.337 126.466ZM190.804 121.645C190.804 119.968 191.133 118.481 191.792 117.183C192.471 115.885 193.379 114.887 194.517 114.188C195.675 113.49 196.962 113.14 198.38 113.14C199.618 113.14 200.696 113.39 201.614 113.889C202.552 114.388 203.301 115.017 203.86 115.775V113.41H208.083V130H203.86V127.574C203.321 128.353 202.572 129.002 201.614 129.521C200.676 130.02 199.588 130.27 198.35 130.27C196.953 130.27 195.675 129.91 194.517 129.191C193.379 128.473 192.471 127.465 191.792 126.167C191.133 124.849 190.804 123.342 190.804 121.645ZM203.86 121.705C203.86 120.687 203.66 119.818 203.261 119.1C202.862 118.361 202.323 117.802 201.644 117.423C200.965 117.023 200.237 116.824 199.458 116.824C198.679 116.824 197.961 117.013 197.302 117.393C196.643 117.772 196.104 118.331 195.685 119.07C195.286 119.788 195.086 120.647 195.086 121.645C195.086 122.643 195.286 123.522 195.685 124.28C196.104 125.019 196.643 125.588 197.302 125.987C197.981 126.386 198.699 126.586 199.458 126.586C200.237 126.586 200.965 126.396 201.644 126.017C202.323 125.618 202.862 125.059 203.261 124.34C203.66 123.601 203.86 122.723 203.86 121.705ZM211.399 121.705C211.399 119.988 211.748 118.491 212.447 117.213C213.146 115.915 214.114 114.917 215.352 114.218C216.589 113.5 218.007 113.14 219.604 113.14C221.66 113.14 223.357 113.659 224.695 114.697C226.052 115.716 226.961 117.153 227.42 119.01H222.898C222.658 118.291 222.249 117.732 221.67 117.333C221.111 116.913 220.413 116.704 219.574 116.704C218.376 116.704 217.428 117.143 216.729 118.021C216.03 118.88 215.681 120.108 215.681 121.705C215.681 123.282 216.03 124.51 216.729 125.388C217.428 126.247 218.376 126.676 219.574 126.676C221.271 126.676 222.379 125.917 222.898 124.4H227.42C226.961 126.197 226.052 127.624 224.695 128.682C223.337 129.74 221.64 130.27 219.604 130.27C218.007 130.27 216.589 129.92 215.352 129.221C214.114 128.503 213.146 127.504 212.447 126.227C211.748 124.929 211.399 123.422 211.399 121.705ZM235.672 116.854V124.879C235.672 125.438 235.802 125.847 236.061 126.107C236.341 126.347 236.8 126.466 237.439 126.466H239.385V130H236.75C233.216 130 231.45 128.283 231.45 124.849V116.854H229.473V113.41H231.45V109.307H235.672V113.41H239.385V116.854H235.672ZM244.826 111.433C244.088 111.433 243.469 111.204 242.97 110.745C242.491 110.265 242.251 109.676 242.251 108.978C242.251 108.279 242.491 107.7 242.97 107.241C243.469 106.762 244.088 106.522 244.826 106.522C245.565 106.522 246.174 106.762 246.653 107.241C247.152 107.7 247.402 108.279 247.402 108.978C247.402 109.676 247.152 110.265 246.653 110.745C246.174 111.204 245.565 111.433 244.826 111.433ZM246.893 113.41V130H242.7V113.41H246.893ZM258.252 126.137L262.445 113.41H266.907L260.768 130H255.677L249.568 113.41H254.06L258.252 126.137ZM284.983 121.346C284.983 121.944 284.943 122.483 284.863 122.963H272.735C272.835 124.16 273.254 125.099 273.993 125.778C274.731 126.456 275.64 126.796 276.718 126.796C278.275 126.796 279.383 126.127 280.042 124.789H284.564C284.085 126.386 283.166 127.704 281.809 128.742C280.451 129.76 278.784 130.27 276.808 130.27C275.211 130.27 273.773 129.92 272.495 129.221C271.238 128.503 270.25 127.494 269.531 126.197C268.832 124.899 268.483 123.402 268.483 121.705C268.483 119.988 268.832 118.481 269.531 117.183C270.23 115.885 271.208 114.887 272.466 114.188C273.723 113.49 275.171 113.14 276.808 113.14C278.385 113.14 279.792 113.48 281.03 114.158C282.288 114.837 283.256 115.805 283.935 117.063C284.634 118.301 284.983 119.728 284.983 121.346ZM280.641 120.148C280.621 119.07 280.232 118.211 279.473 117.572C278.714 116.913 277.786 116.584 276.688 116.584C275.65 116.584 274.771 116.903 274.053 117.542C273.354 118.161 272.925 119.03 272.765 120.148H280.641ZM292.535 107.84V130H288.343V107.84H292.535ZM312.848 113.41L302.577 137.846H298.115L301.708 129.581L295.06 113.41H299.762L304.044 124.999L308.386 113.41H312.848Z" fill="black"/>
<path d="M597.232 29.5148C596.873 28.0055 596.244 26.8736 595.346 26.1189C594.483 25.3643 593.226 24.987 591.573 24.987C589.093 24.987 587.26 25.9932 586.074 28.0055C584.924 29.982 584.331 33.2162 584.296 37.7082C585.158 36.2707 586.416 35.1567 588.069 34.3661C589.722 33.5396 591.519 33.1264 593.459 33.1264C595.795 33.1264 597.861 33.6295 599.658 34.6357C601.455 35.6419 602.856 37.1152 603.862 39.0557C604.869 40.9603 605.372 43.2602 605.372 45.9554C605.372 48.5068 604.851 50.7887 603.809 52.8011C602.802 54.7776 601.311 56.3228 599.335 57.4368C597.358 58.5508 595.004 59.1078 592.273 59.1078C588.536 59.1078 585.589 58.2813 583.433 56.6283C581.313 54.9752 579.822 52.6753 578.959 49.7286C578.133 46.746 577.719 43.0805 577.719 38.7323C577.719 32.1561 578.851 27.197 581.115 23.855C583.379 20.477 586.955 18.7881 591.842 18.7881C595.615 18.7881 598.544 19.8122 600.628 21.8606C602.713 23.9089 603.916 26.4603 604.24 29.5148H597.232ZM591.734 39.3253C589.83 39.3253 588.23 39.8823 586.937 40.9963C585.643 42.1103 584.996 43.7274 584.996 45.8476C584.996 47.9678 585.589 49.6388 586.775 50.8606C587.997 52.0824 589.704 52.6933 591.896 52.6933C593.836 52.6933 595.364 52.1004 596.478 50.9145C597.628 49.7286 598.203 48.1295 598.203 46.1171C598.203 44.0328 597.646 42.3798 596.532 41.158C595.454 39.9362 593.854 39.3253 591.734 39.3253ZM638.288 26.2267H620.823V35.4442C621.578 34.5099 622.656 33.7552 624.057 33.1803C625.459 32.5694 626.95 32.2639 628.531 32.2639C631.406 32.2639 633.76 32.8928 635.593 34.1505C637.425 35.4083 638.755 37.0254 639.581 39.0018C640.408 40.9424 640.821 43.0266 640.821 45.2546C640.821 49.3872 639.635 52.7113 637.264 55.2268C634.928 57.7423 631.586 59 627.238 59C623.141 59 619.871 57.9758 617.427 55.9275C614.984 53.8792 613.6 51.202 613.277 47.8959H620.607C620.931 49.3333 621.65 50.4833 622.764 51.3457C623.914 52.2082 625.369 52.6394 627.13 52.6394C629.25 52.6394 630.849 51.9746 631.927 50.645C633.005 49.3154 633.544 47.5545 633.544 45.3624C633.544 43.1344 632.987 41.4455 631.873 40.2955C630.795 39.1096 629.196 38.5167 627.076 38.5167C625.567 38.5167 624.309 38.894 623.303 39.6487C622.296 40.4033 621.578 41.4095 621.147 42.6673H613.923V19.5966H638.288V26.2267ZM669.204 59L655.513 42.236V59H647.966V21.3754H655.513V38.2472L669.204 21.3754H678.314L662.79 40.026L678.745 59H669.204Z" fill="black"/>
<path d="M816.533 51.3457V45.4163L834.16 20.1896H842.946V44.7695H847.69V51.3457H842.946V59H835.4V51.3457H816.533ZM835.885 28.2751L824.835 44.7695H835.885V28.2751ZM857.238 59.3773C855.872 59.3773 854.74 58.9641 853.842 58.1375C852.979 57.2751 852.548 56.215 852.548 54.9572C852.548 53.6995 852.979 52.6574 853.842 51.8308C854.74 50.9684 855.872 50.5372 857.238 50.5372C858.567 50.5372 859.663 50.9684 860.526 51.8308C861.388 52.6574 861.819 53.6995 861.819 54.9572C861.819 56.215 861.388 57.2751 860.526 58.1375C859.663 58.9641 858.567 59.3773 857.238 59.3773ZM874.151 38.1933C870.557 36.3246 868.76 33.4318 868.76 29.5148C868.76 27.5743 869.246 25.8135 870.216 24.2323C871.222 22.6152 872.713 21.3395 874.69 20.4052C876.702 19.4349 879.146 18.9498 882.021 18.9498C884.895 18.9498 887.321 19.4349 889.298 20.4052C891.31 21.3395 892.801 22.6152 893.772 24.2323C894.778 25.8135 895.281 27.5743 895.281 29.5148C895.281 31.4913 894.796 33.2342 893.825 34.7435C892.855 36.2168 891.562 37.3668 889.944 38.1933C891.921 39.0557 893.466 40.3135 894.58 41.9665C895.694 43.6196 896.251 45.5781 896.251 47.842C896.251 50.2856 895.622 52.4238 894.364 54.2565C893.143 56.0533 891.454 57.4368 889.298 58.4071C887.141 59.3773 884.716 59.8625 882.021 59.8625C879.325 59.8625 876.9 59.3773 874.744 58.4071C872.623 57.4368 870.934 56.0533 869.677 54.2565C868.455 52.4238 867.844 50.2856 867.844 47.842C867.844 45.5781 868.401 43.6196 869.515 41.9665C870.629 40.2776 872.174 39.0198 874.151 38.1933ZM887.95 30.5929C887.95 28.8321 887.411 27.4665 886.333 26.4962C885.291 25.526 883.853 25.0409 882.021 25.0409C880.224 25.0409 878.786 25.526 877.708 26.4962C876.666 27.4665 876.145 28.85 876.145 30.6468C876.145 32.2639 876.684 33.5576 877.762 34.5279C878.876 35.4981 880.296 35.9832 882.021 35.9832C883.746 35.9832 885.165 35.4981 886.279 34.5279C887.393 33.5217 887.95 32.21 887.95 30.5929ZM882.021 41.4814C879.972 41.4814 878.301 42.0025 877.008 43.0446C875.75 44.0867 875.121 45.5781 875.121 47.5186C875.121 49.3154 875.732 50.7887 876.954 51.9387C878.211 53.0527 879.9 53.6097 882.021 53.6097C884.141 53.6097 885.812 53.0347 887.034 51.8848C888.255 50.7348 888.866 49.2794 888.866 47.5186C888.866 45.614 888.237 44.1406 886.98 43.0985C885.722 42.0204 884.069 41.4814 882.021 41.4814ZM923.126 29.5148C922.767 28.0055 922.138 26.8736 921.24 26.1189C920.377 25.3643 919.119 24.987 917.466 24.987C914.987 24.987 913.154 25.9932 911.968 28.0055C910.818 29.982 910.225 33.2162 910.189 37.7082C911.052 36.2707 912.31 35.1567 913.963 34.3661C915.616 33.5396 917.412 33.1264 919.353 33.1264C921.689 33.1264 923.755 33.6295 925.552 34.6357C927.349 35.6419 928.75 37.1152 929.756 39.0557C930.762 40.9603 931.266 43.2602 931.266 45.9554C931.266 48.5068 930.745 50.7887 929.702 52.8011C928.696 54.7776 927.205 56.3228 925.228 57.4368C923.252 58.5508 920.898 59.1078 918.167 59.1078C914.43 59.1078 911.483 58.2813 909.327 56.6283C907.207 54.9752 905.715 52.6753 904.853 49.7286C904.026 46.746 903.613 43.0805 903.613 38.7323C903.613 32.1561 904.745 27.197 907.009 23.855C909.273 20.477 912.849 18.7881 917.736 18.7881C921.509 18.7881 924.438 19.8122 926.522 21.8606C928.606 23.9089 929.81 26.4603 930.134 29.5148H923.126ZM917.628 39.3253C915.723 39.3253 914.124 39.8823 912.831 40.9963C911.537 42.1103 910.89 43.7274 910.89 45.8476C910.89 47.9678 911.483 49.6388 912.669 50.8606C913.891 52.0824 915.598 52.6933 917.79 52.6933C919.73 52.6933 921.258 52.1004 922.372 50.9145C923.521 49.7286 924.096 48.1295 924.096 46.1171C924.096 44.0328 923.539 42.3798 922.425 41.158C921.347 39.9362 919.748 39.3253 917.628 39.3253Z" fill="black"/>
<path d="M581.27 88.0545H577.203L576.531 90H574.38L578.052 79.7754H580.436L584.108 90H581.943L581.27 88.0545ZM580.714 86.4163L579.237 82.145L577.759 86.4163H580.714ZM585.1 85.9482C585.1 85.1095 585.27 84.3782 585.612 83.754C585.953 83.1202 586.426 82.6326 587.031 82.2913C587.635 81.9402 588.327 81.7647 589.108 81.7647C590.112 81.7647 590.941 82.0182 591.594 82.5253C592.257 83.0227 592.701 83.7248 592.925 84.6317H590.717C590.6 84.2806 590.4 84.0076 590.117 83.8126C589.844 83.6078 589.503 83.5054 589.093 83.5054C588.508 83.5054 588.045 83.7199 587.703 84.149C587.362 84.5683 587.191 85.168 587.191 85.9482C587.191 86.7186 587.362 87.3183 587.703 87.7474C588.045 88.1667 588.508 88.3763 589.093 88.3763C589.922 88.3763 590.463 88.0058 590.717 87.2647H592.925C592.701 88.1423 592.257 88.8395 591.594 89.3564C590.931 89.8732 590.102 90.1316 589.108 90.1316C588.327 90.1316 587.635 89.961 587.031 89.6197C586.426 89.2686 585.953 88.781 585.612 88.1569C585.27 87.5231 585.1 86.7868 585.1 85.9482ZM596.956 83.5785V87.4987C596.956 87.7717 597.02 87.9716 597.146 88.0984C597.283 88.2154 597.507 88.274 597.819 88.274H598.77V90H597.483C595.757 90 594.894 89.1614 594.894 87.4841V83.5785H593.928V81.8963H594.894V79.8924H596.956V81.8963H598.77V83.5785H596.956ZM601.428 80.9309C601.067 80.9309 600.765 80.8188 600.521 80.5945C600.287 80.3605 600.17 80.0728 600.17 79.7315C600.17 79.3902 600.287 79.1074 600.521 78.8831C600.765 78.649 601.067 78.532 601.428 78.532C601.789 78.532 602.086 78.649 602.32 78.8831C602.564 79.1074 602.686 79.3902 602.686 79.7315C602.686 80.0728 602.564 80.3605 602.32 80.5945C602.086 80.8188 601.789 80.9309 601.428 80.9309ZM602.437 81.8963V90H600.389V81.8963H602.437ZM607.986 88.113L610.033 81.8963H612.213L609.214 90H606.728L603.744 81.8963H605.938L607.986 88.113ZM621.043 85.7726C621.043 86.0652 621.023 86.3285 620.984 86.5625H615.06C615.109 87.1476 615.313 87.606 615.674 87.9375C616.035 88.2691 616.479 88.4349 617.005 88.4349C617.766 88.4349 618.307 88.1082 618.629 87.4548H620.838C620.604 88.2349 620.155 88.8786 619.492 89.3856C618.829 89.883 618.015 90.1316 617.049 90.1316C616.269 90.1316 615.567 89.961 614.943 89.6197C614.329 89.2686 613.846 88.7762 613.495 88.1423C613.153 87.5084 612.983 86.7771 612.983 85.9482C612.983 85.1095 613.153 84.3733 613.495 83.7394C613.836 83.1056 614.314 82.618 614.928 82.2767C615.543 81.9354 616.25 81.7647 617.049 81.7647C617.82 81.7647 618.507 81.9305 619.112 82.262C619.726 82.5936 620.199 83.0665 620.531 83.6809C620.872 84.2855 621.043 84.9828 621.043 85.7726ZM618.922 85.1875C618.912 84.6609 618.722 84.2416 618.351 83.9296C617.981 83.6078 617.527 83.4469 616.991 83.4469C616.484 83.4469 616.055 83.6029 615.704 83.9149C615.362 84.2172 615.153 84.6414 615.075 85.1875H618.922ZM625.789 85.9189C625.789 85.0998 625.95 84.3733 626.271 83.7394C626.603 83.1056 627.052 82.618 627.617 82.2767C628.183 81.9354 628.812 81.7647 629.504 81.7647C630.031 81.7647 630.533 81.8817 631.011 82.1158C631.489 82.34 631.869 82.6423 632.152 83.0227V79.1756H634.229V90H632.152V88.8005C631.898 89.2004 631.542 89.5222 631.084 89.766C630.626 90.0098 630.094 90.1316 629.49 90.1316C628.807 90.1316 628.183 89.9561 627.617 89.6051C627.052 89.254 626.603 88.7615 626.271 88.1277C625.95 87.4841 625.789 86.7478 625.789 85.9189ZM632.166 85.9482C632.166 85.4508 632.069 85.0266 631.874 84.6756C631.679 84.3148 631.416 84.0417 631.084 83.8564C630.752 83.6614 630.396 83.5639 630.016 83.5639C629.636 83.5639 629.285 83.6565 628.963 83.8418C628.641 84.0271 628.378 84.3001 628.173 84.6609C627.978 85.012 627.881 85.4313 627.881 85.9189C627.881 86.4065 627.978 86.8356 628.173 87.2061C628.378 87.567 628.641 87.8449 628.963 88.0399C629.295 88.2349 629.646 88.3325 630.016 88.3325C630.396 88.3325 630.752 88.2398 631.084 88.0545C631.416 87.8595 631.679 87.5865 631.874 87.2354C632.069 86.8746 632.166 86.4455 632.166 85.9482ZM639.974 90.1316C639.193 90.1316 638.491 89.961 637.867 89.6197C637.243 89.2686 636.751 88.7762 636.39 88.1423C636.039 87.5084 635.863 86.7771 635.863 85.9482C635.863 85.1193 636.044 84.3879 636.404 83.754C636.775 83.1202 637.277 82.6326 637.911 82.2913C638.545 81.9402 639.252 81.7647 640.032 81.7647C640.812 81.7647 641.519 81.9402 642.153 82.2913C642.787 82.6326 643.284 83.1202 643.645 83.754C644.016 84.3879 644.201 85.1193 644.201 85.9482C644.201 86.7771 644.011 87.5084 643.63 88.1423C643.26 88.7762 642.753 89.2686 642.109 89.6197C641.475 89.961 640.763 90.1316 639.974 90.1316ZM639.974 88.3471C640.344 88.3471 640.69 88.2593 641.012 88.0838C641.344 87.8985 641.607 87.6255 641.802 87.2647C641.997 86.9038 642.095 86.465 642.095 85.9482C642.095 85.1778 641.89 84.5878 641.48 84.1782C641.08 83.7589 640.588 83.5493 640.003 83.5493C639.418 83.5493 638.925 83.7589 638.525 84.1782C638.135 84.5878 637.94 85.1778 637.94 85.9482C637.94 86.7186 638.131 87.3134 638.511 87.7327C638.901 88.1423 639.389 88.3471 639.974 88.3471ZM657.083 81.8963L654.714 90H652.505L651.028 84.3391L649.55 90H647.327L644.943 81.8963H647.02L648.453 88.0692L650.004 81.8963H652.169L653.69 88.0545L655.123 81.8963H657.083ZM662.828 81.7793C663.794 81.7793 664.574 82.0865 665.169 82.7009C665.764 83.3055 666.061 84.1539 666.061 85.2461V90H664.013V85.524C664.013 84.8804 663.852 84.3879 663.53 84.0466C663.209 83.6955 662.77 83.52 662.214 83.52C661.648 83.52 661.2 83.6955 660.868 84.0466C660.546 84.3879 660.386 84.8804 660.386 85.524V90H658.338V81.8963H660.386V82.9056C660.659 82.5546 661.005 82.2815 661.424 82.0865C661.853 81.8817 662.321 81.7793 662.828 81.7793ZM670.203 79.1756V90H668.155V79.1756H670.203ZM675.97 90.1316C675.19 90.1316 674.488 89.961 673.864 89.6197C673.24 89.2686 672.748 88.7762 672.387 88.1423C672.036 87.5084 671.86 86.7771 671.86 85.9482C671.86 85.1193 672.041 84.3879 672.401 83.754C672.772 83.1202 673.274 82.6326 673.908 82.2913C674.542 81.9402 675.249 81.7647 676.029 81.7647C676.809 81.7647 677.516 81.9402 678.15 82.2913C678.784 82.6326 679.281 83.1202 679.642 83.754C680.013 84.3879 680.198 85.1193 680.198 85.9482C680.198 86.7771 680.008 87.5084 679.627 88.1423C679.257 88.7762 678.75 89.2686 678.106 89.6197C677.472 89.961 676.76 90.1316 675.97 90.1316ZM675.97 88.3471C676.341 88.3471 676.687 88.2593 677.009 88.0838C677.341 87.8985 677.604 87.6255 677.799 87.2647C677.994 86.9038 678.091 86.465 678.091 85.9482C678.091 85.1778 677.887 84.5878 677.477 84.1782C677.077 83.7589 676.585 83.5493 676 83.5493C675.415 83.5493 674.922 83.7589 674.522 84.1782C674.132 84.5878 673.937 85.1778 673.937 85.9482C673.937 86.7186 674.127 87.3134 674.508 87.7327C674.898 88.1423 675.385 88.3471 675.97 88.3471ZM681.32 85.9189C681.32 85.0998 681.481 84.3733 681.802 83.7394C682.134 83.1056 682.578 82.618 683.134 82.2767C683.699 81.9354 684.328 81.7647 685.02 81.7647C685.625 81.7647 686.152 81.8866 686.6 82.1304C687.059 82.3742 687.424 82.6814 687.697 83.0519V81.8963H689.76V90H687.697V88.8152C687.434 89.1955 687.068 89.5124 686.6 89.766C686.142 90.0098 685.61 90.1316 685.006 90.1316C684.323 90.1316 683.699 89.9561 683.134 89.6051C682.578 89.254 682.134 88.7615 681.802 88.1277C681.481 87.4841 681.32 86.7478 681.32 85.9189ZM687.697 85.9482C687.697 85.4508 687.6 85.0266 687.405 84.6756C687.21 84.3148 686.946 84.0417 686.615 83.8564C686.283 83.6614 685.927 83.5639 685.547 83.5639C685.167 83.5639 684.816 83.6565 684.494 83.8418C684.172 84.0271 683.909 84.3001 683.704 84.6609C683.509 85.012 683.411 85.4313 683.411 85.9189C683.411 86.4065 683.509 86.8356 683.704 87.2061C683.909 87.567 684.172 87.8449 684.494 88.0399C684.825 88.2349 685.177 88.3325 685.547 88.3325C685.927 88.3325 686.283 88.2398 686.615 88.0545C686.946 87.8595 687.21 87.5865 687.405 87.2354C687.6 86.8746 687.697 86.4455 687.697 85.9482ZM691.38 85.9189C691.38 85.0998 691.54 84.3733 691.862 83.7394C692.194 83.1056 692.642 82.618 693.208 82.2767C693.774 81.9354 694.403 81.7647 695.095 81.7647C695.622 81.7647 696.124 81.8817 696.602 82.1158C697.079 82.34 697.46 82.6423 697.743 83.0227V79.1756H699.82V90H697.743V88.8005C697.489 89.2004 697.133 89.5222 696.675 89.766C696.216 90.0098 695.685 90.1316 695.08 90.1316C694.398 90.1316 693.774 89.9561 693.208 89.6051C692.642 89.254 692.194 88.7615 691.862 88.1277C691.54 87.4841 691.38 86.7478 691.38 85.9189ZM697.757 85.9482C697.757 85.4508 697.66 85.0266 697.465 84.6756C697.27 84.3148 697.006 84.0417 696.675 83.8564C696.343 83.6614 695.987 83.5639 695.607 83.5639C695.227 83.5639 694.876 83.6565 694.554 83.8418C694.232 84.0271 693.969 84.3001 693.764 84.6609C693.569 85.012 693.471 85.4313 693.471 85.9189C693.471 86.4065 693.569 86.8356 693.764 87.2061C693.969 87.567 694.232 87.8449 694.554 88.0399C694.885 88.2349 695.236 88.3325 695.607 88.3325C695.987 88.3325 696.343 88.2398 696.675 88.0545C697.006 87.8595 697.27 87.5865 697.465 87.2354C697.66 86.8746 697.757 86.4455 697.757 85.9482ZM705.067 90.1316C704.404 90.1316 703.809 90.0146 703.282 89.7806C702.756 89.5368 702.337 89.2101 702.025 88.8005C701.722 88.391 701.556 87.9375 701.527 87.4402H703.59C703.629 87.7522 703.78 88.0107 704.043 88.2154C704.316 88.4202 704.653 88.5226 705.052 88.5226C705.442 88.5226 705.745 88.4446 705.959 88.2886C706.184 88.1326 706.296 87.9326 706.296 87.6888C706.296 87.4256 706.159 87.2305 705.886 87.1037C705.623 86.9672 705.199 86.8209 704.614 86.6649C704.009 86.5186 703.512 86.3675 703.122 86.2115C702.741 86.0554 702.41 85.8165 702.127 85.4947C701.854 85.1729 701.717 84.739 701.717 84.1929C701.717 83.7443 701.844 83.3347 702.098 82.9642C702.361 82.5936 702.732 82.301 703.209 82.0865C703.697 81.872 704.267 81.7647 704.921 81.7647C705.886 81.7647 706.657 82.0085 707.232 82.4961C707.807 82.9739 708.124 83.6224 708.183 84.4415H706.223C706.193 84.1197 706.057 83.8662 705.813 83.6809C705.579 83.4859 705.262 83.3884 704.862 83.3884C704.492 83.3884 704.204 83.4566 703.999 83.5931C703.804 83.7297 703.707 83.9198 703.707 84.1636C703.707 84.4367 703.843 84.6463 704.116 84.7926C704.389 84.9291 704.814 85.0705 705.389 85.2168C705.974 85.3631 706.457 85.5142 706.837 85.6702C707.217 85.8263 707.544 86.0701 707.817 86.4016C708.1 86.7234 708.246 87.1525 708.256 87.6888C708.256 88.1569 708.124 88.5763 707.861 88.9468C707.607 89.3174 707.237 89.6099 706.749 89.8245C706.271 90.0293 705.711 90.1316 705.067 90.1316ZM578.725 105.579H577.306V112H575.229V105.579H574.307V103.896H575.229V103.487C575.229 102.492 575.512 101.761 576.077 101.293C576.643 100.825 577.496 100.605 578.637 100.634V102.36C578.14 102.351 577.793 102.434 577.598 102.609C577.403 102.785 577.306 103.102 577.306 103.56V103.896H578.725V105.579ZM582.246 105.154C582.509 104.725 582.851 104.389 583.27 104.145C583.699 103.901 584.187 103.779 584.733 103.779V105.93H584.191C583.548 105.93 583.06 106.081 582.729 106.383C582.407 106.685 582.246 107.212 582.246 107.963V112H580.198V103.896H582.246V105.154ZM589.857 112.132C589.076 112.132 588.374 111.961 587.75 111.62C587.126 111.269 586.634 110.776 586.273 110.142C585.922 109.508 585.746 108.777 585.746 107.948C585.746 107.119 585.927 106.388 586.287 105.754C586.658 105.12 587.16 104.633 587.794 104.291C588.428 103.94 589.135 103.765 589.915 103.765C590.695 103.765 591.402 103.94 592.036 104.291C592.67 104.633 593.167 105.12 593.528 105.754C593.899 106.388 594.084 107.119 594.084 107.948C594.084 108.777 593.894 109.508 593.513 110.142C593.143 110.776 592.636 111.269 591.992 111.62C591.358 111.961 590.646 112.132 589.857 112.132ZM589.857 110.347C590.227 110.347 590.573 110.259 590.895 110.084C591.227 109.899 591.49 109.625 591.685 109.265C591.88 108.904 591.978 108.465 591.978 107.948C591.978 107.178 591.773 106.588 591.363 106.178C590.963 105.759 590.471 105.549 589.886 105.549C589.301 105.549 588.808 105.759 588.408 106.178C588.018 106.588 587.823 107.178 587.823 107.948C587.823 108.719 588.014 109.313 588.394 109.733C588.784 110.142 589.271 110.347 589.857 110.347ZM605.796 103.779C606.791 103.779 607.59 104.087 608.195 104.701C608.809 105.305 609.117 106.154 609.117 107.246V112H607.069V107.524C607.069 106.89 606.908 106.407 606.586 106.076C606.264 105.735 605.825 105.564 605.27 105.564C604.714 105.564 604.27 105.735 603.938 106.076C603.617 106.407 603.456 106.89 603.456 107.524V112H601.408V107.524C601.408 106.89 601.247 106.407 600.925 106.076C600.603 105.735 600.165 105.564 599.609 105.564C599.043 105.564 598.595 105.735 598.263 106.076C597.941 106.407 597.78 106.89 597.78 107.524V112H595.732V103.896H597.78V104.876C598.044 104.535 598.38 104.267 598.79 104.072C599.209 103.877 599.667 103.779 600.165 103.779C600.798 103.779 601.364 103.916 601.861 104.189C602.359 104.452 602.744 104.833 603.017 105.33C603.28 104.862 603.661 104.486 604.158 104.204C604.665 103.921 605.211 103.779 605.796 103.779ZM617.222 105.579V109.499C617.222 109.772 617.286 109.972 617.412 110.098C617.549 110.215 617.773 110.274 618.085 110.274H619.036V112H617.749C616.023 112 615.16 111.161 615.16 109.484V105.579H614.194V103.896H615.16V101.892H617.222V103.896H619.036V105.579H617.222ZM625.219 103.779C625.833 103.779 626.379 103.916 626.857 104.189C627.335 104.452 627.706 104.847 627.969 105.374C628.242 105.891 628.379 106.515 628.379 107.246V112H626.331V107.524C626.331 106.88 626.17 106.388 625.848 106.047C625.526 105.696 625.087 105.52 624.532 105.52C623.966 105.52 623.517 105.696 623.186 106.047C622.864 106.388 622.703 106.88 622.703 107.524V112H620.655V101.176H622.703V104.906C622.966 104.555 623.317 104.282 623.756 104.087C624.195 103.882 624.683 103.779 625.219 103.779ZM638.005 107.773C638.005 108.065 637.986 108.328 637.947 108.563H632.023C632.072 109.148 632.276 109.606 632.637 109.938C632.998 110.269 633.442 110.435 633.968 110.435C634.729 110.435 635.27 110.108 635.592 109.455H637.801C637.567 110.235 637.118 110.879 636.455 111.386C635.792 111.883 634.978 112.132 634.012 112.132C633.232 112.132 632.53 111.961 631.906 111.62C631.291 111.269 630.809 110.776 630.458 110.142C630.116 109.508 629.946 108.777 629.946 107.948C629.946 107.11 630.116 106.373 630.458 105.739C630.799 105.106 631.277 104.618 631.891 104.277C632.505 103.935 633.212 103.765 634.012 103.765C634.782 103.765 635.47 103.93 636.075 104.262C636.689 104.594 637.162 105.067 637.493 105.681C637.835 106.286 638.005 106.983 638.005 107.773ZM635.884 107.188C635.875 106.661 635.685 106.242 635.314 105.93C634.943 105.608 634.49 105.447 633.954 105.447C633.446 105.447 633.017 105.603 632.666 105.915C632.325 106.217 632.115 106.641 632.037 107.188H635.884ZM642.752 107.948C642.752 107.11 642.922 106.378 643.264 105.754C643.605 105.12 644.078 104.633 644.682 104.291C645.287 103.94 645.979 103.765 646.76 103.765C647.764 103.765 648.593 104.018 649.246 104.525C649.909 105.023 650.353 105.725 650.577 106.632H648.369C648.252 106.281 648.052 106.008 647.769 105.813C647.496 105.608 647.154 105.505 646.745 105.505C646.16 105.505 645.697 105.72 645.355 106.149C645.014 106.568 644.843 107.168 644.843 107.948C644.843 108.719 645.014 109.318 645.355 109.747C645.697 110.167 646.16 110.376 646.745 110.376C647.574 110.376 648.115 110.006 648.369 109.265H650.577C650.353 110.142 649.909 110.84 649.246 111.356C648.583 111.873 647.754 112.132 646.76 112.132C645.979 112.132 645.287 111.961 644.682 111.62C644.078 111.269 643.605 110.781 643.264 110.157C642.922 109.523 642.752 108.787 642.752 107.948ZM655.822 112.132C655.042 112.132 654.34 111.961 653.716 111.62C653.092 111.269 652.599 110.776 652.238 110.142C651.887 109.508 651.712 108.777 651.712 107.948C651.712 107.119 651.892 106.388 652.253 105.754C652.624 105.12 653.126 104.633 653.76 104.291C654.394 103.94 655.101 103.765 655.881 103.765C656.661 103.765 657.368 103.94 658.002 104.291C658.636 104.633 659.133 105.12 659.494 105.754C659.864 106.388 660.05 107.119 660.05 107.948C660.05 108.777 659.859 109.508 659.479 110.142C659.109 110.776 658.601 111.269 657.958 111.62C657.324 111.961 656.612 112.132 655.822 112.132ZM655.822 110.347C656.193 110.347 656.539 110.259 656.861 110.084C657.192 109.899 657.456 109.625 657.651 109.265C657.846 108.904 657.943 108.465 657.943 107.948C657.943 107.178 657.738 106.588 657.329 106.178C656.929 105.759 656.437 105.549 655.851 105.549C655.266 105.549 654.774 105.759 654.374 106.178C653.984 106.588 653.789 107.178 653.789 107.948C653.789 108.719 653.979 109.313 654.359 109.733C654.75 110.142 655.237 110.347 655.822 110.347ZM671.762 103.779C672.756 103.779 673.556 104.087 674.161 104.701C674.775 105.305 675.082 106.154 675.082 107.246V112H673.034V107.524C673.034 106.89 672.873 106.407 672.552 106.076C672.23 105.735 671.791 105.564 671.235 105.564C670.679 105.564 670.236 105.735 669.904 106.076C669.582 106.407 669.421 106.89 669.421 107.524V112H667.373V107.524C667.373 106.89 667.213 106.407 666.891 106.076C666.569 105.735 666.13 105.564 665.574 105.564C665.009 105.564 664.56 105.735 664.229 106.076C663.907 106.407 663.746 106.89 663.746 107.524V112H661.698V103.896H663.746V104.876C664.009 104.535 664.346 104.267 664.755 104.072C665.174 103.877 665.633 103.779 666.13 103.779C666.764 103.779 667.33 103.916 667.827 104.189C668.324 104.452 668.709 104.833 668.983 105.33C669.246 104.862 669.626 104.486 670.123 104.204C670.631 103.921 671.177 103.779 671.762 103.779ZM687.236 103.779C688.23 103.779 689.03 104.087 689.634 104.701C690.249 105.305 690.556 106.154 690.556 107.246V112H688.508V107.524C688.508 106.89 688.347 106.407 688.025 106.076C687.704 105.735 687.265 105.564 686.709 105.564C686.153 105.564 685.709 105.735 685.378 106.076C685.056 106.407 684.895 106.89 684.895 107.524V112H682.847V107.524C682.847 106.89 682.686 106.407 682.365 106.076C682.043 105.735 681.604 105.564 681.048 105.564C680.482 105.564 680.034 105.735 679.702 106.076C679.381 106.407 679.22 106.89 679.22 107.524V112H677.172V103.896H679.22V104.876C679.483 104.535 679.819 104.267 680.229 104.072C680.648 103.877 681.107 103.779 681.604 103.779C682.238 103.779 682.803 103.916 683.301 104.189C683.798 104.452 684.183 104.833 684.456 105.33C684.72 104.862 685.1 104.486 685.597 104.204C686.104 103.921 686.65 103.779 687.236 103.779ZM700.296 103.896V112H698.233V110.976C697.97 111.327 697.624 111.605 697.195 111.81C696.775 112.005 696.317 112.102 695.82 112.102C695.186 112.102 694.625 111.971 694.138 111.707C693.65 111.434 693.265 111.039 692.982 110.523C692.709 109.996 692.572 109.372 692.572 108.65V103.896H694.62V108.358C694.62 109.001 694.781 109.499 695.103 109.85C695.425 110.191 695.864 110.362 696.419 110.362C696.985 110.362 697.429 110.191 697.751 109.85C698.072 109.499 698.233 109.001 698.233 108.358V103.896H700.296ZM706.953 103.779C707.919 103.779 708.699 104.087 709.294 104.701C709.888 105.305 710.186 106.154 710.186 107.246V112H708.138V107.524C708.138 106.88 707.977 106.388 707.655 106.047C707.334 105.696 706.895 105.52 706.339 105.52C705.773 105.52 705.325 105.696 704.993 106.047C704.671 106.388 704.51 106.88 704.51 107.524V112H702.463V103.896H704.51V104.906C704.783 104.555 705.13 104.282 705.549 104.087C705.978 103.882 706.446 103.779 706.953 103.779ZM713.318 102.931C712.957 102.931 712.655 102.819 712.411 102.594C712.177 102.36 712.06 102.073 712.06 101.731C712.06 101.39 712.177 101.107 712.411 100.883C712.655 100.649 712.957 100.532 713.318 100.532C713.679 100.532 713.976 100.649 714.21 100.883C714.454 101.107 714.576 101.39 714.576 101.731C714.576 102.073 714.454 102.36 714.21 102.594C713.976 102.819 713.679 102.931 713.318 102.931ZM714.327 103.896V112H712.28V103.896H714.327ZM718.881 105.579V109.499C718.881 109.772 718.945 109.972 719.071 110.098C719.208 110.215 719.432 110.274 719.744 110.274H720.695V112H719.408C717.682 112 716.819 111.161 716.819 109.484V105.579H715.853V103.896H716.819V101.892H718.881V103.896H720.695V105.579H718.881ZM730.067 103.896L725.05 115.832H722.87L724.625 111.795L721.378 103.896H723.675L725.766 109.557L727.887 103.896H730.067Z" fill="black"/>
<path d="M826.56 103.354C825.585 102.847 825.097 102.062 825.097 100.999C825.097 100.472 825.229 99.9943 825.492 99.5652C825.765 99.1264 826.17 98.7802 826.706 98.5267C827.252 98.2634 827.915 98.1317 828.695 98.1317C829.476 98.1317 830.134 98.2634 830.67 98.5267C831.216 98.7802 831.621 99.1264 831.884 99.5652C832.157 99.9943 832.294 100.472 832.294 100.999C832.294 101.535 832.162 102.008 831.899 102.418C831.636 102.817 831.285 103.129 830.846 103.354C831.382 103.588 831.801 103.929 832.104 104.378C832.406 104.826 832.557 105.358 832.557 105.972C832.557 106.635 832.386 107.215 832.045 107.713C831.714 108.2 831.255 108.576 830.67 108.839C830.085 109.102 829.427 109.234 828.695 109.234C827.964 109.234 827.306 109.102 826.721 108.839C826.145 108.576 825.687 108.2 825.346 107.713C825.014 107.215 824.848 106.635 824.848 105.972C824.848 105.358 825 104.826 825.302 104.378C825.604 103.919 826.023 103.578 826.56 103.354ZM830.304 101.291C830.304 100.813 830.158 100.443 829.866 100.18C829.583 99.9163 829.193 99.7847 828.695 99.7847C828.208 99.7847 827.818 99.9163 827.525 100.18C827.242 100.443 827.101 100.818 827.101 101.306C827.101 101.745 827.247 102.096 827.54 102.359C827.842 102.622 828.227 102.754 828.695 102.754C829.164 102.754 829.549 102.622 829.851 102.359C830.153 102.086 830.304 101.73 830.304 101.291ZM828.695 104.246C828.14 104.246 827.686 104.387 827.335 104.67C826.994 104.953 826.823 105.358 826.823 105.884C826.823 106.372 826.989 106.772 827.32 107.084C827.662 107.386 828.12 107.537 828.695 107.537C829.271 107.537 829.724 107.381 830.056 107.069C830.387 106.757 830.553 106.362 830.553 105.884C830.553 105.367 830.382 104.968 830.041 104.685C829.7 104.392 829.251 104.246 828.695 104.246ZM836.793 106.85L835.082 110.96H833.765L834.716 106.85H836.793ZM838.21 101.145C838.259 100.17 838.6 99.419 839.234 98.8924C839.878 98.356 840.721 98.0879 841.765 98.0879C842.477 98.0879 843.086 98.2146 843.593 98.4682C844.1 98.712 844.481 99.0484 844.734 99.4775C844.998 99.8968 845.129 100.375 845.129 100.911C845.129 101.525 844.968 102.047 844.647 102.476C844.334 102.895 843.959 103.178 843.52 103.325V103.383C844.086 103.559 844.525 103.871 844.837 104.319C845.159 104.768 845.319 105.343 845.319 106.045C845.319 106.63 845.183 107.152 844.91 107.61C844.647 108.069 844.252 108.43 843.725 108.693C843.208 108.946 842.584 109.073 841.853 109.073C840.751 109.073 839.854 108.795 839.161 108.239C838.469 107.684 838.103 106.864 838.064 105.782H840.053C840.073 106.26 840.234 106.645 840.536 106.938C840.848 107.22 841.272 107.362 841.809 107.362C842.306 107.362 842.686 107.225 842.95 106.952C843.223 106.669 843.359 106.309 843.359 105.87C843.359 105.285 843.174 104.865 842.803 104.612C842.433 104.358 841.858 104.231 841.077 104.231H840.653V102.549H841.077C842.462 102.549 843.155 102.086 843.155 101.16C843.155 100.74 843.028 100.414 842.774 100.18C842.53 99.9456 842.174 99.8285 841.706 99.8285C841.248 99.8285 840.892 99.9553 840.639 100.209C840.395 100.453 840.253 100.765 840.214 101.145H838.21ZM853.871 99.887L849.98 109H847.903L851.823 100.121H846.821V98.3658H853.871V99.887ZM860.773 100.999C860.676 100.589 860.505 100.282 860.261 100.077C860.027 99.8724 859.686 99.77 859.237 99.77C858.564 99.77 858.067 100.043 857.745 100.589C857.433 101.126 857.272 102.003 857.263 103.222C857.497 102.832 857.838 102.53 858.286 102.315C858.735 102.091 859.223 101.979 859.749 101.979C860.383 101.979 860.944 102.115 861.431 102.388C861.919 102.661 862.299 103.061 862.572 103.588C862.845 104.105 862.982 104.729 862.982 105.46C862.982 106.153 862.841 106.772 862.558 107.318C862.285 107.854 861.88 108.273 861.344 108.576C860.807 108.878 860.169 109.029 859.427 109.029C858.413 109.029 857.614 108.805 857.029 108.356C856.453 107.908 856.048 107.284 855.814 106.484C855.59 105.675 855.478 104.68 855.478 103.5C855.478 101.715 855.785 100.37 856.4 99.4628C857.014 98.5462 857.984 98.0879 859.31 98.0879C860.334 98.0879 861.129 98.3658 861.695 98.9216C862.26 99.4775 862.587 100.17 862.675 100.999H860.773ZM859.281 103.661C858.764 103.661 858.33 103.812 857.979 104.114C857.628 104.417 857.453 104.856 857.453 105.431C857.453 106.006 857.614 106.46 857.935 106.791C858.267 107.123 858.73 107.289 859.325 107.289C859.852 107.289 860.266 107.128 860.568 106.806C860.88 106.484 861.036 106.05 861.036 105.504C861.036 104.938 860.885 104.49 860.583 104.158C860.29 103.827 859.857 103.661 859.281 103.661ZM873.878 109L871.626 105.021H870.66V109H868.612V98.79H872.445C873.235 98.79 873.908 98.9314 874.464 99.2142C875.019 99.4872 875.434 99.8627 875.707 100.34C875.99 100.809 876.131 101.335 876.131 101.92C876.131 102.593 875.936 103.203 875.546 103.749C875.156 104.285 874.576 104.656 873.805 104.86L876.248 109H873.878ZM870.66 103.485H872.372C872.928 103.485 873.342 103.354 873.615 103.09C873.888 102.817 874.025 102.442 874.025 101.964C874.025 101.496 873.888 101.135 873.615 100.882C873.342 100.618 872.928 100.487 872.372 100.487H870.66V103.485ZM877.603 104.919C877.603 104.1 877.764 103.373 878.086 102.739C878.417 102.106 878.861 101.618 879.417 101.277C879.982 100.935 880.611 100.765 881.304 100.765C881.908 100.765 882.435 100.887 882.883 101.13C883.342 101.374 883.708 101.681 883.981 102.052V100.896H886.043V109H883.981V107.815C883.717 108.195 883.352 108.512 882.883 108.766C882.425 109.01 881.894 109.132 881.289 109.132C880.606 109.132 879.982 108.956 879.417 108.605C878.861 108.254 878.417 107.762 878.086 107.128C877.764 106.484 877.603 105.748 877.603 104.919ZM883.981 104.948C883.981 104.451 883.883 104.027 883.688 103.676C883.493 103.315 883.23 103.042 882.898 102.856C882.567 102.661 882.211 102.564 881.83 102.564C881.45 102.564 881.099 102.657 880.777 102.842C880.455 103.027 880.192 103.3 879.987 103.661C879.792 104.012 879.695 104.431 879.695 104.919C879.695 105.407 879.792 105.836 879.987 106.206C880.192 106.567 880.455 106.845 880.777 107.04C881.109 107.235 881.46 107.332 881.83 107.332C882.211 107.332 882.567 107.24 882.898 107.055C883.23 106.86 883.493 106.586 883.688 106.235C883.883 105.875 883.981 105.446 883.981 104.948ZM890.574 102.579V106.499C890.574 106.772 890.637 106.972 890.764 107.098C890.9 107.215 891.125 107.274 891.437 107.274H892.387V109H891.1C889.374 109 888.511 108.161 888.511 106.484V102.579H887.546V100.896H888.511V98.8924H890.574V100.896H892.387V102.579H890.574ZM895.045 99.9309C894.684 99.9309 894.382 99.8188 894.138 99.5945C893.904 99.3605 893.787 99.0728 893.787 98.7315C893.787 98.3902 893.904 98.1074 894.138 97.8831C894.382 97.649 894.684 97.532 895.045 97.532C895.406 97.532 895.703 97.649 895.938 97.8831C896.181 98.1074 896.303 98.3902 896.303 98.7315C896.303 99.0728 896.181 99.3605 895.938 99.5945C895.703 99.8188 895.406 99.9309 895.045 99.9309ZM896.055 100.896V109H894.007V100.896H896.055ZM902.715 100.779C903.68 100.779 904.46 101.087 905.055 101.701C905.65 102.305 905.947 103.154 905.947 104.246V109H903.9V104.524C903.9 103.88 903.739 103.388 903.417 103.047C903.095 102.696 902.656 102.52 902.1 102.52C901.535 102.52 901.086 102.696 900.755 103.047C900.433 103.388 900.272 103.88 900.272 104.524V109H898.224V100.896H900.272V101.906C900.545 101.555 900.891 101.282 901.311 101.087C901.74 100.882 902.208 100.779 902.715 100.779ZM911.215 100.765C911.82 100.765 912.351 100.887 912.81 101.13C913.268 101.364 913.629 101.672 913.892 102.052V100.896H915.955V109.059C915.955 109.809 915.803 110.477 915.501 111.062C915.199 111.657 914.745 112.125 914.141 112.467C913.536 112.818 912.805 112.993 911.947 112.993C910.796 112.993 909.85 112.725 909.109 112.189C908.378 111.652 907.963 110.921 907.866 109.995H909.899C910.006 110.365 910.235 110.658 910.586 110.872C910.947 111.097 911.381 111.209 911.888 111.209C912.483 111.209 912.966 111.028 913.336 110.668C913.707 110.316 913.892 109.78 913.892 109.059V107.801C913.629 108.181 913.263 108.498 912.795 108.751C912.337 109.005 911.81 109.132 911.215 109.132C910.533 109.132 909.909 108.956 909.343 108.605C908.777 108.254 908.329 107.762 907.997 107.128C907.675 106.484 907.515 105.748 907.515 104.919C907.515 104.1 907.675 103.373 907.997 102.739C908.329 102.106 908.773 101.618 909.328 101.277C909.894 100.935 910.523 100.765 911.215 100.765ZM913.892 104.948C913.892 104.451 913.795 104.027 913.6 103.676C913.405 103.315 913.141 103.042 912.81 102.856C912.478 102.661 912.122 102.564 911.742 102.564C911.362 102.564 911.011 102.657 910.689 102.842C910.367 103.027 910.104 103.3 909.899 103.661C909.704 104.012 909.606 104.431 909.606 104.919C909.606 105.407 909.704 105.836 909.899 106.206C910.104 106.567 910.367 106.845 910.689 107.04C911.02 107.235 911.371 107.332 911.742 107.332C912.122 107.332 912.478 107.24 912.81 107.055C913.141 106.86 913.405 106.586 913.6 106.235C913.795 105.875 913.892 105.446 913.892 104.948Z" fill="black"/>
<path d="M830 70L832.21 74.9581L837.608 75.5279L833.576 79.1619L834.702 84.4721L830 81.76L825.298 84.4721L826.424 79.1619L822.392 75.5279L827.79 74.9581L830 70Z" fill="#FFB30C"/>
<path d="M848 70L850.21 74.9581L855.608 75.5279L851.576 79.1619L852.702 84.4721L848 81.76L843.298 84.4721L844.424 79.1619L840.392 75.5279L845.79 74.9581L848 70Z" fill="#FFB30C"/>
<path d="M866 70L868.21 74.9581L873.608 75.5279L869.576 79.1619L870.702 84.4721L866 81.76L861.298 84.4721L862.424 79.1619L858.392 75.5279L863.79 74.9581L866 70Z" fill="#FFB30C"/>
<path d="M884 70L886.21 74.9581L891.608 75.5279L887.576 79.1619L888.702 84.4721L884 81.76L879.298 84.4721L880.424 79.1619L876.392 75.5279L881.79 74.9581L884 70Z" fill="#FFB30C"/>
<path d="M902 70L904.21 74.9581L909.608 75.5279L905.576 79.1619L906.702 84.4721L902 81.76L897.298 84.4721L898.424 79.1619L894.392 75.5279L899.79 74.9581L902 70Z" fill="#FFB30C"/>
</svg>
