<svg width="206" height="407" viewBox="0 0 206 407" fill="none" xmlns="http://www.w3.org/2000/svg">
<path d="M0.831848 22.7701V387.607C0.831848 397.963 8.59915 406.293 18.055 406.293H188.372C197.941 406.293 205.595 397.963 205.595 387.607V22.7701C205.595 1.71967 197.828 0.706543 188.372 0.706543H154.264C152.237 0.706543 150.662 2.95792 150.662 5.77215V7.01042C150.662 13.5394 147.059 13.5394 142.669 13.5394H63.7581C59.3679 13.5394 55.7656 13.5394 55.7656 7.01042V5.77215C55.7656 2.95792 54.1897 0.706543 52.1634 0.706543H18.055C8.59915 0.706543 0.831848 3.52078 0.831848 22.7701Z" fill="white"/>
<path d="M0.832245 22.7701V63.8579H205.596V22.7701C205.596 1.71967 197.828 0.706543 188.373 0.706543H154.264C152.238 0.706543 150.662 2.95792 150.662 5.77215V7.01042C150.662 13.5394 147.06 13.5394 142.669 13.5394H63.7585C59.3683 13.5394 55.766 13.5394 55.766 7.01042V5.77215C55.766 2.95792 54.1901 0.706543 52.1638 0.706543H18.0554C8.59955 0.706543 0.832245 3.52078 0.832245 22.7701Z" fill="#FE9868"/>
<path d="M160.117 8.9241C160.23 9.03667 160.343 9.14924 160.455 9.26181C160.568 9.37438 160.568 9.37437 160.68 9.48694C161.581 8.58639 162.594 8.13612 163.832 8.13612C165.07 8.13612 166.084 8.58639 166.984 9.48694C167.097 9.37437 167.097 9.37438 167.209 9.26181C167.322 9.14924 167.434 9.03667 167.547 8.9241C167.434 8.81153 167.322 8.69895 167.097 8.58639C166.759 8.36125 166.421 8.13611 166.084 8.02354C165.633 7.7984 165.296 7.68584 164.845 7.57327C164.62 7.57327 164.395 7.46069 164.17 7.46069C164.057 7.46069 163.607 7.46069 163.607 7.46069C163.495 7.46069 163.269 7.46069 163.157 7.46069C162.707 7.46069 162.369 7.57327 162.031 7.68584C161.806 7.79841 161.468 7.91097 161.243 8.02354C161.018 8.13611 160.68 8.36125 160.455 8.58639C160.343 8.69895 160.23 8.81153 160.117 8.9241Z" fill="white"/>
<path d="M165.971 10.5002C166.196 10.275 166.308 10.1624 166.533 9.93731C165.971 9.37446 165.295 9.03675 164.395 8.92418C163.156 8.81161 162.143 9.14932 161.243 9.93731C161.468 10.1624 161.58 10.275 161.806 10.5002C162.368 9.93731 163.156 9.5996 163.944 9.5996C164.62 9.5996 165.295 9.93731 165.971 10.5002Z" fill="white"/>
<path d="M162.144 10.9503C162.369 11.1754 162.482 11.288 162.707 11.5132C163.044 11.1754 163.382 11.0629 163.832 11.0629C164.283 11.0629 164.62 11.1754 164.958 11.5132C165.183 11.288 165.296 11.1754 165.521 10.9503C164.62 10.1623 163.157 10.0498 162.144 10.9503Z" fill="white"/>
<path d="M163.381 11.9635C163.381 12.1886 163.606 12.4137 163.831 12.4137C164.057 12.4137 164.282 12.1886 164.282 11.9635C164.282 11.7383 164.057 11.5132 163.831 11.5132C163.494 11.5132 163.381 11.7383 163.381 11.9635Z" fill="white"/>
<path d="M192.199 9.93726C192.199 9.14928 191.637 8.58643 190.849 8.58643C190.061 8.58643 189.498 9.14928 189.498 9.93726C189.498 10.7252 190.061 11.2881 190.849 11.2881C191.637 11.2881 192.199 10.7252 192.199 9.93726Z" fill="white"/>
<path d="M187.922 9.93726C187.922 9.14928 187.359 8.58643 186.571 8.58643C185.783 8.58643 185.22 9.14928 185.22 9.93726C185.22 10.7252 185.783 11.2881 186.571 11.2881C187.359 11.2881 187.922 10.7252 187.922 9.93726Z" fill="white"/>
<path d="M183.645 9.93726C183.645 9.14928 183.082 8.58643 182.294 8.58643C181.506 8.58643 180.943 9.14928 180.943 9.93726C180.943 10.7252 181.506 11.2881 182.294 11.2881C183.082 11.2881 183.645 10.7252 183.645 9.93726Z" fill="white"/>
<path d="M179.366 9.93726C179.366 9.14928 178.803 8.58643 178.015 8.58643C177.227 8.58643 176.665 9.14928 176.665 9.93726C176.665 10.7252 177.227 11.2881 178.015 11.2881C178.803 11.2881 179.366 10.7252 179.366 9.93726Z" fill="white"/>
<path d="M175.089 9.93726C175.089 9.14928 174.526 8.58643 173.738 8.58643C172.95 8.58643 172.387 9.14928 172.387 9.93726C172.387 10.7252 172.95 11.2881 173.738 11.2881C174.526 11.2881 175.089 10.7252 175.089 9.93726Z" fill="white"/>
<path d="M16.142 12.864H27.1738V7.79834H16.142V12.864ZM26.7235 12.3011H16.8174V8.36119H26.7235V12.3011Z" fill="white"/>
<path d="M19.1816 8.69897H26.2735V12.0761H19.1816V8.69897Z" fill="white"/>
<path d="M15.1291 8.92407H16.1422V11.6257H15.1291V8.92407Z" fill="white"/>
<path d="M186.909 52.2633L192.988 46.6348L186.909 41.0063L186.008 42.0195L190.961 46.6348L186.008 51.3627L186.909 52.2633Z" fill="white"/>
<path d="M19.5188 41.0063L13.4401 46.6348L19.5188 52.2633L20.4194 51.3627L15.4663 46.6348L20.4194 42.0195L19.5188 41.0063Z" fill="white"/>
<path d="M114.752 44.271C114.077 44.9464 113.626 45.9595 113.626 47.0852C113.626 48.2109 114.077 49.1114 114.752 49.8994C115.427 50.5748 116.328 51.0251 117.341 51.0251C118.354 51.0251 119.367 50.5748 120.043 49.8994C120.718 49.224 121.168 48.2109 121.168 47.0852C121.168 45.9595 120.718 45.0589 120.043 44.271C119.367 43.5955 118.354 43.1453 117.341 43.1453C116.328 43.1453 115.315 43.5955 114.752 44.271ZM114.865 47.0852C114.865 46.2972 115.202 45.6218 115.653 45.1715C116.103 44.7212 116.778 44.3835 117.341 44.3835C118.017 44.3835 118.692 44.7212 119.142 45.1715C119.592 45.6218 119.93 46.2972 119.93 47.0852C119.93 47.8732 119.592 48.5486 119.142 48.9989C118.692 49.4491 118.017 49.7869 117.341 49.7869C116.666 49.7869 116.103 49.4491 115.653 48.9989C115.09 48.5486 114.865 47.8732 114.865 47.0852Z" fill="white"/>
<path d="M106.309 50.1245C106.197 50.4622 106.422 50.7999 106.647 50.9125C106.647 50.9125 106.759 50.9125 106.872 50.9125C106.985 50.9125 107.097 50.9125 107.322 50.7999C107.435 50.6874 107.547 50.5748 107.66 50.4622C107.773 50.1245 107.885 49.7868 107.885 49.1114C107.885 48.8863 107.885 48.7737 107.998 48.6611C108.11 48.5486 108.223 48.436 108.335 48.3234C108.56 48.2108 108.898 48.0983 108.898 48.0983H110.249V50.4622C110.249 50.7999 110.474 51.0251 110.812 51.0251C111.15 51.0251 111.375 50.7999 111.375 50.4622V43.9332C111.375 43.5955 111.15 43.3704 110.812 43.3704H108.898C107.547 43.3704 106.534 44.3835 106.534 45.7343C106.534 46.4097 106.872 47.0852 107.435 47.5354C107.322 47.648 107.21 47.7606 107.097 47.9857C106.872 48.3234 106.759 48.6611 106.759 49.224C106.759 49.5617 106.759 49.7868 106.759 49.8994C106.534 49.7868 106.422 50.0119 106.309 50.1245ZM107.885 45.7343C107.885 45.0589 108.335 44.6086 109.011 44.6086H110.362V46.86H109.011C108.335 46.86 107.885 46.2972 107.885 45.7343Z" fill="white"/>
<path d="M104.508 50.4622V43.9332C104.508 43.5955 104.283 43.3704 103.946 43.3704H102.595C100.456 43.3704 98.7674 45.0589 98.7674 47.1977C98.7674 49.3365 100.456 51.0251 102.595 51.0251H103.946C104.283 51.0251 104.508 50.7999 104.508 50.4622ZM103.27 49.8994H102.595C101.131 49.8994 100.006 48.7737 100.006 47.3103C100.006 45.8469 101.131 44.7212 102.595 44.7212H103.27V49.8994Z" fill="white"/>
<path d="M97.1914 50.4622V43.9332C97.1914 43.5955 96.9663 43.3704 96.6286 43.3704H93.0264C92.6887 43.3704 92.4635 43.5955 92.4635 43.9332C92.4635 44.2709 92.8012 44.4961 93.0264 44.4961H96.0657V46.5223H93.4766C93.1389 46.5223 92.9138 46.86 92.9138 47.0851C92.9138 47.4229 93.1389 47.648 93.4766 47.648H96.0657V49.6742H93.0264C92.6887 49.6742 92.4635 49.8994 92.4635 50.2371C92.4635 50.5748 92.8012 50.7999 93.0264 50.7999H96.6286C96.8537 51.0251 97.1914 50.7999 97.1914 50.4622Z" fill="white"/>
<path d="M85.3717 50.1245C85.2591 50.4622 85.4842 50.7999 85.7094 50.9125C85.7094 50.9125 85.8219 50.9125 85.9345 50.9125C86.0471 50.9125 86.1596 50.9125 86.3848 50.7999C86.4973 50.6874 86.6099 50.5748 86.7225 50.4622C86.8351 50.1245 86.9476 49.7868 86.9476 49.1114C86.9476 48.8863 86.9476 48.7737 87.0602 48.6611C87.1728 48.5486 87.2853 48.436 87.3979 48.3234C87.623 48.2108 87.9608 48.0983 87.9608 48.0983H89.3116V50.4622C89.3116 50.7999 89.5367 51.0251 89.8744 51.0251C90.2121 51.0251 90.4373 50.7999 90.4373 50.4622V43.9332C90.4373 43.5955 90.2121 43.3704 89.8744 43.3704H87.9608C86.6099 43.3704 85.5968 44.3835 85.5968 45.7343C85.5968 46.4097 85.9345 47.0852 86.4973 47.5354C86.3848 47.648 86.2722 47.7606 86.1596 47.9857C85.9345 48.3234 85.8219 48.6611 85.8219 49.224C85.8219 49.5617 85.8219 49.7868 85.8219 49.8994C85.4842 49.7868 85.3717 50.0119 85.3717 50.1245ZM86.8351 45.7343C86.8351 45.0589 87.3979 44.6086 87.9608 44.6086H89.3116V46.86H87.9608C87.3979 46.86 86.8351 46.2972 86.8351 45.7343Z" fill="white"/>
<path d="M92.4632 5.43457H113.964C114.752 5.43457 115.315 4.87172 115.315 4.08374C115.315 3.29575 114.752 2.73291 113.964 2.73291H92.4632C91.6752 2.73291 91.1124 3.29575 91.1124 4.08374C91.1124 4.75915 91.6752 5.43457 92.4632 5.43457Z" fill="#263238"/>
</svg>
