<svg width="318" height="432" viewBox="0 0 318 432" fill="none" xmlns="http://www.w3.org/2000/svg">
<path d="M121.505 354.283L117.98 402.58C117.98 411.98 118.098 420.324 118.568 424.554C118.568 424.554 118.568 424.554 118.568 424.671C118.685 426.317 118.92 427.374 119.273 427.609C119.273 427.609 119.273 427.609 119.273 427.727C122.093 429.607 197.652 432.192 200.237 431.487C202.94 430.664 200.825 423.026 198.004 420.559C195.184 418.091 166.629 404.225 166.629 404.225L169.684 355.928L121.505 354.283Z" fill="#774442"/>
<path d="M200.355 431.252C197.652 432.075 122.21 429.489 119.39 427.492C119.39 427.492 119.39 427.492 119.273 427.374C119.038 427.139 118.803 426.082 118.568 424.436C118.568 424.436 118.568 424.436 118.568 424.319C118.098 419.971 117.98 411.745 117.98 402.345C117.98 402.345 118.568 394.001 119.273 384.248L167.804 386.481L166.747 403.872C166.747 403.872 195.184 417.738 198.122 420.206C200.942 422.909 203.057 430.547 200.355 431.252Z" fill="#EBEBEB"/>
<path d="M200.707 431.487C198.004 432.309 121.27 430.194 118.45 428.196C117.392 427.491 117.157 401.757 118.685 388.713L168.039 390.593C168.039 390.593 167.921 403.872 168.509 404.107C173.327 406.574 195.771 418.09 198.356 420.323C201.294 422.791 203.409 430.664 200.707 431.487Z" fill="#FE9563"/>
<path d="M199.767 428.314C186.959 427.491 135.019 425.494 122.328 425.729C122.211 425.729 122.211 425.846 122.328 425.846C135.019 426.904 186.959 428.549 199.767 428.667C200.002 428.549 200.002 428.314 199.767 428.314Z" fill="#263238"/>
<path d="M193.657 417.386C190.602 417.151 187.547 418.443 185.902 420.206C184.257 421.851 182.729 424.319 182.729 426.904C182.729 427.021 182.847 427.021 182.847 426.904C183.787 421.851 188.487 417.621 193.657 417.503C193.775 417.621 193.775 417.386 193.657 417.386Z" fill="#263238"/>
<path d="M171.682 405.164C166.512 404.929 160.519 406.457 157.111 410.57C156.993 410.687 157.228 410.922 157.346 410.805C162.046 408.572 166.629 406.927 171.682 405.752C172.035 405.634 172.035 405.164 171.682 405.164Z" fill="#263238"/>
<path d="M175.56 406.81C170.39 406.575 164.397 408.102 160.989 412.215C160.872 412.333 161.107 412.568 161.224 412.45C165.924 410.217 170.507 408.572 175.56 407.397C175.913 407.397 175.913 406.81 175.56 406.81Z" fill="#263238"/>
<path d="M179.439 408.454C174.268 408.219 168.275 409.747 164.867 413.86C164.75 413.977 164.985 414.212 165.102 414.095C169.803 411.862 174.386 410.217 179.439 409.042C179.909 409.042 179.791 408.572 179.439 408.454Z" fill="#263238"/>
<path d="M183.316 410.217C178.145 409.982 172.152 411.51 168.744 415.623C168.627 415.74 168.862 415.975 168.979 415.858C173.68 413.625 178.263 411.98 183.316 410.805C183.786 410.805 183.786 410.217 183.316 410.217Z" fill="#263238"/>
<path d="M126.558 393.766C120.8 393.531 120.448 402.579 126.206 402.697C132.081 402.932 132.434 393.884 126.558 393.766Z" fill="#263238"/>
<path d="M177.676 391.651C175.208 389.419 171.801 391.416 170.155 393.531C169.45 394.471 168.745 395.647 168.04 396.822C166.63 399.407 165.572 402.345 165.102 405.165C165.102 405.4 164.985 405.635 164.985 405.87C164.985 405.987 164.985 405.987 164.985 405.987C164.985 406.222 164.867 406.34 164.867 406.575C164.867 406.692 164.985 406.693 164.985 406.693C165.102 406.928 165.22 407.163 165.455 407.163C165.572 407.163 165.69 407.163 165.808 407.163C166.865 406.457 167.923 405.87 168.98 405.165L169.568 404.812C172.153 403.167 174.738 401.522 176.736 399.172C178.734 397.057 180.144 393.766 177.676 391.651ZM170.978 402.345C170.155 402.932 169.333 403.402 168.393 403.99C167.57 404.46 166.748 405.047 166.043 405.635C165.925 405.635 165.925 405.752 165.808 405.87C165.69 405.987 165.572 405.987 165.572 406.105C165.572 405.987 165.69 405.87 165.69 405.87C166.513 403.872 167.218 401.875 168.158 399.877C168.275 399.524 168.51 399.054 168.745 398.702C169.333 397.527 170.038 396.352 170.743 395.294C171.918 393.649 177.088 389.536 177.441 395.176C177.559 397.997 173.211 400.817 170.978 402.345Z" fill="#263238"/>
<path d="M166.041 406.222C166.158 406.105 166.158 406.105 166.041 405.987C165.923 405.87 165.806 405.752 165.688 405.752L165.571 405.635C165.453 405.517 165.218 405.282 165.101 405.165C162.045 402.462 157.815 400.229 153.82 399.289C151.117 398.702 147.239 399.289 146.769 402.58C146.299 405.752 149.472 407.515 152.057 407.985C154.642 408.455 157.345 408.338 160.048 407.985C161.928 407.75 163.808 407.397 165.571 407.28C166.158 407.045 166.276 406.575 166.041 406.222ZM158.755 406.575C156.17 406.81 150.882 407.397 149.119 404.93C145.829 400.347 152.41 400.229 154.407 400.817C155.7 401.169 156.875 401.639 158.168 402.227C160.635 403.285 162.868 404.577 165.101 405.87C165.218 405.87 165.218 405.987 165.336 405.987C165.218 405.987 165.101 405.987 165.101 405.987C164.866 405.987 164.631 405.987 164.278 405.987C162.398 406.105 160.635 406.34 158.755 406.575Z" fill="#263238"/>
<path d="M117.979 381.545L172.033 383.778C172.033 383.778 174.501 308.336 173.326 276.726C172.033 242.296 157.227 139.709 157.227 139.709H112.573C112.573 139.709 123.972 242.648 124.207 277.078C124.442 309.041 117.979 381.545 117.979 381.545Z" fill="#37474F"/>
<path d="M148.414 139.709L121.622 232.542C118.449 188.593 112.573 139.709 112.573 139.709H148.414Z" fill="#263238"/>
<path d="M121.034 144.761L123.854 175.314L126.439 205.984C128.084 226.431 129.73 246.878 130.905 267.324C131.257 272.495 131.375 277.548 131.257 282.718C131.14 287.889 130.905 292.942 130.67 298.112C130.2 308.335 129.495 318.559 128.672 328.782C127.849 339.006 125.029 369.088 125.029 369.088C125.029 369.088 127.144 339.006 127.732 328.782C128.319 318.559 129.025 308.335 129.495 298.112C129.73 292.942 129.965 287.889 129.965 282.718C129.965 277.665 129.847 272.495 129.495 267.442C128.437 246.995 126.792 226.548 125.264 206.102L121.034 144.761Z" fill="#263238"/>
<path d="M170.272 373.671C162.046 373.084 164.396 373.201 156.171 372.731C152.175 372.496 125.618 370.969 121.858 371.439C121.74 371.439 121.74 371.556 121.858 371.556C125.618 372.379 152.175 373.319 156.171 373.554C164.396 373.906 162.046 373.671 170.272 373.906C170.389 373.906 170.507 373.671 170.272 373.671Z" fill="#263238"/>
<path d="M35.7218 326.903L11.0446 368.619C6.81429 377.079 3.17148 384.483 1.76135 388.595C1.76135 388.595 1.76135 388.595 1.76135 388.713C1.1738 390.241 0.938784 391.298 1.05629 391.651C1.05629 391.651 1.05629 391.651 1.05629 391.768C2.70143 394.706 69.2121 430.664 71.9149 431.134C74.6176 431.604 76.2627 423.848 74.7351 420.441C73.2075 417.033 53.9358 391.886 53.9358 391.886L78.1429 350.052L35.7218 326.903Z" fill="#774442"/>
<path d="M71.9149 431.017C69.2121 430.546 2.70143 394.588 1.05629 391.651C1.05629 391.651 1.05629 391.651 1.05629 391.533C0.938784 391.181 1.1738 390.123 1.76135 388.595C1.76135 388.595 1.76135 388.595 1.76135 388.478C3.28899 384.483 6.81429 376.962 11.0446 368.501C11.0446 368.501 15.275 361.216 20.3279 352.872L62.7491 376.492L54.0533 391.651C54.0533 391.651 73.325 416.798 74.8526 420.206C76.2627 423.731 74.7351 431.487 71.9149 431.017Z" fill="#EBEBEB"/>
<path d="M72.2669 431.251C69.4467 430.781 1.76087 394.706 0.11573 391.65C-0.47182 390.475 10.6916 367.326 17.8598 356.397L61.221 380.135C61.221 380.135 55.228 392.003 55.698 392.473C58.9883 396.821 73.9121 417.15 75.2047 420.323C76.6148 423.848 74.9696 431.721 72.2669 431.251Z" fill="#FE9563"/>
<path d="M72.737 428.079C61.5736 421.616 16.0972 396.704 4.58117 391.181C4.46366 391.181 4.46366 391.181 4.58117 391.298C15.5096 397.879 61.221 422.438 72.6195 428.314C72.8545 428.314 72.972 428.196 72.737 428.079Z" fill="#263238"/>
<path d="M72.149 415.505C69.5638 413.978 66.2735 413.743 63.9233 414.565C61.6906 415.388 59.3404 416.798 58.1653 419.266C58.1653 419.383 58.2828 419.383 58.2828 419.383C61.3381 415.27 67.4486 413.625 72.149 415.74C72.149 415.74 72.2665 415.623 72.149 415.505Z" fill="#263238"/>
<path d="M57.93 394.706C53.4646 392.121 47.3541 390.946 42.5362 393.061C42.3011 393.178 42.4186 393.413 42.6537 393.413C47.9416 393.531 52.642 394.118 57.695 395.294C58.0475 395.411 58.2825 394.941 57.93 394.706Z" fill="#263238"/>
<path d="M60.6339 397.996C56.1686 395.411 50.058 394.236 45.2401 396.351C45.0051 396.468 45.1226 396.703 45.3576 396.703C50.6456 396.821 55.346 397.409 60.3989 398.584C60.7515 398.701 60.9865 398.114 60.6339 397.996Z" fill="#263238"/>
<path d="M63.4534 401.287C58.988 398.702 52.8775 397.527 48.0596 399.642C47.8246 399.759 47.9421 399.994 48.1771 399.994C53.4651 400.112 58.1655 400.7 63.2184 401.875C63.5709 401.992 63.6884 401.405 63.4534 401.287Z" fill="#263238"/>
<path d="M66.1563 404.459C61.6909 401.874 55.5804 400.699 50.7625 402.814C50.5274 402.932 50.6449 403.167 50.88 403.167C56.1679 403.284 60.8683 403.872 65.9213 405.047C66.2738 405.164 66.5088 404.694 66.1563 404.459Z" fill="#263238"/>
<path d="M22.6774 364.506C17.6245 361.803 13.2766 369.676 18.4471 372.379C23.5 375.082 27.7304 367.209 22.6774 364.506Z" fill="#263238"/>
<path d="M69.3298 385.306C68.0372 382.133 64.1594 382.485 61.6916 383.661C60.6341 384.248 59.459 384.836 58.4014 385.658C55.9337 387.421 53.701 389.536 52.0558 391.886C51.9383 392.121 51.8208 392.239 51.7033 392.474C51.5858 392.474 51.5858 392.591 51.5858 392.591C51.4683 392.709 51.3508 392.826 51.2332 393.061C51.2332 393.179 51.2332 393.296 51.3508 393.296C51.3508 393.531 51.3508 393.884 51.5858 394.001C51.7033 394.119 51.8208 394.119 51.9383 394.119C53.1134 394.001 54.406 393.884 55.6986 393.766H56.4037C59.459 393.531 62.5142 393.179 65.3345 391.886C67.8022 390.711 70.6224 388.361 69.3298 385.306ZM58.6364 391.886C57.5788 392.004 56.6387 392.121 55.6986 392.239C54.7586 392.356 53.8185 392.474 52.8784 392.591C52.7609 392.591 52.6434 392.591 52.5259 392.591C52.4083 392.591 52.2908 392.591 52.1733 392.591C52.2908 392.474 52.2908 392.474 52.4083 392.356C54.0535 390.946 55.5811 389.419 57.3438 388.126C57.6963 387.891 58.0488 387.538 58.4014 387.303C59.459 386.598 60.5165 385.776 61.6916 385.188C63.4543 384.248 70.0349 382.838 67.8022 388.008C66.392 390.946 61.2216 391.534 58.6364 391.886Z" fill="#263238"/>
<path d="M52.4074 393.296C52.5249 393.296 52.5249 393.179 52.5249 393.061C52.5249 392.944 52.4074 392.826 52.4074 392.709V392.591C52.2899 392.356 52.2899 392.121 52.1723 392.004C50.6447 388.126 47.8245 384.248 44.7692 381.663C42.654 379.9 38.8937 378.725 37.0135 381.428C35.1334 384.013 37.2486 387.068 39.3637 388.596C41.4789 390.241 43.9466 391.299 46.5319 392.121C48.2945 392.709 50.0572 393.296 51.8198 393.884C52.0548 394.001 52.4074 393.649 52.4074 393.296ZM45.8268 390.241C43.3591 389.301 38.4237 387.421 37.9536 384.366C37.0135 378.843 43.0066 381.663 44.5342 383.073C45.4743 383.896 46.4144 384.953 47.2369 385.893C48.8821 387.891 50.2922 390.124 51.8198 392.239C51.8198 392.356 51.9373 392.356 51.9373 392.474C51.8198 392.474 51.8198 392.356 51.7023 392.356C51.4673 392.239 51.2323 392.121 50.9972 392.004C49.2346 391.534 47.4719 390.946 45.8268 390.241Z" fill="#263238"/>
<path d="M152.644 139.709C152.409 140.649 149.354 155.103 146.063 167.559C143.713 176.607 141.245 184.598 139.953 185.42C138.425 186.36 130.669 189.768 128.084 190.826C128.084 190.826 110.81 276.961 101.762 303.636C93.4188 328.313 69.6818 375.317 69.6818 375.317L20.5626 348.289C20.5626 348.289 47.4724 301.873 51.7027 289.887C58.1658 271.32 82.1378 180.602 82.1378 180.602C82.1378 180.602 81.9028 152.165 91.5386 139.827H152.644V139.709Z" fill="#37474F"/>
<path d="M71.6808 364.153C64.5127 360.158 66.6279 361.215 59.3423 357.22C55.817 355.34 32.4325 342.649 28.7896 341.356C28.6721 341.356 28.6721 341.474 28.6721 341.474C31.7274 343.824 55.2294 356.045 58.8722 357.925C66.1578 361.685 64.1602 360.51 71.4458 364.271C71.6808 364.388 71.7983 364.271 71.6808 364.153Z" fill="#263238"/>
<path d="M95.0657 172.612C96.4758 172.259 97.886 172.142 99.2961 171.907C100.471 171.672 101.529 171.554 102.704 171.319C104.819 170.849 106.934 170.144 108.697 168.851C110.695 167.324 111.635 164.974 112.575 162.858C113.162 161.566 113.75 160.273 114.337 158.981C114.572 158.393 114.925 157.688 115.16 157.1C115.512 156.395 115.983 155.573 116.218 154.868C116.218 154.75 116.453 154.868 116.335 154.868C116.1 155.338 115.983 155.925 115.865 156.513C115.63 157.1 115.512 157.805 115.277 158.393C114.925 159.568 114.572 160.626 114.22 161.801C113.515 163.798 112.927 165.914 111.87 167.794C109.754 171.084 106.112 172.494 102.351 172.964C101.294 173.082 100.236 173.199 99.1786 173.199C97.886 173.317 96.4758 173.434 95.0657 173.199C94.9482 172.964 94.8307 172.612 95.0657 172.612Z" fill="#263238"/>
<path d="M143.95 183.422C138.427 185.303 133.139 188.005 128.086 190.825C127.851 190.943 127.968 191.296 128.203 191.178C133.491 188.945 139.014 186.713 144.185 184.127C144.655 183.892 144.42 183.305 143.95 183.422Z" fill="#263238"/>
<path d="M145.594 146.994C145.594 146.759 145.241 146.759 145.241 146.994C145.241 153.34 144.889 158.863 144.301 164.738C144.066 167.441 141.834 182.6 137.133 181.542C136.311 181.307 135.958 180.602 135.841 179.427C135.723 178.017 136.193 176.254 136.428 174.727C136.898 171.554 137.368 168.381 137.603 165.208C138.073 159.215 138.191 153.222 137.368 147.229C137.368 146.994 137.016 146.994 137.016 147.229C137.016 155.455 136.781 163.798 135.606 172.024C135.018 176.019 133.02 181.895 137.133 182.482C141.364 183.07 144.066 173.199 144.536 170.496C146.064 162.858 146.182 154.633 145.594 146.994Z" fill="#263238"/>
<path d="M137.251 182.012C136.781 183.07 136.429 184.127 136.194 185.185C135.959 186.008 135.606 186.948 135.724 187.77C135.724 187.888 135.959 188.005 136.076 187.888C136.664 187.183 136.899 186.243 137.134 185.42C137.486 184.48 137.839 183.54 138.192 182.482C138.427 181.66 137.486 181.307 137.251 182.012Z" fill="#263238"/>
<path d="M32.7857 341.473C39.9538 327.96 51.2348 306.808 54.7601 300.227C58.1679 293.647 60.5181 286.714 62.7508 279.545C67.2161 265.092 71.4465 250.638 75.3243 236.067C79.3197 221.496 82.9625 206.807 86.4878 192.118C87.3104 188.475 88.368 184.715 89.073 181.072C89.7781 177.194 89.5431 173.669 89.073 169.791C88.603 166.266 88.4855 162.741 88.9555 159.215C89.5431 155.69 90.3656 152.282 91.4232 148.874C92.0108 147.112 92.5983 145.349 93.1859 143.586C93.3034 143.351 93.5384 143.469 93.5384 143.704C91.4232 150.872 89.1905 158.04 89.6606 165.561C89.8956 169.204 90.8357 172.729 90.8357 176.372C90.7182 180.014 89.7781 183.54 88.9555 187.065C85.5477 201.871 81.7874 216.56 77.9096 231.249C74.0317 245.938 69.8014 260.509 65.4535 274.963C63.3383 282.013 61.3406 289.181 58.2854 295.879C55.2301 302.577 43.7141 323.259 36.076 336.538C35.1359 338.183 34.0783 339.828 33.1382 341.591C32.9032 341.708 32.6682 341.591 32.7857 341.473Z" fill="#263238"/>
<path d="M128.437 64.2676C143.831 72.7284 170.036 88.3572 180.729 89.5323C188.955 90.4724 227.616 64.8552 239.249 54.8668C242.774 51.8116 222.798 29.7197 218.685 32.6574C207.404 40.7656 176.969 59.8023 175.676 60.0373C170.623 60.9774 150.529 55.3369 132.55 51.9291C112.456 48.1688 120.916 60.1548 128.437 64.2676Z" fill="#774442"/>
<path d="M156.404 81.7767L168.625 59.0973C168.625 59.0973 138.543 49.814 124.912 50.8716C111.28 52.0467 119.741 59.2148 126.674 64.0327C133.372 68.8506 156.404 81.7767 156.404 81.7767Z" fill="#C7C7C7"/>
<path d="M156.404 81.7767L168.625 59.0973C168.625 59.0973 138.543 49.814 124.912 50.8716C111.28 52.0467 119.741 59.2148 126.674 64.0327C133.372 68.8506 156.404 81.7767 156.404 81.7767Z" fill="#FE9563"/>
<path d="M168.51 59.2146L168.392 59.4496C168.157 59.3321 167.805 59.2146 167.57 59.0971C167.1 58.9796 166.747 58.7446 166.277 58.627L164.984 58.157C164.514 58.0395 164.044 57.922 163.574 57.8045L162.869 57.687C162.634 57.687 162.399 57.5695 162.164 57.5695C158.521 56.9819 154.644 57.3344 151.118 58.392C147.593 59.4496 144.185 61.2123 141.012 63.0924C138.545 64.6201 136.077 66.2652 133.727 67.9103C133.609 68.0278 133.492 68.1454 133.374 68.1454C133.257 68.2629 133.257 68.2629 133.139 68.2629C133.022 68.1454 132.787 68.0278 132.669 68.0278C132.787 68.0278 132.904 67.9103 132.904 67.9103C133.022 67.7928 133.139 67.7928 133.257 67.6753C135.724 66.0302 138.192 64.2675 140.777 62.7399C143.95 60.8597 147.358 59.0971 151.001 58.0395C154.526 56.9819 158.286 56.7469 161.812 57.2169C164.867 58.0395 167.217 58.7446 168.04 58.9796C168.275 59.0971 168.392 59.0971 168.51 59.2146ZM160.519 73.0808C157.229 74.1384 153.939 75.431 150.766 76.7236C150.178 76.9586 149.473 77.1936 148.886 77.4287C149.121 77.5462 149.238 77.6637 149.473 77.7812C149.943 77.5462 150.531 77.4287 151.001 77.1936C154.174 75.901 157.464 74.6084 160.637 73.4333C160.754 73.4333 160.872 73.3158 160.872 73.3158L161.107 72.7283C160.989 72.8458 160.754 72.9633 160.519 73.0808ZM133.727 67.9103C133.609 67.7928 133.492 67.6753 133.257 67.6753C132.082 66.8527 130.789 66.2652 129.496 65.7952C129.261 65.6777 128.909 65.6776 128.674 65.5601C129.026 65.7951 129.496 66.0302 129.849 66.2652C130.907 66.6177 131.964 67.2053 132.904 67.7928C133.022 67.9103 133.139 68.0278 133.374 68.0278C133.727 68.2629 133.962 68.4979 134.314 68.7329C134.549 68.9679 134.902 69.2029 135.137 69.438C135.607 69.7905 136.194 70.0255 136.782 70.378C136.077 69.673 135.372 68.9679 134.549 68.3804C134.314 68.2629 133.962 68.0278 133.727 67.9103Z" fill="white"/>
<path d="M151.94 78.1335C153.35 74.8432 155.23 71.6704 156.875 68.4976C158.638 65.2074 160.635 62.1521 162.398 58.9793C162.398 58.8618 162.633 58.9793 162.516 59.0968C160.87 62.2696 159.343 65.5599 157.58 68.7327C155.817 71.9054 154.055 75.1957 151.94 78.1335C151.94 78.251 151.94 78.251 151.94 78.1335Z" fill="#263238"/>
<path opacity="0.1" d="M162.633 70.1427L156.405 81.7762C156.405 81.7762 133.491 68.8501 126.558 64.1497C122.327 61.2119 117.627 57.4516 117.627 54.6313L162.633 70.1427Z" fill="black"/>
<path d="M84.1366 148.64C84.3716 148.875 157.58 147.582 158.285 146.76C159.226 145.585 149.002 77.3113 138.661 59.0973C133.726 50.4015 120.212 45.7011 112.339 59.2148C93.5374 91.4126 83.549 147.935 84.1366 148.64Z" fill="#FE9563"/>
<path d="M158.168 144.175C157.815 144.175 157.463 144.175 157.11 144.175C156.875 144.175 156.64 144.175 156.405 144.175H155.7C155.23 144.175 154.76 144.175 154.29 144.057L152.88 143.822C152.41 143.822 151.94 143.705 151.47 143.587C150.53 143.47 149.59 143.117 148.767 142.882C147.827 142.529 147.004 142.294 146.182 141.824C145.359 141.472 144.537 141.002 143.597 140.532C142.774 140.062 141.951 139.592 141.246 139.122C140.424 138.652 139.719 138.064 138.896 137.477C138.191 136.889 137.369 136.301 136.663 135.714C135.841 135.009 135.018 134.304 134.196 133.599C134.078 133.481 133.961 133.481 133.961 133.364C132.081 131.719 130.2 129.956 128.438 128.193C125.735 125.608 123.032 123.023 120.095 120.673C118.684 119.498 117.157 118.44 115.512 117.617C115.159 117.382 114.807 117.265 114.454 117.147C114.337 117.03 114.102 117.03 113.984 116.912C112.809 116.442 111.516 116.09 110.224 115.855C109.754 115.855 109.284 115.737 108.814 115.737H107.403C106.933 115.737 106.463 115.737 105.993 115.855L104.583 115.972L103.878 116.09L103.173 116.207L101.763 116.442C100.823 116.677 100 116.912 99.0602 117.265C98.7077 117.382 98.2377 117.5 97.8851 117.735C97.6501 117.852 97.5326 117.852 97.4151 117.97C96.24 118.44 95.0649 119.027 94.0073 119.615C92.4797 120.438 90.8345 121.143 89.1894 121.848C89.1894 121.73 89.1894 121.613 89.3069 121.613C90.8345 121.025 92.3621 120.203 93.8898 119.38C94.9474 118.792 96.005 118.322 97.0625 117.852C97.1801 117.735 97.4151 117.735 97.5326 117.617C98.0026 117.382 98.4727 117.265 98.9427 117.03C99.8828 116.677 100.705 116.442 101.645 116.207L103.056 115.972L103.761 115.855L104.466 115.737L105.876 115.62C106.346 115.62 106.816 115.62 107.286 115.502H108.696C109.166 115.502 109.636 115.502 110.106 115.62C111.516 115.737 112.809 116.207 114.102 116.677C114.219 116.795 114.454 116.795 114.572 116.912C114.924 117.03 115.159 117.147 115.512 117.382C117.157 118.322 118.684 119.38 120.212 120.555C123.15 122.905 125.853 125.608 128.438 128.193C130.318 130.073 132.198 131.836 134.078 133.599C134.196 133.716 134.313 133.834 134.313 133.834C135.018 134.539 135.841 135.126 136.663 135.831C138.074 137.007 139.601 138.182 141.129 139.122C141.951 139.592 142.774 140.062 143.479 140.532C144.302 140.884 145.124 141.354 146.064 141.707C146.887 142.059 147.827 142.412 148.649 142.765C149.59 143 150.412 143.352 151.352 143.47C151.822 143.587 152.292 143.705 152.762 143.705L154.172 143.822C154.642 143.822 155.113 143.822 155.583 143.94H156.288C156.523 143.94 156.758 143.94 156.993 143.94C157.345 143.94 157.698 143.94 158.05 143.822C158.168 144.057 158.168 144.175 158.168 144.175ZM156.053 127.958C155.935 127.958 155.935 128.076 155.818 128.076C152.762 129.721 149.59 131.131 146.299 132.189C143.009 133.129 139.484 133.599 136.076 133.716C135.488 133.716 134.901 133.716 134.313 133.716C134.196 133.716 134.078 133.716 133.961 133.716C131.258 133.599 128.438 133.129 125.853 132.424C124.207 131.954 122.562 131.366 120.917 130.778C119.272 130.073 117.744 129.368 116.217 128.546C113.396 127.136 110.694 125.373 107.991 123.728C107.873 123.61 107.756 123.61 107.521 123.493C107.403 123.375 107.286 123.375 107.286 123.258C104.348 121.378 101.41 119.615 98.2376 118.087H98.1201C98.0026 117.97 97.8851 117.97 97.7676 117.852C95.6524 116.912 93.3022 116.207 91.0695 115.855C91.0695 115.972 90.952 116.09 90.952 116.207C91.7746 116.325 92.4797 116.442 93.3022 116.677C94.7124 117.03 96.005 117.5 97.2976 117.97C97.4151 117.97 97.5326 118.087 97.6501 118.087C97.7676 118.205 98.0026 118.205 98.1201 118.322C101.293 119.733 104.231 121.495 107.168 123.258C107.286 123.258 107.286 123.375 107.403 123.375C107.521 123.493 107.638 123.493 107.873 123.61C110.576 125.256 113.396 126.901 116.217 128.428C117.744 129.251 119.389 129.956 120.917 130.661C122.562 131.366 124.207 131.954 125.853 132.306C128.555 133.129 131.493 133.599 134.313 133.716C134.431 133.716 134.548 133.716 134.666 133.716C135.136 133.716 135.606 133.716 136.193 133.716C139.719 133.716 143.126 133.246 146.534 132.306C149.942 131.366 153.115 129.956 156.17 128.311C156.053 128.311 156.053 128.076 156.053 127.958ZM151.587 103.634C150.765 103.281 149.942 102.929 149.12 102.694C148.179 102.459 147.357 102.106 146.417 101.989C145.947 101.871 145.477 101.753 145.007 101.753L143.597 101.636C143.126 101.518 142.656 101.636 142.186 101.518H141.481C141.246 101.518 141.011 101.518 140.776 101.518C137.016 101.636 133.256 102.576 129.965 104.339C126.558 105.984 123.62 108.334 120.8 110.802C118.567 112.799 116.452 114.915 114.337 117.03C114.219 117.147 114.102 117.265 113.984 117.382L112.691 118.675C111.046 120.32 109.401 121.965 107.521 123.61C107.403 123.61 107.403 123.728 107.286 123.728C106.346 124.55 105.288 125.373 104.231 126.078C102.703 127.136 101.058 128.076 99.4128 128.663C97.6501 129.368 95.8875 129.603 94.0073 129.603C92.1271 129.603 90.3645 129.368 88.4843 128.781C88.2493 128.663 88.0143 128.663 87.7793 128.546C87.7793 128.663 87.7793 128.781 87.6617 128.898C87.8968 129.016 88.1318 129.016 88.3668 129.133C90.247 129.603 92.1271 129.956 94.0073 129.956H94.7123H95.4174H96.1225L96.8275 129.838L97.5326 129.721C97.7676 129.721 98.0026 129.603 98.2376 129.486L98.9427 129.251C99.1777 129.133 99.4128 129.133 99.6478 129.016C101.41 128.311 103.056 127.371 104.583 126.313C105.641 125.491 106.698 124.668 107.756 123.845C107.873 123.728 107.873 123.728 107.991 123.728C108.344 123.493 108.696 123.14 108.931 122.788C110.341 121.495 111.634 120.203 112.926 118.91C113.396 118.44 113.866 117.97 114.337 117.5C114.454 117.382 114.572 117.265 114.689 117.147C116.804 115.032 118.802 113.034 120.917 111.037C123.737 108.569 126.675 106.219 129.965 104.574C133.256 102.929 136.898 101.871 140.659 101.753C140.894 101.753 141.129 101.753 141.364 101.753H142.069C142.539 101.753 143.009 101.753 143.479 101.871L144.889 101.989C145.359 101.989 145.829 102.106 146.299 102.224C147.239 102.341 148.062 102.694 149.002 102.929C149.825 103.281 150.765 103.516 151.587 103.869C151.587 103.751 151.587 103.634 151.587 103.634ZM140.541 62.8577C138.074 64.3853 135.723 66.0304 133.256 67.5581C133.138 67.6756 133.021 67.6756 132.903 67.7931C132.433 68.1456 131.846 68.4981 131.375 68.8507C128.32 70.9658 125.147 73.081 121.857 74.6087C121.27 74.8437 120.682 75.0787 119.977 75.3137C119.86 75.3137 119.742 75.4312 119.624 75.4312C118.684 75.7838 117.627 76.0188 116.569 76.2538C114.807 76.6063 112.926 76.4888 111.046 76.1363C109.284 75.7838 107.403 75.1962 105.758 74.3736C105.406 74.2561 105.171 74.0211 104.818 73.9036C104.701 74.0211 104.701 74.1386 104.701 74.2561C104.936 74.3736 105.288 74.6087 105.523 74.7262C107.168 75.5487 109.049 76.1363 110.811 76.6063L111.634 76.8414L112.339 76.9589L113.044 77.0764H113.749H114.454C114.689 77.0764 114.924 77.0764 115.159 76.9589L115.864 76.8414C116.099 76.8414 116.334 76.7238 116.569 76.7238C117.744 76.4888 118.919 76.1363 120.095 75.7838C120.212 75.7838 120.33 75.6663 120.447 75.6663C120.917 75.4312 121.505 75.1962 121.975 74.9612C123.737 74.1386 125.265 73.1986 126.91 72.2585C128.555 71.3184 130.083 70.2608 131.611 69.2032C132.198 68.8507 132.668 68.4981 133.256 68.0281C133.373 67.9106 133.491 67.9106 133.608 67.7931C135.958 66.2655 138.191 64.6203 140.541 63.2102C140.659 63.0927 140.541 62.9752 140.541 62.8577ZM145.829 78.604C145.124 78.839 144.419 79.0741 143.832 79.3091C143.714 79.3091 143.597 79.3091 143.597 79.4266C142.774 79.6616 141.951 79.8966 141.011 80.1316C137.604 80.8367 134.196 80.9542 130.788 80.1316C127.38 79.4266 124.09 78.2515 121.27 76.3713C121.035 76.2538 120.8 76.1363 120.682 75.9013C120.447 75.7838 120.33 75.6662 120.212 75.5487C117.744 73.7861 115.512 71.7884 112.809 70.3783C111.281 69.5557 109.636 68.8507 107.991 68.2631C107.873 68.2631 107.873 68.2631 107.873 68.2631C107.873 68.2631 107.873 68.2631 107.873 68.3806C107.873 68.3806 107.873 68.3806 107.873 68.4981C107.991 68.4981 107.991 68.4981 108.108 68.6157C108.931 68.9682 109.754 69.2032 110.576 69.5557C111.399 69.9083 112.104 70.2608 112.926 70.7308C115.512 72.141 117.627 74.1386 120.095 75.9013C120.212 76.0188 120.447 76.1363 120.565 76.2538C120.8 76.4888 121.152 76.6063 121.387 76.8414C124.325 78.839 127.615 80.0141 131.023 80.7192C134.431 81.6593 138.074 81.5418 141.481 80.7192C142.421 80.4842 143.362 80.2491 144.184 80.0141C144.302 80.0141 144.419 80.0141 144.419 79.8966C145.007 79.6616 145.712 79.5441 146.299 79.3091C145.829 78.839 145.829 78.7215 145.829 78.604ZM147.239 84.127C146.534 83.1869 145.947 82.3643 145.359 81.4242C144.889 80.8367 144.537 80.2491 144.067 79.6616C143.949 79.5441 143.832 79.4266 143.714 79.1916C142.069 76.8414 140.424 74.6087 138.544 72.376C137.251 70.9658 135.958 69.5557 134.548 68.3806C134.313 68.1456 134.078 67.9106 133.726 67.7931C133.608 67.6756 133.491 67.5581 133.256 67.5581C132.081 66.7355 130.788 66.1479 129.495 65.6779C129.025 65.5604 128.555 65.4429 128.085 65.3254L126.675 65.0904C126.205 64.9728 125.735 64.9728 125.265 64.8553L123.855 64.7378H123.15H122.445H121.035C120.095 64.8553 119.154 64.8553 118.214 65.0904C116.334 65.3254 114.572 65.9129 112.691 66.383C111.046 66.853 109.284 67.4406 107.521 67.7931C107.521 67.9106 107.521 67.9106 107.403 68.0281C107.403 68.0281 107.403 68.0281 107.403 68.1456C107.521 68.1456 107.521 68.1456 107.638 68.1456C109.401 67.7931 111.046 67.323 112.809 66.853C114.572 66.383 116.452 65.7954 118.214 65.5604C119.154 65.4429 120.095 65.3254 121.035 65.3254H123.15H123.855L125.265 65.4429C125.735 65.4429 126.205 65.5604 126.675 65.6779L128.085 65.9129C128.555 66.0304 129.025 66.1479 129.378 66.2655C130.67 66.618 131.728 67.2055 132.903 67.9106C133.021 68.0281 133.138 68.1456 133.373 68.1456C133.726 68.3806 133.961 68.6156 134.313 68.8507C135.723 70.0258 137.133 71.3184 138.309 72.7285C140.189 74.8437 141.834 77.0764 143.479 79.3091C143.597 79.4266 143.714 79.5441 143.832 79.7791C144.302 80.3667 144.772 81.0717 145.124 81.6593C145.947 82.7169 146.652 83.7745 147.474 84.832C147.357 84.597 147.239 84.362 147.239 84.127Z" fill="white"/>
<path d="M133.727 64.8557C130.437 65.2082 123.269 59.6852 120.214 54.6323C119.978 54.2798 120.331 50.637 120.566 46.0541C120.684 43.3513 120.801 40.2961 120.684 37.4758L138.31 40.8836C138.31 40.8836 136.9 46.7591 137.135 51.6946C137.135 52.0471 137.252 52.5171 137.252 52.8697C137.252 52.8697 137.252 52.9872 137.252 53.1047C137.84 55.2199 138.898 64.2681 133.727 64.8557Z" fill="#774442"/>
<path d="M120.683 45.349C124.443 50.4019 130.084 55.3374 137.605 54.1623C137.487 53.6922 137.487 53.3397 137.37 53.1047C137.37 52.9872 137.37 52.9872 137.37 52.8697C137.252 52.5171 137.252 52.1646 137.252 51.6946C137.017 46.8766 138.427 40.8836 138.427 40.8836L120.801 37.4758C120.918 40.0611 120.801 42.7638 120.683 45.349Z" fill="#263238"/>
<path d="M116.102 17.6164C114.457 23.962 118.687 41.706 123.27 45.4663C129.968 50.9893 140.427 50.9893 145.01 43.1161C149.357 35.478 143.599 12.446 138.546 9.03822C130.908 3.98529 118.452 8.33315 116.102 17.6164Z" fill="#774442"/>
<path d="M133.61 26.7822L133.493 26.8997C133.845 28.0748 134.08 29.485 133.14 30.19V30.3075C134.433 29.6025 134.198 27.7223 133.61 26.7822Z" fill="#263238"/>
<path d="M132.2 25.7249C130.203 26.0774 131.143 29.9552 132.905 29.6027C134.785 29.3677 133.845 25.4898 132.2 25.7249Z" fill="#263238"/>
<path d="M140.663 24.7847C140.663 24.7847 140.781 24.9022 140.663 24.7847C141.016 26.0773 141.486 27.3699 142.661 27.6049V27.7224C141.251 27.8399 140.663 25.9598 140.663 24.7847Z" fill="#263238"/>
<path d="M141.368 23.3748C143.248 22.7873 144.305 26.5476 142.543 27.1352C140.897 27.6052 139.84 23.8449 141.368 23.3748Z" fill="#263238"/>
<path d="M130.321 24.3148C130.791 24.0798 131.261 23.7272 131.731 23.4922C132.201 23.1397 132.671 22.9047 132.906 22.3171C133.023 21.9646 132.788 21.4945 132.553 21.377C131.848 21.0245 131.143 21.2595 130.438 21.612C129.733 22.0821 129.263 22.5521 129.028 23.2572C128.793 24.0798 129.616 24.6673 130.321 24.3148Z" fill="#263238"/>
<path d="M142.425 21.4947C141.837 21.4947 141.367 21.4947 140.779 21.4947C140.192 21.4947 139.604 21.4947 139.134 21.1421C138.899 20.9071 138.782 20.4371 138.899 20.0845C139.252 19.3795 140.074 19.262 140.779 19.262C141.602 19.262 142.19 19.497 142.895 19.967C143.6 20.4371 143.13 21.4947 142.425 21.4947Z" fill="#263238"/>
<path d="M135.139 38.0633C135.492 38.2983 135.844 38.6509 136.314 38.5334C136.784 38.4158 137.137 38.1808 137.49 37.9458H137.607C137.372 38.5334 136.784 38.8859 136.197 39.0034C135.609 39.0034 135.257 38.6509 135.139 38.0633C135.022 38.0633 135.022 38.0633 135.139 38.0633Z" fill="#263238"/>
<path d="M135.492 34.1858C136.432 35.1259 137.49 35.3609 138.665 35.3609C139.135 35.3609 139.722 35.2434 140.192 35.1259C140.31 35.1259 140.428 35.1259 140.428 35.0084C140.545 35.0084 140.545 34.8909 140.663 34.8909C140.78 34.8909 140.898 34.6559 140.898 34.5384V34.4209V34.3034C140.663 33.3633 140.31 31.9532 140.31 31.9532C140.663 32.0707 142.543 32.4232 142.425 31.9532C141.25 28.0753 139.957 23.6099 137.96 19.9671C137.842 19.8496 137.725 19.9671 137.725 20.0846C138.665 23.845 140.31 27.4878 141.368 31.3656C140.78 31.2481 139.84 31.1306 139.252 31.2481C139.135 31.3656 140.075 33.9508 140.192 34.3034C138.665 34.8909 137.372 34.6559 135.727 33.9508C135.492 34.0683 135.375 34.1858 135.492 34.1858Z" fill="#263238"/>
<path d="M139.486 34.7736C139.486 34.7736 138.899 36.0662 137.959 36.7713C137.606 37.0063 137.136 37.1238 136.666 37.1238C135.608 37.1238 135.373 36.1837 135.373 35.4787C135.373 34.7736 135.491 34.186 135.491 34.186C135.491 34.186 137.254 35.1261 139.486 34.7736Z" fill="#263238"/>
<path d="M137.959 36.7711C137.606 37.0061 137.136 37.1236 136.666 37.1236C135.608 37.1236 135.373 36.1836 135.373 35.4785C136.431 35.2435 137.606 35.7135 137.959 36.7711Z" fill="#FF99BA"/>
<path d="M117.159 32.7753C116.454 31.2477 109.639 14.5612 109.874 12.5636C109.991 10.8009 111.989 11.1534 111.989 11.0359C111.989 10.9184 111.871 9.39079 112.694 8.56822C113.516 7.86316 114.809 8.33319 114.809 8.33319C114.809 8.33319 114.809 6.68805 115.867 5.98299C116.807 5.39544 117.982 6.10051 117.982 6.10051C117.982 6.10051 118.099 4.45536 119.392 3.86781C120.685 3.28026 121.507 4.33785 121.507 4.33785C121.507 4.33785 121.742 2.69271 122.8 2.22267C123.857 1.75263 124.915 2.81022 124.915 2.81022C124.915 2.81022 125.267 1.28259 126.56 1.04757C127.853 0.812549 128.558 2.22267 128.558 2.22267C128.558 2.22267 129.145 0.695039 130.32 0.460019C131.495 0.224999 132.2 1.75263 132.2 1.75263C132.2 1.75263 132.553 0.342512 133.728 0.225002C134.903 0.107492 135.373 1.75263 135.373 1.75263C135.373 1.75263 135.491 0.460015 136.901 0.695036C139.134 1.04757 141.719 11.8585 142.894 16.2064C142.894 16.2064 141.484 13.0336 140.661 13.1511C139.721 13.2686 139.251 14.6787 137.723 15.3838C135.491 16.3239 131.025 14.0912 127.853 15.2663C124.797 16.4414 122.917 20.0842 122.565 25.2546C122.095 31.0126 118.804 36.4181 117.159 32.7753Z" fill="#263238"/>
<path d="M120.566 32.0701C120.566 32.0701 116.101 26.5472 113.633 28.1923C111.165 29.8374 114.691 37.9456 117.863 38.8857C121.036 39.8258 121.976 36.888 121.976 36.888L120.566 32.0701Z" fill="#774442"/>
<path d="M114.69 30.542C116.923 31.3646 118.216 33.2447 119.156 35.2424C118.451 34.5373 117.511 34.0673 116.57 34.8899C116.57 34.8899 116.57 35.0074 116.688 35.0074C117.511 34.7724 118.216 34.8899 118.803 35.4774C119.273 35.9475 119.626 36.535 119.978 37.1226C120.096 37.3576 120.448 37.2401 120.331 37.005C120.096 34.3023 117.746 30.542 114.69 30.542Z" fill="#263238"/>
<path d="M138.544 55.5728C138.427 55.4552 138.544 55.4552 138.544 55.5728C139.249 58.9805 140.777 66.8537 135.371 67.2063C133.139 67.3238 131.024 66.3837 129.143 65.2086C127.263 64.151 125.501 62.7409 123.855 61.3308C122.093 59.6856 120.213 58.0405 118.685 56.0428C118.567 55.9253 118.45 56.0428 118.567 56.1603C120.213 58.0405 121.623 60.0381 123.385 61.8008C125.148 63.4459 127.028 64.9736 129.143 66.1487C131.141 67.2062 133.491 68.2638 135.724 67.9113C137.957 67.6763 139.249 66.0312 139.602 63.916C139.954 61.2132 139.367 58.158 138.544 55.5728Z" fill="#263238"/>
<path d="M305.396 29.0207L140.653 44.3862L152.909 175.783L317.651 160.417L305.396 29.0207Z" fill="#263238"/>
<path d="M209.874 129.486L205.526 82.8347L255.585 101.636L209.874 129.486Z" fill="#FE9563"/>
<path d="M158.301 49.3831L148.59 50.2888L149.234 57.1921L158.945 56.2864L158.301 49.3831Z" fill="#FE9563"/>
<path d="M159.601 63.3676L149.89 64.2734L150.534 71.1767L160.245 70.2709L159.601 63.3676Z" fill="#FE9563"/>
<path d="M160.89 77.2346L151.179 78.1404L151.822 85.0437L161.534 84.1379L160.89 77.2346Z" fill="#FE9563"/>
<path d="M162.179 91.1011L152.467 92.0068L153.111 98.9101L162.822 98.0044L162.179 91.1011Z" fill="#FE9563"/>
<path d="M163.478 105.086L153.767 105.991L154.411 112.895L164.122 111.989L163.478 105.086Z" fill="#FE9563"/>
<path d="M164.767 118.953L155.056 119.859L155.699 126.762L165.411 125.857L164.767 118.953Z" fill="#FE9563"/>
<path d="M166.056 132.82L156.344 133.726L156.988 140.629L166.7 139.724L166.056 132.82Z" fill="#FE9563"/>
<path d="M167.472 146.793L157.761 147.699L158.405 154.602L168.116 153.696L167.472 146.793Z" fill="white"/>
<path d="M168.761 160.661L159.049 161.566L159.693 168.47L169.405 167.564L168.761 160.661Z" fill="white"/>
<path d="M298.613 36.3334L288.902 37.2393L289.546 44.1425L299.257 43.2367L298.613 36.3334Z" fill="#FE9563"/>
<path d="M299.902 50.2011L290.19 51.1069L290.834 58.0102L300.546 57.1044L299.902 50.2011Z" fill="#FE9563"/>
<path d="M301.2 64.1853L291.489 65.0911L292.133 71.9943L301.844 71.0885L301.2 64.1853Z" fill="#FE9563"/>
<path d="M302.489 78.0522L292.778 78.958L293.422 85.8613L303.133 84.9555L302.489 78.0522Z" fill="#FE9563"/>
<path d="M303.779 91.9191L294.067 92.825L294.711 99.7282L304.423 98.8224L303.779 91.9191Z" fill="#FE9563"/>
<path d="M305.079 105.903L295.367 106.809L296.011 113.712L305.722 112.807L305.079 105.903Z" fill="#FE9563"/>
<path d="M306.366 119.77L296.655 120.676L297.299 127.579L307.01 126.674L306.366 119.77Z" fill="#FE9563"/>
<path d="M307.655 133.638L297.943 134.543L298.587 141.447L308.299 140.541L307.655 133.638Z" fill="#FE9563"/>
<path d="M308.955 147.621L299.243 148.527L299.887 155.43L309.598 154.525L308.955 147.621Z" fill="#FE9563"/>
<path d="M126.087 73.081C129.26 82.2468 141.716 119.615 143.479 121.378C150.882 128.193 169.683 140.297 171.916 142.764C175.089 146.172 160.988 167.089 156.052 166.501C154.055 166.266 128.907 149.815 121.152 141.707C114.924 135.244 111.633 93.5277 111.398 74.1386C111.398 57.4521 119.859 55.2195 126.087 73.081Z" fill="#774442"/>
<path d="M111.987 105.513L137.604 103.751C137.604 103.751 129.496 73.3157 121.27 62.3872C113.044 51.4588 111.399 62.5047 111.047 70.8479C110.694 79.1912 111.987 105.513 111.987 105.513Z" fill="#FE9563"/>
<path d="M137.133 102.106C134.901 102.459 132.668 103.281 130.67 104.339L129.73 104.456C129.848 104.339 129.965 104.339 129.965 104.339C132.198 103.164 134.548 102.341 137.016 101.989C137.016 101.871 137.133 101.989 137.133 102.106ZM126.675 72.0236C125.147 72.9637 123.502 73.9037 121.857 74.6088C121.269 74.8438 120.682 75.0788 119.977 75.3139C119.859 75.3139 119.742 75.4314 119.624 75.4314C118.684 75.7839 117.627 76.0189 116.569 76.2539C114.806 76.6065 112.926 76.489 111.046 76.1364C111.046 76.1364 111.046 76.1364 110.929 76.1364V76.6065L111.634 76.8415L112.339 76.959L113.044 77.0765H113.749H114.454C114.689 77.0765 114.924 77.0765 115.159 76.959L115.864 76.8415C116.099 76.8415 116.334 76.724 116.569 76.724C117.744 76.489 118.919 76.1364 120.094 75.7839C120.212 75.7839 120.329 75.6664 120.447 75.6664C120.917 75.4314 121.504 75.1963 121.974 74.9613C123.62 74.2563 125.265 73.3162 126.792 72.3761C126.792 72.3761 126.675 72.1411 126.675 72.0236ZM129.848 79.7792C126.792 79.0742 123.737 77.8991 121.152 76.1364C120.917 76.0189 120.682 75.9014 120.564 75.6664C120.329 75.5489 120.212 75.4314 120.094 75.3139C117.627 73.5512 115.394 71.5535 112.691 70.1434C112.221 69.9084 111.751 69.6734 111.164 69.4384C111.164 69.5559 111.164 69.5559 111.164 69.6734C111.634 69.9084 112.104 70.1434 112.574 70.3784C115.159 71.7886 117.274 73.7862 119.742 75.5489C119.859 75.6664 120.094 75.7839 120.212 75.9014C120.447 76.1364 120.799 76.2539 121.034 76.489C123.737 78.3691 126.91 79.5442 130.083 80.2493C129.965 80.1318 129.848 79.8968 129.848 79.7792ZM122.915 64.8555H122.562H121.152C120.212 64.973 119.272 64.973 118.332 65.208C116.451 65.443 114.689 66.0306 112.809 66.5006C112.339 66.6181 111.751 66.8531 111.281 66.9707C111.281 67.0882 111.281 67.2057 111.281 67.2057C111.869 67.0882 112.339 66.8531 112.926 66.7356C114.689 66.2656 116.569 65.678 118.332 65.443C119.272 65.3255 120.212 65.208 121.152 65.208H123.15C123.032 65.0905 123.032 64.973 122.915 64.8555Z" fill="white"/>
<path d="M112.574 99.756C116.099 99.1684 119.742 99.0509 123.385 98.8159C127.027 98.5809 130.788 98.5809 134.431 98.4634C134.548 98.4634 134.548 98.5809 134.431 98.6984C130.788 99.0509 127.262 99.521 123.62 99.6385C119.977 99.8735 116.334 100.109 112.574 99.756C112.574 99.8735 112.574 99.756 112.574 99.756Z" fill="#263238"/>
<path d="M109.989 83.892C110.224 85.4197 110.459 86.9473 110.811 88.4749C110.811 85.3022 110.811 82.0119 110.929 78.8391C110.929 78.7216 111.046 78.7216 111.046 78.8391C111.399 83.3045 111.634 87.7699 111.751 92.2353C111.869 96.5831 112.222 100.931 111.986 105.161C112.339 105.161 112.574 105.161 112.927 105.279C113.044 105.279 113.044 105.514 112.927 105.514C112.574 105.514 112.104 105.631 111.751 105.631C111.634 105.631 111.516 105.514 111.516 105.396C111.046 100.931 110.929 96.4656 110.929 92.0002C110.929 91.2952 110.929 90.5901 110.929 89.7675C110.459 87.7699 110.106 85.7722 109.871 83.7745C109.754 83.7745 109.989 83.657 109.989 83.892Z" fill="#263238"/>
<path d="M136.663 103.869L137.603 103.752L137.486 103.869C136.781 101.989 136.076 100.109 135.488 98.1113C134.901 96.2311 134.195 94.2335 133.608 92.3533C133.02 90.4731 132.433 88.4755 131.963 86.4778C131.493 84.4801 130.905 82.6 130.553 80.6023C131.258 82.4825 131.963 84.3626 132.668 86.3603C133.373 88.2405 133.96 90.2381 134.548 92.1183C135.136 93.9984 135.723 95.9961 136.193 97.9938C136.663 99.9915 137.251 101.872 137.721 103.869V103.987H137.603L136.663 103.869Z" fill="#263238"/>
<path d="M132.785 82.7168C133.02 83.6569 133.138 84.597 133.255 85.6545C133.255 86.5946 133.255 87.6522 133.138 88.5923C132.903 87.6522 132.785 86.7121 132.668 85.6545C132.55 84.7145 132.55 83.7744 132.785 82.7168Z" fill="#263238"/>
<path d="M184.256 154.398C183.081 152.871 183.904 152.283 187.194 153.106C190.484 154.046 202.706 160.509 204.703 156.043C206.583 151.578 189.192 142.765 183.551 141.59C177.911 140.415 168.51 140.65 168.51 140.65C171.565 143 178.381 149.58 184.256 154.398Z" fill="#774442"/>
<path d="M153.351 164.857C162.164 172.73 172.74 179.898 185.078 181.073C187.546 181.308 188.956 180.251 188.956 180.251C194.479 180.956 196.359 178.488 196.359 178.488C201.647 177.548 203.292 174.845 203.292 174.845C203.292 174.845 207.758 174.845 207.993 171.672C208.228 168.617 201.06 166.149 196.007 162.977C184.373 155.691 171.565 143 168.392 140.532L153.351 164.857Z" fill="#774442"/>
<path d="M180.143 164.974C183.668 167.09 186.959 169.205 190.719 170.85C194.832 172.613 199.062 173.67 203.293 174.728C203.41 174.728 203.41 174.963 203.293 174.963C195.184 174.14 186.371 170.262 180.026 165.092C179.908 164.974 179.908 164.857 180.143 164.974Z" fill="#263238"/>
<path d="M174.738 171.32C178.263 173.2 184.374 176.372 196.477 178.37V178.488C188.487 178.253 181.318 175.785 174.62 171.555C174.385 171.32 174.503 171.202 174.738 171.32Z" fill="#263238"/>
<path d="M171.799 174.846C177.792 177.783 182.023 178.841 188.956 180.251V180.368C180.965 179.546 178.145 178.371 171.682 175.081C171.447 174.963 171.564 174.728 171.799 174.846Z" fill="#263238"/>
<path d="M215.513 31.9529C219.979 29.8377 225.384 24.5498 229.027 24.0797C232.317 23.7272 233.492 26.4299 233.492 26.4299C233.492 26.4299 235.255 22.7871 238.663 22.9046C240.425 23.0221 241.836 25.8424 241.836 25.8424C241.836 25.8424 243.363 23.0222 246.301 23.2572C248.651 23.4922 249.709 26.3124 249.709 26.3124C249.709 26.3124 252.411 24.3148 254.762 25.2548C259.462 27.37 259.58 47.6993 252.059 50.872C248.534 52.3997 248.769 47.3467 248.769 47.3467C248.769 47.3467 246.653 54.3973 242.423 54.5148C238.193 54.6324 238.898 48.1693 238.898 48.1693C238.898 48.1693 236.783 54.9849 232.435 54.7499C227.852 54.3973 229.732 48.0518 229.732 48.0518C229.732 48.0518 226.677 52.6347 223.386 51.5771C217.981 49.932 224.797 41.3537 223.621 36.7708L216.218 34.3031L215.513 31.9529Z" fill="#774442"/>
<path d="M221.859 27.7229C217.511 29.368 212.106 23.9626 207.758 24.9027C201.765 26.1953 207.64 32.8933 216.336 34.3035H223.269L221.859 27.7229Z" fill="#774442"/>
<path d="M249.827 26.6653C249.827 26.5478 249.944 26.5478 249.827 26.6653C251.59 33.3634 251.355 41.2365 248.769 47.6996C248.652 47.9346 248.299 47.8171 248.299 47.5821C249.709 40.414 250.415 33.9509 249.827 26.6653Z" fill="#263238"/>
<path d="M241.718 25.6077C241.718 25.4902 241.835 25.4902 241.835 25.6077C243.48 32.5408 243.01 41.354 239.133 48.4046C239.015 48.6396 238.663 48.7572 238.78 48.4046C241.013 43.5867 242.305 32.1882 241.718 25.6077Z" fill="#263238"/>
<path d="M229.38 48.522C232.788 41.5889 233.728 34.3033 233.493 26.5476C233.493 26.4301 233.61 26.4301 233.61 26.5476C234.668 30.3079 234.315 35.1258 233.728 39.0037C233.14 42.6465 231.848 45.8193 229.615 48.6395C229.498 48.757 229.263 48.6395 229.38 48.522Z" fill="#263238"/>
</svg>
