<svg width="486" height="346" viewBox="0 0 486 346" fill="none" xmlns="http://www.w3.org/2000/svg">
<path d="M49.1625 328.44L33.7687 328.793L25.8955 328.91C23.3103 328.91 20.6075 328.91 18.0223 329.028H17.5523V328.558L17.4348 315.397V314.809H18.0223L33.5336 314.927C38.7041 314.927 43.8745 315.044 49.045 315.162H49.3975V315.514C49.3975 317.747 49.28 319.98 49.28 322.212L49.1625 328.44ZM49.1625 328.44L49.045 321.742C49.045 319.51 48.9275 317.394 48.9275 315.279L49.28 315.632C44.1095 315.749 38.9391 315.867 33.7687 315.867L18.2573 315.984L18.8449 315.397L18.7274 328.558L18.2573 328.088C20.8425 328.088 23.4278 328.088 25.8955 328.205L33.6511 328.323L49.1625 328.44Z" fill="#EBEBEB"/>
<path d="M31.7712 345.01L16.3773 345.362L8.50416 345.48C5.91894 345.48 3.21621 345.48 0.630992 345.597H0.160951V345.127L0.0434418 331.966V331.378H0.630992L16.1423 331.496C21.3128 331.496 26.4832 331.613 31.6536 331.731H32.0062V332.083C32.0062 334.316 31.8887 336.549 31.8887 338.782L31.7712 345.01ZM31.7712 345.01L31.6536 338.312C31.6536 336.079 31.5361 333.964 31.5361 331.848L31.8887 332.201C26.7182 332.319 21.5478 332.436 16.3773 332.436L0.866012 332.554L1.45356 331.966L1.21854 345.01L0.748501 344.54C3.33372 344.54 5.91895 344.54 8.38666 344.657L16.1423 344.775L31.7712 345.01Z" fill="#EBEBEB"/>
<path d="M66.5539 331.848H35.4137V345.009H66.5539V331.848Z" fill="#EBEBEB"/>
<path d="M420.378 142.892L404.985 143.245L397.111 143.362C394.526 143.362 391.823 143.362 389.238 143.48H388.768V143.01L388.651 129.849V129.261H389.238L404.749 129.379C409.92 129.379 415.09 129.496 420.261 129.614H420.613V129.966C420.613 132.199 420.496 134.431 420.496 136.664L420.378 142.892ZM420.378 142.892L420.261 136.194C420.261 133.961 420.143 131.846 420.143 129.731L420.496 130.084C415.325 130.201 410.155 130.319 404.985 130.319L389.473 130.436L390.061 129.849L389.943 143.01L389.473 142.54C392.058 142.54 394.644 142.54 397.111 142.657L404.867 142.775L420.378 142.892Z" fill="#FE9563"/>
<path d="M402.987 159.46L387.593 159.813L379.72 159.93C377.134 159.93 374.432 159.93 371.846 160.048H371.376V159.578L371.259 146.417V145.829H371.846L387.358 145.947C392.528 145.947 397.699 146.064 402.869 146.182H403.222V146.534C403.222 148.767 403.104 151 403.104 153.232L402.987 159.46ZM402.987 159.46L402.869 152.762C402.869 150.529 402.751 148.414 402.751 146.299L403.104 146.652C397.934 146.769 392.763 146.887 387.593 146.887L372.081 147.004L372.669 146.417L372.551 159.578L372.081 159.108C374.667 159.108 377.252 159.108 379.72 159.225L387.475 159.343L402.987 159.46Z" fill="#FE9563"/>
<path d="M437.768 146.417H406.628V159.578H437.768V146.417Z" fill="#FE9563"/>
<path d="M467.616 331.848H436.476V345.009H467.616V331.848Z" fill="#EBEBEB"/>
<path d="M467.616 1.40942H436.476V14.5706H467.616V1.40942Z" fill="#FE9563"/>
<path d="M485.008 31.14L469.615 31.4925L461.741 31.61C459.156 31.61 456.453 31.61 453.868 31.7275H453.398V31.2575L453.281 18.0963V17.5088H453.868L469.38 17.6263C474.55 17.6263 479.72 17.7438 484.891 17.8613H485.243V18.2139C485.243 20.4465 485.126 22.6792 485.126 24.9119L485.008 31.14ZM485.008 31.14L484.891 24.4419C484.891 22.2092 484.773 20.094 484.773 17.9788L485.126 18.3314C479.955 18.4489 474.785 18.5664 469.615 18.5664L454.103 18.6839L454.691 18.0963L454.573 31.2575L454.103 30.7874C456.688 30.7874 459.274 30.7874 461.741 30.9049L469.497 31.0225L485.008 31.14Z" fill="#EBEBEB"/>
<path d="M31.7709 14.5706L16.3771 14.9231L8.50394 15.0407C5.91871 15.0407 3.21598 15.0407 0.630763 15.1582H0.160722V14.6881L0.0432129 1.527V0.939453H0.630763L16.1421 1.05696C21.3125 1.05696 26.483 1.17447 31.6534 1.29198H32.0059V1.64451C32.0059 3.8772 31.8884 6.10989 31.8884 8.34259L31.7709 14.5706ZM31.7709 14.5706L31.6534 7.87254C31.6534 5.63985 31.5359 3.52467 31.5359 1.40949L31.8884 1.76202C26.718 1.87953 21.5476 1.99704 16.3771 1.99704L0.865783 2.11455L1.45333 1.527L1.33582 14.6881L0.865783 14.2181C3.451 14.2181 6.03622 14.2181 8.50394 14.3356L16.2596 14.4531L31.7709 14.5706Z" fill="#EBEBEB"/>
<path d="M44.7983 248.858H75.9385V235.697H44.7983V248.858Z" fill="#EBEBEB"/>
<path d="M62.2062 219.038L77.6 218.686L85.4732 218.568C88.0584 218.568 90.7611 218.568 93.3464 218.451H93.8164V218.921L93.9339 232.2V232.787H93.3464L77.835 232.67C72.6646 232.67 67.4941 232.552 62.3237 232.435H61.9712V232.082C61.9712 229.849 62.0887 227.617 62.0887 225.384L62.2062 219.038ZM62.2062 219.038L62.3237 225.737C62.3237 227.969 62.4412 230.084 62.4412 232.2L62.0887 231.847C67.2591 231.73 72.4296 231.612 77.6 231.612L93.1113 231.495L92.7588 232.2L92.8763 219.038L93.3464 219.509C90.7611 219.509 88.1759 219.509 85.7082 219.391L77.9525 219.273L62.2062 219.038Z" fill="#EBEBEB"/>
</svg>
