<svg width="241" height="300" viewBox="0 0 241 300" fill="none" xmlns="http://www.w3.org/2000/svg">
<path d="M129.646 174.655L126.944 190.752L108.821 288.462H105.894L119.065 190.752L120.978 174.655H129.646Z" fill="#DBDBDB"/>
<path d="M120.979 174.655H129.647L126.945 190.752H119.065L120.979 174.655Z" fill="#A6A6A6"/>
<path d="M186.382 288.462H183.455L165.444 190.752L162.742 174.655H171.297L173.211 190.752L186.382 288.462Z" fill="#999999"/>
<path d="M171.298 174.655L173.211 190.752H165.444L162.742 174.655H171.298Z" fill="#A6A6A6"/>
<path d="M240.754 288.462H237.827L219.703 190.752L217.002 174.655H225.557L227.583 190.752L240.754 288.462Z" fill="#999999"/>
<path d="M227.583 190.752H219.703L217.001 174.655H225.556L227.583 190.752Z" fill="#A6A6A6"/>
<path d="M236.138 182.197H103.419V168.238H153.062L169.835 95.5183H231.073L236.138 182.197Z" fill="#999999"/>
<path d="M236.138 182.197H228.821L224.093 95.5183H231.073L236.138 182.197Z" fill="#A6A6A6"/>
<path d="M90.4723 298.705C92.9488 299.606 166.456 299.606 169.271 297.805C169.608 297.58 169.608 288.687 169.834 281.82C170.171 271.464 156.213 225.085 156.213 225.085L110.622 227.336L123.23 274.053C123.23 274.053 112.761 278.668 104.093 282.833C98.8024 285.31 94.0745 287.674 93.0613 288.462C90.1345 290.6 87.8832 297.805 90.4723 298.705Z" fill="#F7A9A0"/>
<path d="M90.4728 298.705C92.9493 299.606 166.457 299.606 169.271 297.805C169.609 297.58 169.722 290.938 169.834 281.82C151.598 285.535 103.081 291.388 101.73 287.561C101.167 285.985 102.405 284.296 104.094 282.72C98.8029 285.197 94.075 287.561 93.0619 288.349C90.1351 290.6 87.8837 297.805 90.4728 298.705Z" fill="#263238"/>
<path d="M199.327 152.703C190.321 161.709 151.71 180.17 148.783 186.587C146.194 192.328 164.092 253.79 164.092 253.79L119.965 262.233C119.965 262.233 93.5116 190.301 100.153 168.125C106.457 147.525 176.925 107.225 176.925 107.225H205.293C205.293 107.225 217.113 135.03 199.327 152.703Z" fill="#F7A9A0"/>
<path opacity="0.1" d="M109.721 154.729C125.931 160.583 148.22 170.039 164.205 175.104C176.925 167.337 193.81 158.219 199.439 152.703C217.225 135.03 205.405 107.225 205.405 107.225H177.038C177.038 107.225 130.547 133.679 109.721 154.729Z" fill="black"/>
<path d="M1.99354 285.873C4.58263 286.436 77.4149 276.529 79.8914 274.503C80.2292 274.278 79.4412 267.636 78.3155 258.631L91.2609 203.585L43.3064 209.438L28.2222 256.717C28.2222 256.717 21.468 263.134 13.4756 268.312C8.52254 271.464 4.24491 274.391 3.23179 275.404C0.642693 277.88 -0.595558 285.31 1.99354 285.873Z" fill="#F7A9A0"/>
<path d="M1.99291 285.873C4.58201 286.436 77.4143 276.529 79.8908 274.503C80.2285 274.278 79.4405 267.637 78.3148 258.631C60.754 264.822 13.475 277.092 11.5613 273.49C10.7733 272.027 11.7864 270.226 13.2498 268.425C8.29679 271.576 4.01915 274.503 3.00603 275.516C0.642075 277.88 -0.596184 285.31 1.99291 285.873Z" fill="#263238"/>
<path d="M33.1747 240.845L80.5663 249.175L100.153 189.288C99.5906 168.913 102.517 161.484 114.112 157.882C133.699 151.803 181.428 174.204 203.154 159.232C220.715 147.075 206.756 107.225 206.756 107.225H155.988C155.988 107.225 149.909 114.655 148.671 119.045C148.671 119.045 85.7445 114.205 71.6734 132.103C52.5366 155.968 33.1747 240.845 33.1747 240.845Z" fill="#F7A9A0"/>
<path d="M136.852 158.219C131.899 157.206 126.833 156.643 121.655 156.643C119.066 156.643 116.477 156.868 114 157.431C112.762 157.656 111.524 158.106 110.285 158.669C109.047 159.232 107.921 159.795 106.908 160.583C105.783 161.371 104.882 162.272 103.981 163.285C103.193 164.298 102.518 165.423 101.955 166.662C100.942 169.026 100.379 171.615 100.041 174.204C99.4786 179.269 99.5912 184.448 99.9289 189.513C99.9289 186.924 100.041 184.448 100.154 181.859C100.267 179.382 100.492 176.793 100.829 174.316C101.28 171.84 101.73 169.363 102.743 167.112C103.756 164.861 105.332 162.947 107.358 161.596C108.372 160.921 109.497 160.245 110.623 159.795C111.749 159.232 112.874 158.894 114.113 158.669C116.589 158.106 119.066 157.881 121.542 157.769C124.019 157.656 126.608 157.656 129.084 157.881C131.899 157.656 134.375 157.994 136.852 158.219Z" fill="#263238"/>
<path d="M206.531 107.113C206.531 107.113 220.377 143.248 206.531 156.531C192.685 169.814 176.475 167.562 137.751 159.232C137.751 159.232 117.939 134.129 106.232 129.064C94.5248 123.998 83.7182 123.548 83.7182 123.548C83.7182 123.548 106.232 116.231 148.22 117.807C148.22 117.807 151.372 111.165 155.762 107.113H206.531Z" fill="#263238"/>
<path d="M157.452 80.5464C160.379 82.7977 163.193 84.4863 165.895 85.8371C161.28 78.0698 161.955 60.6216 162.518 63.0981C165.219 75.0305 172.649 88.0885 175.576 88.7639C183.231 89.777 190.21 87.6382 196.063 84.4863C190.097 75.7059 190.435 57.9199 190.773 59.0456C195.163 70.6403 204.056 77.3944 205.632 77.3944C211.373 71.8785 214.412 66.3626 213.624 65.7998C207.658 61.7473 202.592 51.2784 197.977 40.2466C193.474 29.3274 191.11 18.971 184.806 9.17746C178.953 0.284489 167.358 -1.40404 160.717 3.09873C143.381 15.0311 153.737 77.6196 157.452 80.5464Z" fill="#263238"/>
<path d="M175.463 3.54905C180.304 4.67475 184.244 9.06495 186.72 13.1174C190.097 18.5208 192.236 24.5995 195.05 30.3405C200.453 41.5975 207.32 52.0664 215.988 61.0719C216.213 61.2971 215.875 61.5222 215.65 61.4097C206.307 54.4304 199.891 44.2991 194.712 33.9427C192.011 28.652 189.985 23.1361 187.395 17.7328C186.045 14.806 184.356 11.9918 182.33 9.51523C180.304 7.15127 177.94 5.68787 175.125 4.33704C174.788 4.1119 175.013 3.43648 175.463 3.54905Z" fill="#263238"/>
<path d="M110.735 22.3484L123.005 52.4044C123.456 53.3049 123.118 54.0929 122.217 54.2055L106.12 56.4569C105.219 56.5694 104.094 56.0066 103.643 55.106L91.3734 25.05C90.9232 24.1495 91.2609 23.3615 92.1614 23.2489L108.259 20.9975C109.159 20.885 110.285 21.4478 110.735 22.3484Z" fill="#37474F"/>
<path d="M108.821 22.5736L121.092 52.6296C121.542 53.5301 121.204 54.3181 120.304 54.4307L104.206 56.6821C103.306 56.7946 102.18 56.2318 101.73 55.3312L89.4596 25.2753C89.0093 24.3747 89.347 23.5867 90.2476 23.4742L106.345 21.2228C107.246 21.1102 108.371 21.6731 108.821 22.5736Z" fill="#455A64"/>
<path d="M104.656 24.5998C104.769 25.3878 105.444 25.8381 106.232 25.7255C107.02 25.6129 107.47 24.9375 107.358 24.1495C107.245 23.3615 106.57 22.9113 105.782 23.0238C104.994 23.1364 104.544 23.9244 104.656 24.5998Z" fill="#263238"/>
<path d="M169.159 62.1978C162.968 82.9106 146.308 111.053 137.865 112.404C133.812 113.079 126.833 115.105 120.867 111.278C107.922 102.948 95.4264 85.162 91.8242 74.3553C90.5859 70.528 108.372 59.1585 111.636 61.9727C119.291 68.5017 129.197 82.01 130.323 81.6723C134.6 80.6592 149.347 64.1115 159.703 52.4043C172.199 38.4457 171.636 53.9803 169.159 62.1978Z" fill="#F7A9A0"/>
<path d="M88.3348 54.2056C89.1227 45.9881 90.6987 43.9619 87.6593 36.6449C85.7457 31.8044 87.8845 28.5399 92.0495 32.0295C98.8037 37.7705 100.042 48.5772 99.3665 52.5171L88.3348 54.2056Z" fill="#F7A9A0"/>
<path d="M93.2874 77.7326C93.2874 77.7326 88.1092 67.1511 88.1092 58.2581C88.1092 52.0668 89.5726 38.7836 105.445 29.4404C109.16 27.189 116.139 26.7387 111.298 32.5923C107.921 36.7574 104.432 38.3334 102.856 41.1476C102.856 41.1476 111.749 41.5979 113.775 45.4252C114.676 47.1138 117.152 51.8417 118.503 55.8942C118.503 55.8942 117.715 56.457 116.589 56.9073C116.589 56.9073 118.39 60.6221 116.364 66.4757L93.2874 77.7326Z" fill="#F7A9A0"/>
<path d="M89.0102 52.4045C91.149 49.9279 95.7644 44.9749 100.943 42.0481C106.684 38.8961 118.616 34.3934 120.98 38.671C122.668 41.8229 118.278 43.9618 118.278 43.9618C118.278 43.9618 123.569 43.1738 124.47 46.3257C125.257 49.2525 121.768 50.6033 121.768 50.6033C121.768 50.6033 125.145 50.6033 125.37 53.6427C125.708 57.1323 118.616 56.4569 115.914 60.2843C115.126 61.0723 89.0102 52.4045 89.0102 52.4045Z" fill="#F7A9A0"/>
<path d="M103.194 48.6897C105.558 46.776 112.087 43.7367 118.053 43.8492C118.165 43.8492 118.278 43.9618 118.165 43.9618C111.524 45.2001 105.67 47.564 103.194 48.6897C103.194 48.8023 103.194 48.6897 103.194 48.6897Z" fill="#263238"/>
<path d="M106.571 54.4307C108.822 52.9673 115.689 50.1531 121.655 50.4908C121.768 50.4908 121.88 50.6033 121.768 50.6033C114.789 51.6165 109.16 53.5301 106.571 54.4307C106.571 54.5433 106.571 54.4307 106.571 54.4307Z" fill="#263238"/>
<path d="M92.8378 82.5728C92.8378 82.5728 113.1 111.053 122.669 113.304C132.237 115.556 137.64 113.867 140.905 112.854C141.918 112.516 143.044 111.728 144.169 110.603C152.387 102.723 165.22 77.1695 169.948 63.0983C173.437 52.6294 171.636 43.849 164.432 47.7889C162.631 48.802 160.604 50.6031 158.128 53.3048C145.97 67.0382 131.449 80.5465 130.661 80.3214C129.873 80.0963 119.967 68.6142 119.967 68.6142L92.8378 82.5728Z" fill="#FE9868"/>
<path d="M97.5651 87.5257C98.4656 86.8502 107.696 81.5595 109.723 80.4338C111.749 79.3081 119.966 74.6928 122.218 73.7922C122.33 73.7922 122.443 73.9048 122.33 73.9048C120.417 75.2556 112.086 79.871 110.06 81.1092C108.034 82.2349 98.8033 87.3005 97.6776 87.7508C97.5651 87.7508 97.5651 87.6382 97.5651 87.5257Z" fill="#263238"/>
<path opacity="0.1" d="M115.914 109.139C118.503 111.278 120.754 112.741 122.781 113.192C132.349 115.443 137.752 113.755 141.017 112.741C142.03 112.404 143.156 111.616 144.281 110.49C152.499 102.61 165.332 77.057 170.06 62.9858C173.212 53.4174 171.973 45.425 166.458 46.8884C153.737 62.5355 129.535 92.3664 115.914 109.139Z" fill="black"/>
<path d="M151.823 92.3663L149.684 113.529L212.948 114.768C212.948 114.768 198.314 61.4098 186.832 49.59C179.064 41.5976 170.284 42.4981 164.768 48.3517C163.417 49.8151 148.896 67.4885 147.32 76.1563C146.082 83.8111 151.823 92.3663 151.823 92.3663Z" fill="#FE9868"/>
<path d="M159.253 89.8896C162.067 90.1148 164.881 90.3399 167.583 91.0153C168.934 91.353 170.285 91.6907 171.636 92.0285C172.311 92.2536 172.986 92.3662 173.662 92.5913C174.337 92.8164 175.125 92.929 175.801 92.929C175.913 92.929 175.913 93.0416 175.801 93.0416C175.125 93.0416 174.45 93.1542 173.774 93.0416C173.099 93.0416 172.424 92.8164 171.861 92.7039C170.51 92.3662 169.159 92.0285 167.696 91.6908C164.881 91.0153 162.18 90.4525 159.366 90.0022C159.14 90.1148 159.14 89.8896 159.253 89.8896Z" fill="#263238"/>
<path d="M154.412 92.2535C156.213 91.9158 158.014 91.8032 159.928 91.8032C160.829 91.8032 161.729 91.8032 162.63 91.9158C163.08 91.9158 163.53 92.0283 163.98 92.0283C164.431 92.1409 164.881 92.2535 165.444 92.2535V92.3661C164.994 92.3661 164.543 92.3661 164.093 92.3661C163.643 92.3661 163.192 92.3661 162.742 92.3661C161.842 92.3661 160.941 92.3661 160.041 92.3661C158.239 92.3661 156.438 92.3661 154.525 92.3661C154.3 92.4786 154.3 92.2535 154.412 92.2535Z" fill="#263238"/>
<path d="M185.031 46.7756C207.432 58.145 232.985 83.6983 231.522 92.2535C229.833 101.709 197.751 85.7245 198.089 84.2611C198.314 83.0228 191.672 72.8916 181.991 58.2576C172.198 43.3985 179.515 43.9613 185.031 46.7756Z" fill="#FE9868"/>
<path d="M231.522 92.2536C229.608 98.8952 219.702 103.285 195.838 116.794C192.573 118.707 173.099 98.8952 176.476 96.7564C180.753 94.0547 198.089 84.2612 199.44 83.6983C210.922 79.1955 232.873 87.7508 231.522 92.2536Z" fill="#D3766A"/>
<path d="M181.203 93.9421C181.203 93.9421 170.959 99.2329 166.456 103.623C160.378 109.589 157.564 117.131 156.55 120.396C154.524 127.15 154.186 145.049 159.365 146.062C163.98 146.962 163.305 128.613 163.305 128.613C163.305 128.613 160.941 147.413 166.682 147.413C172.423 147.413 170.509 126.25 170.509 126.25C170.509 126.25 168.483 145.611 174.449 144.711C178.952 144.035 178.276 124.786 178.276 124.786C178.276 124.786 176.588 141.446 181.316 140.884C186.494 140.321 186.944 122.422 186.944 122.422C198.651 119.158 202.816 112.741 205.293 107.901C205.968 106.775 181.203 93.9421 181.203 93.9421Z" fill="#F7A9A0"/>
<path d="M163.867 122.084C163.529 124.223 163.079 126.475 162.967 128.726C162.854 130.977 162.741 133.116 162.741 135.368C162.854 140.771 163.755 144.261 163.755 144.035C162.967 138.97 163.417 130.977 163.642 128.726C163.642 126.587 163.755 124.336 163.867 122.084Z" fill="#263238"/>
<path d="M171.86 122.535C171.522 125.349 171.072 128.163 170.847 130.977C170.622 133.791 170.622 136.493 170.622 139.307C170.622 139.532 170.735 139.42 170.735 139.195C170.847 136.381 171.185 133.791 171.41 130.977C171.635 128.163 171.635 125.349 171.86 122.535Z" fill="#263238"/>
<path d="M178.839 121.747C178.051 126.024 178.164 130.414 178.276 134.805C178.276 135.03 178.389 134.917 178.389 134.692C178.501 130.302 178.501 126.925 178.952 121.859C178.952 121.634 178.839 121.634 178.839 121.747Z" fill="#263238"/>
<path d="M176.138 94.5048C176.138 94.5048 203.604 115.443 203.83 115.33C204.167 115.218 231.071 99.3453 231.522 92.2534C231.972 85.1616 209.683 79.8708 199.552 83.6982C189.421 87.6381 176.138 94.5048 176.138 94.5048Z" fill="#FE9868"/>
<path d="M185.481 91.4653C186.607 92.1407 195.162 99.1201 197.076 100.696C198.877 102.272 206.531 108.576 208.332 110.264C208.445 110.377 208.332 110.49 208.22 110.377C206.194 109.026 198.426 102.61 196.513 101.146C194.599 99.5703 186.156 92.4785 185.368 91.5779C185.256 91.4653 185.368 91.4653 185.481 91.4653Z" fill="#263238"/>
<path d="M211.709 82.6852C209.345 82.3475 202.929 81.7847 197.638 84.3738C197.526 84.3738 197.638 84.4863 197.638 84.4863C202.141 82.9104 209.345 82.5727 211.709 82.6852C211.709 82.7978 211.822 82.6852 211.709 82.6852Z" fill="#263238"/>
<path d="M177.825 95.7432L176.137 94.3924V94.505L181.54 91.8033C183.341 90.9028 185.142 90.0022 187.056 89.2142C190.658 87.5257 194.373 85.8371 198.2 84.3737L198.65 84.1486L198.425 83.6983C196.287 79.871 194.148 76.1562 191.896 72.4414C189.532 68.7266 187.168 65.237 184.467 61.7473C186.831 65.3495 189.195 69.0643 191.333 72.7791C193.472 76.4939 195.724 80.2087 197.75 84.036L197.975 83.4732C194.26 85.0492 190.545 86.7377 186.943 88.5388C185.142 89.4394 183.341 90.4525 181.54 91.353C179.739 92.2536 178.05 93.2667 176.249 94.3924L176.137 94.505L176.249 94.6175L177.825 95.7432Z" fill="#263238"/>
<path d="M189.87 69.9649C189.195 69.0644 188.52 68.2764 187.732 67.4884C186.944 66.7004 186.156 66.025 185.255 65.4622C185.818 66.3627 186.606 67.1507 187.281 67.9387C187.619 68.2764 188.069 68.7267 188.52 69.0644C188.97 69.4021 189.42 69.7398 189.87 69.9649Z" fill="#263238"/>
<path d="M211.822 110.377C210.696 110.827 209.57 111.503 208.557 112.178C207.544 112.854 206.531 113.529 205.518 114.43C206.643 113.979 207.769 113.304 208.782 112.741C209.795 111.953 210.921 111.165 211.822 110.377Z" fill="#263238"/>
<path d="M177.376 46.5505C177.039 48.239 173.099 55.7812 168.033 55.556C165.444 55.4434 165.332 46.3253 165.332 46.3253L165.219 45.6499L163.418 36.1941L176.251 28.652C176.251 28.652 177.376 46.1002 177.376 46.5505Z" fill="#FFBBB4"/>
<path d="M176.701 35.181C173.662 42.0477 167.921 44.7494 165.219 45.6499L163.418 36.1941L176.251 28.652C176.251 28.652 176.476 31.6914 176.701 35.181Z" fill="#263238"/>
<path d="M150.246 21.7852C148.783 38.558 158.689 41.3722 162.291 41.5974C165.555 41.9351 176.812 42.3854 179.964 25.9503C183.116 9.40259 175.799 3.4364 168.37 2.42328C160.828 1.41016 151.709 5.01237 150.246 21.7852Z" fill="#F7A9A0"/>
<path d="M153.06 18.0702C153.511 18.0702 153.848 17.9576 154.186 17.845C154.636 17.7325 154.974 17.7325 155.312 17.3948C155.537 17.1696 155.537 16.8319 155.312 16.7193C154.974 16.2691 154.411 16.2691 153.848 16.3816C153.286 16.4942 152.835 16.7193 152.498 17.057C152.16 17.3947 152.498 18.0702 153.06 18.0702Z" fill="#263238"/>
<path d="M163.867 18.4079C163.529 18.2954 163.079 18.1828 162.741 18.1828C162.291 18.0702 161.953 18.0702 161.616 17.7325C161.503 17.5074 161.503 17.1697 161.616 17.0571C161.953 16.6068 162.516 16.6068 163.079 16.7194C163.642 16.832 164.092 17.0571 164.43 17.5074C164.768 17.8451 164.317 18.5205 163.867 18.4079Z" fill="#263238"/>
<path d="M161.503 22.5729C161.503 22.5729 161.503 22.6854 161.503 22.5729C161.503 23.8111 161.616 25.162 162.629 25.6122V25.7248C161.278 25.3871 161.165 23.6986 161.503 22.5729Z" fill="#263238"/>
<path d="M162.517 21.4473C164.318 21.4473 164.318 25.0495 162.629 25.162C160.941 25.162 161.053 21.4473 162.517 21.4473Z" fill="#263238"/>
<path d="M163.305 21.6723C163.643 21.8974 163.98 22.2351 164.318 22.3477C164.768 22.3477 165.106 22.01 165.444 21.6723H165.556C165.556 22.3477 165.331 23.1357 164.543 23.2482C163.868 23.3608 163.305 22.6854 163.192 22.01C163.08 21.7848 163.192 21.5597 163.305 21.6723Z" fill="#263238"/>
<path d="M155.199 22.348C155.199 22.2354 155.086 22.348 155.199 22.348C155.086 23.5863 154.974 24.9371 153.961 25.2748V25.3874C155.199 25.1622 155.424 23.3611 155.199 22.348Z" fill="#263238"/>
<path d="M154.186 21.1098C152.385 20.9972 152.159 24.5994 153.848 24.8245C155.537 24.9371 155.649 21.2223 154.186 21.1098Z" fill="#263238"/>
<path d="M153.398 21.3348C153.06 21.5599 152.835 21.8976 152.497 21.8976C152.047 21.8976 151.822 21.4473 151.597 21.1096C151.597 21.1096 151.597 21.1096 151.484 21.1096C151.484 21.785 151.597 22.573 152.272 22.6856C152.835 22.7982 153.398 22.2353 153.623 21.5599C153.623 21.4473 153.51 21.2222 153.398 21.3348Z" fill="#263238"/>
<path d="M161.841 31.5786C161.616 31.9163 161.391 32.3666 161.053 32.4792C160.716 32.5917 160.153 32.4792 159.815 32.4792C159.815 32.4792 159.703 32.4792 159.815 32.5917C160.153 32.9294 160.828 33.042 161.391 32.9294C161.841 32.7043 162.067 32.254 162.067 31.8037C161.954 31.5786 161.841 31.5786 161.841 31.5786Z" fill="#263238"/>
<path d="M156.664 27.4134C156.664 27.4134 156.438 29.102 156.326 29.8899C156.326 30.0025 158.802 30.5654 160.603 28.6517C160.716 28.5391 160.603 28.5391 160.491 28.5391C159.365 29.3271 158.239 29.4397 157.001 29.4397C157.001 29.2145 157.564 26.5129 157.451 26.5129C157.001 26.5129 156.101 26.738 155.65 26.8506C156.101 23.2484 157.226 19.8713 157.564 16.2691C157.564 16.1565 157.339 16.0439 157.339 16.1565C155.988 19.7587 155.313 23.8112 154.75 27.526C154.637 28.0888 156.326 27.526 156.664 27.4134Z" fill="#263238"/>
<path d="M157.452 29.8901C157.452 29.8901 158.127 30.7906 159.14 31.2409C159.478 31.3535 159.928 31.4661 160.266 31.3535C161.054 31.1283 161.166 30.3404 160.941 29.7775C160.829 29.2147 160.603 28.7644 160.603 28.7644C160.603 28.7644 159.478 29.7775 157.452 29.8901Z" fill="#263238"/>
<path d="M159.14 31.2409C159.478 31.3534 159.928 31.466 160.266 31.3534C161.054 31.1283 161.166 30.3403 160.941 29.7775C160.153 29.7775 159.253 30.3403 159.14 31.2409Z" fill="#FF9BBC"/>
<path d="M178.95 25.4996C175.798 25.9499 174.898 18.7455 174.898 18.7455C174.898 18.7455 161.502 16.7192 160.151 5.79999C160.151 5.79999 158.012 12.7793 151.033 16.0438C151.033 16.0438 151.258 4.11146 160.714 1.63494C160.714 1.63494 172.421 -2.86784 179.175 6.36284C185.929 15.5935 181.089 25.1619 178.95 25.4996Z" fill="#263238"/>
<path d="M160.152 5.01221C160.039 6.70075 160.264 8.38928 160.827 9.96525C161.39 11.5412 162.29 13.1172 163.416 14.3555C163.641 14.6932 163.979 14.9183 164.317 15.256L164.767 15.7063C164.88 15.8189 165.105 15.9314 165.33 16.044C165.668 16.2691 166.005 16.4943 166.343 16.7194C166.681 16.9445 167.131 17.1697 167.469 17.2822C167.694 17.3948 167.806 17.5074 168.032 17.5074L168.594 17.7325L169.833 18.1828C170.621 18.4079 171.521 18.5205 172.309 18.7457C171.521 18.4079 170.733 18.1828 169.945 17.8451L168.819 17.2822L168.257 17.0571C168.032 16.9445 167.919 16.832 167.694 16.7194C167.356 16.4943 167.018 16.2691 166.681 16.044C166.343 15.8189 166.005 15.5937 165.668 15.3686L165.217 15.0309L164.767 14.5806C164.429 14.2429 164.204 14.0177 163.866 13.68C162.741 12.5543 161.953 11.091 161.277 9.62755C160.94 8.83957 160.715 8.05158 160.489 7.26359C160.264 6.70075 160.152 5.91276 160.152 5.01221Z" fill="#263238"/>
<path d="M176.925 24.9371C176.925 24.9371 180.64 19.6464 183.004 20.9972C185.368 22.3481 182.666 29.8902 179.852 31.0159C177.038 32.029 176.025 29.4399 176.025 29.4399L176.925 24.9371Z" fill="#F7A9A0"/>
<path d="M182.215 23.1362C182.215 23.1362 182.215 23.2488 182.215 23.1362C180.302 24.0368 179.289 25.8379 178.501 27.7516C179.063 27.0761 179.851 26.6259 180.864 27.3013V27.4138C180.076 27.1887 179.514 27.4138 178.951 27.9767C178.613 28.427 178.275 28.9898 178.05 29.5527C177.938 29.7778 177.6 29.6652 177.713 29.4401C177.487 26.851 179.514 23.3614 182.215 23.1362Z" fill="#263238"/>
<path d="M179.514 30.3405C179.401 30.6782 179.064 30.9033 178.613 30.9033C178.276 30.7908 178.051 30.4531 178.051 30.0028C178.163 29.6651 178.501 29.4399 178.951 29.4399C179.401 29.5525 179.627 29.8902 179.514 30.3405Z" fill="#455A64"/>
<path d="M179.177 30.2278C179.177 30.453 178.951 30.5656 178.726 30.453C178.501 30.453 178.389 30.2278 178.501 30.0027C178.501 29.7776 178.726 29.665 178.951 29.7776C179.064 29.8901 179.177 30.0027 179.177 30.2278Z" fill="#263238"/>
<path d="M180.752 29.44C180.639 29.6651 180.414 29.8902 180.076 29.7777C179.851 29.6651 179.626 29.44 179.739 29.1023C179.851 28.8771 180.076 28.652 180.414 28.7646C180.639 28.8771 180.864 29.2148 180.752 29.44Z" fill="#455A64"/>
<path d="M185.931 47.2257C185.931 47.2257 177.714 60.0586 168.37 59.946C160.941 59.8334 160.378 51.053 160.378 51.053C160.378 51.053 164.768 44.4115 173.999 43.8486C180.753 43.5109 185.931 47.2257 185.931 47.2257Z" fill="#F7A9A0"/>
</svg>
