<svg width="314" height="197" viewBox="0 0 314 197" fill="none" xmlns="http://www.w3.org/2000/svg">
<path d="M98.3671 178.699C54.0531 178.699 18.0548 142.701 18.0548 98.3866C18.0548 54.0726 54.0531 18.0743 98.3671 18.0743C142.681 18.0743 178.679 54.0726 178.679 98.3866C178.679 142.701 142.681 178.699 98.3671 178.699ZM98.3671 22.451C56.4603 22.451 22.4315 56.4798 22.4315 98.3866C22.4315 140.293 56.4603 174.322 98.3671 174.322C140.274 174.322 174.303 140.293 174.303 98.3866C174.303 56.4798 140.274 22.451 98.3671 22.451Z" fill="#FE9563"/>
<path d="M147.264 147.288C174.269 120.283 174.269 76.4986 147.264 49.4934C120.259 22.4882 76.4747 22.4882 49.4695 49.4934C22.4643 76.4986 22.4643 120.283 49.4695 147.288C76.4747 174.293 120.259 174.293 147.264 147.288Z" fill="#FFA175"/>
<path d="M310.417 85.584H306.041V84.4899H310.417V85.584ZM302.758 85.584H298.382V84.4899H302.758V85.584ZM295.099 85.584H290.722V84.4899H295.099V85.584ZM287.44 85.584H283.063V84.4899H287.44V85.584ZM279.781 85.584H275.404V84.4899H279.781V85.584ZM272.121 85.584H267.745V84.4899H272.121V85.584ZM264.462 85.584H260.085V84.4899H264.462V85.584ZM256.803 85.584H252.426V84.4899H256.803V85.584ZM249.144 85.584H244.767V84.4899H249.144V85.584ZM241.485 85.584H237.108V84.4899H241.485V85.584ZM233.825 85.584H229.449V84.4899H233.825V85.584ZM226.166 85.584H221.789V84.4899H226.166V85.584ZM218.507 85.584H214.13V84.4899H218.507V85.584ZM210.848 85.584H206.471V84.4899H210.848V85.584ZM203.188 85.584H198.812V84.4899H203.188V85.584ZM195.529 85.584H191.153V84.4899H195.529V85.584ZM187.87 85.584H183.493V84.4899H187.87V85.584ZM180.211 85.584H175.834V84.4899H180.211V85.584Z" fill="#FFC727"/>
<path d="M310.638 87.553C311.951 87.553 313.154 86.4589 313.154 85.0364C313.154 83.7234 312.06 82.5198 310.638 82.5198C309.215 82.5198 308.121 83.614 308.121 85.0364C308.231 86.4589 309.325 87.553 310.638 87.553Z" fill="#FFC727"/>
<path d="M161.176 40.9434L149.906 76.9417C149.468 78.0359 149.906 78.9112 151 78.9112L169.82 80.0054C170.914 80.1148 172.118 79.2395 172.556 78.2547L183.825 42.2564C184.263 41.1623 183.825 40.2869 182.731 40.2869L163.912 39.1927C162.927 39.0833 161.723 39.9587 161.176 40.9434Z" fill="#37474F"/>
<path d="M163.472 41.0525L152.202 77.0508C151.765 78.145 152.202 79.0203 153.297 79.0203L172.116 80.1145C173.211 80.2239 174.414 79.3486 174.852 78.3638L186.122 42.3655C186.56 41.2713 186.122 40.396 185.028 40.396L166.208 39.3018C165.114 39.1924 163.91 40.0677 163.472 41.0525Z" fill="#455A64"/>
<path d="M168.507 43.0225C168.398 43.8978 167.632 44.5543 166.757 44.4449C165.881 44.3355 165.225 43.5696 165.334 42.6942C165.444 41.8189 166.209 41.1624 167.085 41.2718C167.96 41.3812 168.617 42.1472 168.507 43.0225Z" fill="#263238"/>
<path d="M97.3841 92.6976C106.575 116.113 128.459 147.078 138.416 147.844C143.121 148.172 151.436 149.923 158.001 144.89C172.226 133.948 185.027 112.174 188.2 99.372C189.295 94.8859 167.63 83.3971 164.129 86.8985C155.813 95.1048 145.747 111.736 144.324 111.517C139.291 110.751 120.581 93.0259 107.56 80.4429C91.5849 65.4527 93.7733 83.3971 97.3841 92.6976Z" fill="#F7A9A0"/>
<path d="M190.172 75.7381C188.421 66.2188 186.561 64.1399 189.297 55.277C191.157 49.4779 188.203 45.8672 183.717 50.3533C176.386 57.5748 176.057 70.2672 177.261 74.7533L190.172 75.7381Z" fill="#F7A9A0"/>
<path d="M186.779 103.421C186.779 103.421 191.812 90.7281 190.937 80.4429C190.39 73.3308 187.326 58.0124 168.069 48.7119C163.473 46.5235 155.486 46.6329 161.613 52.8697C165.99 57.3558 170.038 58.8877 172.117 61.9514C172.117 61.9514 161.941 63.2644 159.863 67.9693C158.987 70.0483 156.58 75.738 155.486 80.4429C155.486 80.4429 156.471 80.99 157.784 81.4277C157.784 81.4277 156.033 85.8044 158.987 92.4788L186.779 103.421Z" fill="#F7A9A0"/>
<path d="M189.296 73.6597C186.561 71.0337 180.762 65.6722 174.525 62.8274C167.522 59.7637 153.298 55.6058 151 60.8579C149.359 64.6875 154.72 66.657 154.72 66.657C154.72 66.657 148.484 66.2193 147.718 69.9395C147.061 73.3315 151.219 74.6445 151.219 74.6445C151.219 74.6445 147.389 74.9727 147.389 78.4741C147.389 82.6319 155.486 81.1001 158.988 85.2579C159.863 86.2427 189.296 73.6597 189.296 73.6597Z" fill="#F7A9A0"/>
<path d="M172.448 70.8143C169.494 68.7354 161.725 65.8905 154.832 66.6565C154.722 66.6565 154.613 66.7659 154.722 66.7659C162.491 67.5318 169.494 69.7201 172.448 70.8143C172.448 70.9237 172.448 70.8143 172.448 70.8143Z" fill="#263238"/>
<path d="M169.164 77.7078C166.429 76.1759 158.222 73.5499 151.329 74.5346C151.22 74.5346 151.11 74.6441 151.22 74.6441C159.316 75.3006 166.1 76.8324 169.164 77.7078C169.164 77.8172 169.164 77.8172 169.164 77.7078Z" fill="#263238"/>
<path d="M187.654 109C187.654 109 166.865 143.904 156.033 147.406C145.091 150.907 138.745 149.485 134.915 148.719C133.712 148.5 132.398 147.625 130.867 146.421C120.691 137.996 103.184 109.657 96.4002 93.9007C91.2576 82.0836 92.68 71.6889 101.324 75.628C103.512 76.6127 106.029 78.4728 109.202 81.4271C124.63 96.1984 142.684 110.423 143.559 110.094C144.434 109.657 154.829 95.4325 154.829 95.4325L187.654 109Z" fill="#FFD4C0"/>
<path d="M182.73 115.237C181.526 114.472 170.365 109.22 167.958 108.125C165.551 107.031 155.485 102.545 152.859 101.56C152.749 101.56 152.64 101.67 152.749 101.779C155.156 103.202 165.223 107.797 167.739 108.891C170.256 110.095 181.417 115.019 182.73 115.347C182.73 115.456 182.839 115.347 182.73 115.237Z" fill="#263238"/>
<path d="M135.572 104.405C129.554 109.438 120.8 116.332 111.609 121.584C109.202 117.754 106.795 113.815 104.716 109.985C110.296 106.812 117.518 102.217 125.287 95.8706C129.007 99.1531 132.618 102.107 135.572 104.405Z" fill="#455A64"/>
<path opacity="0.1" d="M158.331 146.311C157.565 146.749 156.799 147.187 156.033 147.405C145.091 150.907 138.745 149.484 134.915 148.609C133.712 148.39 132.399 147.515 130.867 146.311C120.691 137.886 103.184 109.547 96.4005 93.7909C93.7745 87.6635 92.8991 82.0832 93.7744 78.4725C110.296 95.651 141.262 128.476 158.331 146.311Z" fill="black"/>
<path d="M119.707 164.147C112.923 166.335 105.811 167.539 98.3709 167.539C77.5816 167.539 58.9806 158.347 46.2882 143.904C53.1815 118.738 66.0928 82.7401 84.6937 75.2997C89.2892 73.4396 101.653 74.2055 103.076 75.9562C112.923 88.2109 118.941 146.53 119.707 164.147Z" fill="#FFD4C0"/>
<path d="M98.1552 88.976C93.5597 89.3043 87.1041 81.5356 84.9157 75.6271C84.8063 75.1894 85.9005 71.3598 87.1041 66.6549C87.87 63.81 88.5265 60.5275 88.9642 57.5732L107.018 64.9042C107.018 64.9042 104.283 70.9222 103.517 76.0648C103.407 76.5025 103.407 76.9401 103.407 77.2684C103.407 77.3778 103.407 77.3778 103.407 77.4872C103.517 80.0038 102.641 88.6478 98.1552 88.976Z" fill="#F7A9A0"/>
<path d="M107.126 65.0145C107.126 65.0145 104.39 71.0325 103.625 76.1751C103.515 76.6128 103.515 77.0504 103.515 77.3787C103.515 77.4881 103.515 77.4881 103.515 77.5975C102.968 77.5975 102.312 77.4881 101.546 77.3787C90.7133 75.5186 89.6191 61.5132 89.6191 57.793L107.126 65.0145Z" fill="#263238"/>
<path d="M86.8824 36.346C84.9128 43.1299 88.633 62.4968 93.4474 66.764C100.45 73.0008 111.83 73.4385 116.972 65.0134C122.005 56.9165 116.753 31.7505 111.282 27.8115C103.514 22.2312 89.8366 26.389 86.8824 36.346Z" fill="#F7A9A0"/>
<path d="M85.8991 54.8386C91.2606 54.5104 93.2301 47.8359 91.37 42.9122C91.37 42.9122 105.704 43.0216 104.938 31.6422C104.938 31.6422 108.33 36.2377 114.785 35.5812L116.864 39.5202C118.287 38.9731 119.271 34.5964 115.332 31.861C115.332 31.861 114.348 26.2807 109.752 23.3264C105.157 20.4816 101.327 23.217 101.327 23.217C101.327 23.217 97.7162 20.9193 92.5736 22.2323C87.4309 23.5453 85.8991 28.5785 85.8991 28.5785C85.8991 28.5785 79.1152 30.7668 78.4587 35.9094C77.9116 41.0521 80.8659 44.0063 80.8659 44.0063C80.8659 44.0063 79.3341 46.1947 80.7565 50.3525C81.7412 52.9786 84.2578 54.9481 85.8991 54.8386Z" fill="#263238"/>
<path d="M104.501 30.6572C104.72 31.5325 104.829 32.5173 104.829 33.3926C104.938 34.2679 104.829 35.2527 104.61 36.128C104.282 37.8787 103.297 39.52 101.875 40.6141C100.452 41.8177 98.5923 42.146 96.8416 42.5837C95.9663 42.6931 94.9815 42.8025 94.1062 42.9119C93.1214 42.9119 92.2461 42.9119 91.2613 43.0213C92.1367 43.1307 93.1214 43.2402 94.1062 43.2402C95.0909 43.2402 95.9663 43.1307 96.951 43.1307C98.8111 42.8025 100.781 42.4742 102.312 41.1612C103.844 39.9576 104.938 38.207 105.157 36.2374C105.486 34.3774 105.157 32.4078 104.501 30.6572Z" fill="#263238"/>
<path d="M85.8999 28.579C84.1492 28.7978 82.3985 29.4543 80.8667 30.3297C79.3348 31.3144 78.0218 32.7368 77.3653 34.4875C77.1465 35.3629 77.037 36.3476 77.037 37.223C77.037 38.0983 77.1465 39.083 77.4747 39.9584C78.1312 41.7091 79.3348 43.2409 80.8667 44.0068C79.4442 42.9127 78.3501 41.3808 77.9124 39.7396C77.4747 38.0983 77.3653 36.2382 77.9124 34.7064C78.1312 33.9404 78.5689 33.1745 79.116 32.518C79.6631 31.8615 80.3196 31.3144 81.0855 30.7673C82.5079 29.7826 84.1492 29.0166 85.8999 28.579Z" fill="#263238"/>
<path d="M101.328 23.2173C102.641 22.5607 103.954 22.1231 105.377 21.9042C106.799 21.6854 108.222 21.7948 109.425 22.3419C110.738 22.889 111.832 23.7643 112.708 24.8585C113.583 25.9527 114.349 27.1563 114.896 28.5787C114.568 27.1563 114.021 25.8433 113.145 24.6397C112.27 23.4361 111.067 22.4513 109.644 21.9042C108.222 21.3572 106.69 21.2477 105.267 21.6854C103.845 21.7948 102.532 22.3419 101.328 23.2173Z" fill="#263238"/>
<path d="M112.598 36.3469C110.957 36.0187 109.425 35.4716 108.002 34.5963C107.346 34.1586 106.689 33.6115 106.142 33.0644C105.595 32.5173 105.158 31.7514 104.72 31.0949C104.939 31.8608 105.267 32.7362 105.814 33.3927C106.361 34.0492 107.018 34.7057 107.674 35.1433C108.44 35.581 109.206 35.9093 110.081 36.1281C110.847 36.2375 111.723 36.3469 112.598 36.3469Z" fill="#263238"/>
<path d="M106.468 48.2726L106.359 48.3821C106.687 49.6951 106.796 51.2269 105.702 51.8834V51.9928C107.125 51.4458 106.906 49.3668 106.468 48.2726Z" fill="#263238"/>
<path d="M104.937 47.1785C102.858 47.5068 103.515 51.6646 105.484 51.4458C107.454 51.1175 106.688 46.9597 104.937 47.1785Z" fill="#263238"/>
<path d="M114.019 46.9594C114.019 46.9594 114.128 46.9594 114.128 47.0688C114.347 48.3818 114.785 49.8043 115.988 50.0231V50.1325C114.566 50.1325 114.019 48.163 114.019 46.9594Z" fill="#263238"/>
<path d="M115.004 45.3185C117.083 44.7714 117.958 48.9293 116.098 49.4764C114.128 49.9141 113.253 45.7562 115.004 45.3185Z" fill="#263238"/>
<path d="M102.968 43.7875C103.515 43.5687 103.953 43.2404 104.5 42.9122C105.047 42.5839 105.594 42.3651 105.922 41.7086C106.141 41.3803 105.922 40.8333 105.594 40.6144C104.828 40.1767 104.062 40.3956 103.296 40.7238C102.53 41.1615 101.983 41.5992 101.655 42.4745C101.327 43.4593 102.312 44.1158 102.968 43.7875Z" fill="#263238"/>
<path d="M116.427 43.7873C115.88 43.7873 115.224 43.6779 114.676 43.6779C114.02 43.6779 113.473 43.6779 112.926 43.2402C112.597 43.0214 112.598 42.4743 112.707 42.146C113.145 41.3801 114.02 41.2707 114.786 41.2707C115.661 41.2707 116.318 41.4895 116.974 42.146C117.74 42.6931 117.193 43.7873 116.427 43.7873Z" fill="#263238"/>
<path d="M107.017 59.9808C107.345 60.3091 107.673 60.7468 108.111 60.7468C108.549 60.7468 109.096 60.6373 109.533 60.4185C109.533 60.4185 109.643 60.4185 109.643 60.5279C109.314 61.075 108.549 61.2938 108.001 61.1844C107.454 61.075 107.126 60.5279 107.017 59.9808C107.017 59.9808 106.907 59.9808 107.017 59.9808Z" fill="#263238"/>
<path d="M108.002 55.9326C108.877 56.9173 110.081 57.355 111.285 57.355C111.832 57.355 112.379 57.2456 112.926 57.1362C113.035 57.1362 113.364 57.0268 113.473 56.9173C113.582 56.9173 113.692 56.6985 113.692 56.5891L113.145 53.8536C113.582 53.9631 115.552 54.5101 115.443 53.9631C114.458 49.6958 113.254 44.8814 111.394 40.833C111.285 40.7236 111.175 40.7236 111.175 40.9424C111.941 45.1003 113.582 49.0393 114.458 53.1971C113.801 53.0877 112.816 52.8689 112.269 52.9783C112.16 52.9783 113.035 56.3702 113.035 56.3702C111.394 56.9173 110.081 56.5891 108.221 55.7137C108.002 55.7137 107.893 55.8232 108.002 55.9326Z" fill="#263238"/>
<path d="M113.583 47.8356C113.036 44.3343 114.458 41.0518 116.756 40.7235C119.054 40.2858 121.461 42.9118 122.117 46.4132C122.664 49.9146 121.242 53.1971 118.944 53.5253C116.537 53.963 114.13 51.4464 113.583 47.8356ZM114.458 47.7262C115.005 50.7899 116.865 53.0877 118.725 52.7594C120.585 52.4312 121.68 49.6957 121.242 46.632C120.695 43.5683 118.835 41.2706 116.975 41.5988C115.005 41.9271 113.911 44.6625 114.458 47.7262Z" fill="#455A64"/>
<path d="M99.3577 50.4614C98.8106 46.9601 100.999 43.5681 104.281 43.021C107.564 42.474 110.737 44.8811 111.394 48.4919C111.941 51.9933 109.752 55.3852 106.47 55.9323C103.078 56.4794 99.9048 54.0722 99.3577 50.4614ZM100.233 50.352C100.78 53.4157 103.406 55.4946 106.251 55.0569C109.096 54.6193 110.956 51.665 110.518 48.6013C109.971 45.5376 107.345 43.4587 104.5 43.8964C101.655 44.4435 99.6859 47.2883 100.233 50.352Z" fill="#455A64"/>
<path d="M110.956 47.9453C112.926 46.6323 114.02 47.3983 114.02 47.3983L114.239 46.7418C114.239 46.7418 112.816 45.757 110.628 47.2888L110.956 47.9453Z" fill="#455A64"/>
<path d="M99.905 49.6957L99.7956 48.9297C99.2485 48.9297 87.5409 49.8051 86.3373 50.0239C85.0243 50.2428 82.5077 52.7594 82.1794 53.0876L82.7265 53.6347C83.4924 52.9782 85.4619 51.1181 86.4467 50.7898C87.5409 50.571 95.7472 49.9145 99.905 49.6957Z" fill="#455A64"/>
<path d="M92.0267 53.3063C92.0267 53.3063 87.4312 47.179 84.6958 48.8202C81.8509 50.4615 85.4617 59.4337 88.8536 60.6373C92.2456 61.7315 93.3397 58.6678 93.3397 58.6678L92.0267 53.3063Z" fill="#F7A9A0"/>
<path d="M85.6793 51.3369C85.6793 51.3369 85.6793 51.4463 85.6793 51.3369C88.0864 52.3217 89.29 54.4006 90.2748 56.6984C89.5089 55.823 88.6335 55.3854 87.4299 56.2607C87.3205 56.2607 87.4299 56.3701 87.5394 56.3701C88.5241 56.1513 89.1806 56.2607 89.8371 57.0266C90.2748 57.5737 90.603 58.2302 91.0407 58.8867C91.1501 59.1055 91.4784 58.9961 91.4784 58.7773C91.369 55.7136 88.9618 51.5557 85.6793 51.3369Z" fill="#263238"/>
<path d="M104.61 83.3957C104.5 83.3957 104.61 83.3957 104.61 83.3957C104.829 87.1159 105.047 95.7599 99.2484 95.2128C96.9506 94.994 94.7622 93.5716 93.0116 92.1491C91.1515 90.7267 89.5102 88.976 88.0878 87.1159C86.4465 85.037 84.8053 82.9581 83.4923 80.6603C83.4923 80.5509 83.2734 80.6603 83.3828 80.7697C84.8053 83.0675 85.8994 85.3653 87.5407 87.5536C89.0725 89.6325 90.8232 91.4926 92.9022 93.1339C94.8717 94.5563 97.06 96.0882 99.5766 96.1976C101.984 96.307 103.625 94.7752 104.391 92.6962C105.157 89.742 105.047 86.35 104.61 83.3957Z" fill="#263238"/>
<path d="M81.9576 92.2597C75.2831 114.909 59.8553 140.294 49.8983 147.187C43.8803 151.454 25.2794 150.36 25.0605 138.324C24.9511 126.288 66.7486 89.4148 73.0948 82.9592C79.9881 76.0659 87.9755 71.7986 81.9576 92.2597Z" fill="#F7A9A0"/>
<path d="M83.0518 92.8066C76.3773 115.456 59.8553 140.184 49.8983 147.187C43.8803 151.454 25.2794 150.36 25.0606 138.324C24.9511 126.288 65.9826 88.4299 72.6571 82.3025C80.5352 74.9715 89.0697 72.4549 83.0518 92.8066Z" fill="#FFD4C0"/>
<path d="M76.3779 109.876C74.5178 113.924 72.3294 117.863 70.1411 121.583C64.0137 117.207 56.2451 111.189 49.5706 104.514C52.8531 101.122 56.0262 97.9493 59.0899 94.9951C63.3572 99.3718 69.1563 104.624 76.3779 109.876Z" fill="#455A64"/>
<path d="M34.4701 148.062C36.9867 148.609 39.5033 148.828 42.0199 148.5C44.5365 148.281 46.9437 147.515 49.132 146.421C53.8369 144.014 57.1195 139.856 60.0737 135.589C63.3563 130.993 66.4199 126.179 69.2648 121.364C72.1096 116.55 74.8451 111.517 77.4711 106.484C78.7841 103.967 79.9877 101.341 81.3007 98.8243C82.5043 96.3077 83.7079 93.7911 84.9115 91.1651C85.2397 90.5086 85.4586 89.8521 85.6774 89.1956C85.6774 89.0862 85.7868 89.1956 85.7868 89.1956C84.8021 91.931 83.8173 94.557 82.7231 97.2925C82.6137 97.6207 82.3949 97.949 82.2855 98.2772C83.3796 96.3077 84.4738 94.3382 85.568 92.3687C85.6774 92.2593 85.7868 92.3687 85.7868 92.4781C84.8021 94.5571 83.7079 96.5266 82.6137 98.4961C82.0666 99.4808 81.5195 100.466 80.9724 101.45C80.4254 102.654 79.8783 103.967 79.3312 105.171C76.924 110.423 74.1886 115.456 71.3437 120.489C68.3895 125.522 65.3258 130.337 62.0432 135.041C58.9796 139.418 55.8065 143.904 51.1015 146.64C46.7248 149.266 41.254 150.141 36.3302 148.719C35.6737 148.5 35.1266 148.39 34.5795 148.062C34.2512 148.172 34.3607 147.953 34.4701 148.062Z" fill="#263238"/>
<path d="M49.7916 59.2151C53.6212 51.3371 59.5297 40.6142 63.2499 39.0823C67.189 37.5505 81.085 32.7361 84.6957 32.6267C88.3065 32.5173 100.78 37.0034 102.968 39.4106C104.719 41.2707 101.327 45.4285 94.1056 44.4438C87.3217 43.459 85.7899 42.9119 83.8204 43.1308C81.8509 43.3496 75.7235 47.7263 76.0518 50.5712C76.2706 52.3218 79.9908 55.3855 83.1639 55.0573C86.2276 54.729 88.3065 51.7748 92.1361 50.2429C95.9657 48.7111 101.327 50.79 101.218 52.3218C101.108 53.8537 99.0294 53.9631 94.6527 58.121C91.8079 60.747 89.6195 66.2178 83.8204 70.3757C80.8661 72.4546 74.9576 78.6914 74.9576 78.6914L49.7916 59.2151Z" fill="#F7A9A0"/>
<path d="M63.3587 39.0834C67.2978 35.8009 76.3794 30.5488 83.8198 30.1112C88.853 29.7829 101.874 42.2565 100.561 45.1013C99.1382 47.9462 96.5122 47.0708 92.792 45.3202C91.3696 44.6637 84.8045 39.6305 82.9444 40.7246C80.4278 42.3659 75.5041 49.3686 75.5041 49.3686L63.3587 39.0834Z" fill="#F7A9A0"/>
<path d="M100.452 43.8975C99.5771 40.1773 95.8569 37.1136 92.1367 34.3782C92.0273 34.3782 92.0273 34.3782 92.0273 34.4876C93.1215 35.1441 98.9206 40.5055 100.452 43.8975Z" fill="#263238"/>
<path d="M63.3588 39.0836C67.2978 35.8011 76.3795 30.5491 83.8198 30.1114C88.853 29.7831 98.0441 43.3509 96.6217 46.1957C95.1992 49.0406 91.3696 48.0558 87.6494 45.211C86.4459 44.3356 82.9445 39.6307 81.1938 40.8343C78.6772 42.4755 72.331 46.7428 72.331 46.7428L63.3588 39.0836Z" fill="#F7A9A0"/>
<path d="M75.9409 44.1165C76.5974 43.5694 76.8162 43.46 77.4727 42.9129C78.1293 42.3658 78.7858 41.9282 79.4423 41.4905C79.9893 41.0528 80.6458 40.6152 81.3024 40.5057C81.9589 40.2869 82.6154 40.5058 83.2719 40.7246C84.6943 41.2717 85.679 42.6941 86.6638 43.7883C87.758 44.9919 90.2746 47.1802 92.4629 47.7273C93.1194 47.8367 93.6665 47.9461 94.323 47.8367C94.7607 47.7273 95.3078 47.6179 95.636 47.2896C97.0585 45.9766 96.5114 43.7883 95.7454 42.0376C94.2136 38.8645 91.8064 36.1291 89.2898 33.8313C88.6333 33.2842 88.0862 32.6277 87.4297 32.0806C86.6638 31.4241 86.0073 30.7676 85.0225 30.4394C83.4907 29.8923 80.5364 30.6582 79.5517 30.877C79.4423 30.877 79.4423 30.7676 79.5517 30.7676C80.6459 30.4394 83.6001 29.3452 86.0073 30.2205C86.8826 30.5488 87.5391 31.3147 88.3051 31.8618C89.071 32.5183 89.7275 33.1748 90.4934 33.8313C91.8064 35.1443 93.1194 36.5667 94.323 38.0986C95.4172 39.521 96.5114 41.1623 96.949 42.9129C97.3867 44.4448 97.0585 46.3049 95.8549 47.399C94.8701 48.2744 93.3383 48.165 92.6818 47.9461C92.0253 47.8367 91.3688 47.6179 90.7122 47.2896C90.0557 46.9614 87.8674 45.4295 86.8826 44.773C85.679 43.7883 84.8037 42.5847 83.6001 41.7093C83.053 41.2717 82.2871 41.0528 81.6306 41.1623C80.9741 41.2717 80.3176 41.7093 79.7705 42.0376C78.4575 42.8035 77.5822 43.2412 76.3786 44.2259C75.8315 44.4448 75.7221 44.2259 75.9409 44.1165Z" fill="#263238"/>
<path d="M60.2945 42.037C61.9358 40.3957 66.0936 32.8459 68.3914 30.8764C70.6891 28.9069 80.5367 22.6701 83.8192 24.0926C87.8677 25.8432 81.0838 31.9706 77.9107 34.3778C74.7376 36.785 73.4246 42.1464 73.4246 42.1464L60.2945 42.037Z" fill="#F7A9A0"/>
<path d="M82.6156 30.2201C81.5214 30.986 80.5367 31.8614 79.4425 32.6273C78.4577 33.3932 77.473 34.1591 76.5977 35.1439C75.7223 36.1286 75.1752 37.2228 74.7376 38.317C74.5187 38.8641 74.2999 39.4111 74.0811 40.0677C73.8622 40.7242 73.7528 41.3807 73.534 42.0372C73.534 42.1466 73.6434 42.1466 73.6434 42.0372C74.0811 40.943 74.6281 39.7394 75.1752 38.7546C75.7223 37.6605 76.4882 36.5663 77.3636 35.691C79.0048 33.8309 81.0838 32.299 82.725 30.4389C82.725 30.3295 82.6156 30.2201 82.6156 30.2201Z" fill="#263238"/>
<path d="M81.6335 54.8388C83.2747 55.0577 84.4783 54.5106 85.5725 53.7447C86.6667 53.0882 87.6514 52.3222 88.6362 51.5563C89.7303 50.8998 90.7151 50.2433 91.9187 49.8057C93.2317 49.368 94.6541 49.368 96.0766 49.368C97.3896 49.368 98.812 49.4774 100.016 50.1339C101 50.681 101.985 51.7752 101.438 52.9788C101.11 53.5258 100.672 53.9635 100.234 54.4012C99.7967 54.8389 99.2497 55.1671 98.812 55.4954C97.7178 56.1519 96.6236 56.699 95.7483 57.4649C94.4353 58.4496 93.56 59.872 92.5752 61.1851C92.2469 61.6227 89.8398 65.0147 88.9644 66.1088C88.1985 67.0936 87.4326 67.9689 86.4478 68.7348C85.5725 69.5008 84.5877 70.1573 83.7124 70.7044C82.6182 71.3609 81.6335 72.1268 80.7581 73.0021C80.7581 73.0021 80.6487 73.0021 80.6487 72.8927C81.8523 71.0326 83.8218 69.829 85.5725 68.6254C87.8703 67.0936 93.3411 58.8873 94.3259 57.7931C95.9671 55.933 98.2649 55.1671 100.016 53.6353C100.453 53.307 101.11 52.7599 101.11 52.1034C101.11 51.5563 100.672 51.0092 100.125 50.7904C99.0308 50.1339 97.499 50.0245 96.2954 50.1339C94.9824 50.1339 93.56 50.2433 92.247 50.5716C91.1528 50.8998 89.9492 51.4469 88.9644 51.994C87.7608 52.6505 86.6667 53.4164 85.4631 54.0729C84.3689 54.9483 83.0559 55.2765 81.6335 54.8388C81.6335 54.9483 81.6335 54.8388 81.6335 54.8388Z" fill="#263238"/>
<path d="M100.999 38.2075C100.124 37.7698 99.2485 37.2227 98.3732 36.6757C99.4673 37.1133 100.562 37.551 101.546 38.0981C102.422 38.4263 103.188 38.9734 103.516 39.9582C103.844 40.8335 103.406 41.7089 102.859 42.3654C102.203 43.1313 101.327 43.4595 100.452 43.7878C100.452 43.7878 100.343 43.7878 100.452 43.6784C101.765 43.0219 103.953 41.5994 102.969 39.8488C102.531 39.0828 101.765 38.6452 100.999 38.2075Z" fill="#263238"/>
<path d="M96.1842 46.633C97.169 46.7424 98.3726 46.7424 99.2479 46.3048C99.6856 46.0859 100.014 45.7577 100.233 45.4294C100.342 45.2106 100.452 44.9917 100.452 44.7729C100.452 44.5541 100.561 44.2258 100.452 44.007C100.452 43.8976 100.561 43.8976 100.561 44.007C100.561 44.1164 100.67 44.2258 100.67 44.4447C100.67 44.5541 100.67 44.6635 100.78 44.7729C100.78 44.9917 100.78 45.2106 100.67 45.4294C100.452 45.9765 100.123 46.3047 99.6856 46.633C98.482 47.2895 97.2784 47.0707 96.1842 46.633C96.0748 46.7424 96.0748 46.633 96.1842 46.633Z" fill="#263238"/>
<path d="M76.7079 76.5037C73.6442 85.5853 51.5419 135.698 45.7428 142.373C39.9437 148.938 26.8136 149.704 23.8593 137.011C20.905 124.319 45.9616 67.0938 50.5571 57.9027C52.9643 52.8695 77.8021 73.2212 76.7079 76.5037Z" fill="#F7A9A0"/>
<path d="M80.5377 85.2568L45.6336 62.2791C45.6336 62.2791 25.0632 110.751 23.0936 133.072C21.9995 145.436 36.4426 155.503 49.0255 139.418C61.718 123.443 80.5377 85.2568 80.5377 85.2568Z" fill="#FFD4C0"/>
<path d="M74.9583 91.7129C69.8157 88.7586 49.2452 75.9568 45.0874 72.8931C44.7591 72.6743 44.8685 72.4554 45.1968 72.6743C60.8435 81.0994 70.2533 88.4304 75.0677 91.494C75.2865 91.6035 75.1771 91.8223 74.9583 91.7129Z" fill="#263238"/>
<path d="M61.1713 120.599C65.6574 113.268 69.9247 105.937 73.8637 98.2779C74.9579 96.1989 76.0521 94.0106 77.0368 91.8223C78.0216 89.7433 79.1157 87.6644 79.9911 85.5855C79.2252 85.0384 75.8332 82.5218 75.505 82.0841C75.3955 81.9747 75.505 81.7559 75.7238 81.8653C76.1615 82.0841 80.1005 84.6007 80.8664 85.3666C80.9758 85.4761 79.0063 89.5245 78.131 91.494C77.2556 93.4635 76.2709 95.433 75.3955 97.2931C73.5355 101.123 71.5659 104.952 69.487 108.673C67.2987 112.721 64.8915 116.66 62.4843 120.599C60.296 123.991 55.3722 130.009 61.1713 120.599Z" fill="#263238"/>
</svg>
